G04 #@! TF.FileFunction,Paste,Bot*
%FSLAX46Y46*%
G04 Gerber Fmt 4.6, Leading zero omitted, Abs format (unit mm)*
G04 Created by KiCad (PCBNEW 4.0.4-stable) date 02/12/17 18:05:12*
%MOMM*%
%LPD*%
G01*
G04 APERTURE LIST*
%ADD10C,0.100000*%
%ADD11R,1.100000X3.500000*%
%ADD12O,3.400000X1.100000*%
%ADD13R,1.300000X1.500000*%
%ADD14R,1.500000X1.300000*%
%ADD15R,1.500000X1.250000*%
%ADD16R,3.200000X3.600000*%
%ADD17R,1.060000X0.650000*%
G04 APERTURE END LIST*
D10*
D11*
X169418000Y-92329000D03*
X171418000Y-92329000D03*
X173418000Y-92329000D03*
X175418000Y-92329000D03*
X177418000Y-92329000D03*
X179418000Y-92329000D03*
X181418000Y-92329000D03*
X183418000Y-92329000D03*
D12*
X186184000Y-95335000D03*
X186184000Y-97335000D03*
X186184000Y-99335000D03*
X186184000Y-101335000D03*
X186184000Y-103335000D03*
X186184000Y-105335000D03*
D11*
X183418000Y-108361000D03*
X181418000Y-108361000D03*
X179418000Y-108361000D03*
X177418000Y-108361000D03*
X175418000Y-108361000D03*
X173418000Y-108361000D03*
X171418000Y-108361000D03*
X169418000Y-108361000D03*
D13*
X194056000Y-89582000D03*
X194056000Y-92282000D03*
D14*
X152574000Y-109601000D03*
X155274000Y-109601000D03*
D15*
X133711000Y-93345000D03*
X131211000Y-93345000D03*
D16*
X203962000Y-102017000D03*
X203962000Y-93817000D03*
D13*
X187071000Y-89582000D03*
X187071000Y-92282000D03*
X189357000Y-89582000D03*
X189357000Y-92282000D03*
X191643000Y-89582000D03*
X191643000Y-92282000D03*
D14*
X155274000Y-107315000D03*
X152574000Y-107315000D03*
D17*
X133180000Y-95951000D03*
X133180000Y-96901000D03*
X133180000Y-97851000D03*
X130980000Y-97851000D03*
X130980000Y-95951000D03*
M02*
