G04 #@! TF.FileFunction,Copper,L2,Bot,Signal*
%FSLAX46Y46*%
G04 Gerber Fmt 4.6, Leading zero omitted, Abs format (unit mm)*
G04 Created by KiCad (PCBNEW 4.0.4-stable) date 02/12/17 18:05:11*
%MOMM*%
%LPD*%
G01*
G04 APERTURE LIST*
%ADD10C,0.100000*%
%ADD11C,4.000000*%
%ADD12R,2.000000X1.300000*%
%ADD13R,1.100000X3.500000*%
%ADD14O,3.400000X1.100000*%
%ADD15C,2.000000*%
%ADD16C,3.810000*%
%ADD17R,3.000000X3.000000*%
%ADD18C,3.000000*%
%ADD19R,1.300000X1.500000*%
%ADD20R,1.500000X1.300000*%
%ADD21R,1.500000X1.250000*%
%ADD22R,3.200000X3.600000*%
%ADD23R,2.000000X1.100000*%
%ADD24O,2.500000X1.500000*%
%ADD25R,2.500000X1.800000*%
%ADD26R,2.500000X1.500000*%
%ADD27R,2.540000X2.540000*%
%ADD28C,2.540000*%
%ADD29R,2.032000X1.727200*%
%ADD30O,2.032000X1.727200*%
%ADD31C,1.998980*%
%ADD32R,1.060000X0.650000*%
%ADD33R,1.300000X1.300000*%
%ADD34C,1.300000*%
%ADD35R,1.727200X2.032000*%
%ADD36O,1.727200X2.032000*%
%ADD37R,2.032000X2.032000*%
%ADD38O,2.032000X2.032000*%
%ADD39C,1.000000*%
%ADD40C,0.600000*%
%ADD41C,0.500000*%
%ADD42C,0.250000*%
%ADD43C,0.254000*%
G04 APERTURE END LIST*
D10*
D11*
X203111100Y-117640100D03*
D12*
X195541900Y-111048800D03*
X195541900Y-113055400D03*
X195491100Y-115062000D03*
X210070700Y-116027200D03*
X210070700Y-114046000D03*
X210070700Y-112039400D03*
X210070700Y-110032800D03*
D11*
X203073000Y-108496100D03*
D13*
X169418000Y-92329000D03*
X171418000Y-92329000D03*
X173418000Y-92329000D03*
X175418000Y-92329000D03*
X177418000Y-92329000D03*
X179418000Y-92329000D03*
X181418000Y-92329000D03*
X183418000Y-92329000D03*
D14*
X186184000Y-95335000D03*
X186184000Y-97335000D03*
X186184000Y-99335000D03*
X186184000Y-101335000D03*
X186184000Y-103335000D03*
X186184000Y-105335000D03*
D13*
X183418000Y-108361000D03*
X181418000Y-108361000D03*
X179418000Y-108361000D03*
X177418000Y-108361000D03*
X175418000Y-108361000D03*
X173418000Y-108361000D03*
X171418000Y-108361000D03*
X169418000Y-108361000D03*
D15*
X139712700Y-88468200D03*
X145427700Y-88506300D03*
D16*
X155354000Y-77151000D03*
D17*
X143154000Y-65151000D03*
D16*
X155194000Y-65151000D03*
D18*
X143154000Y-77151000D03*
D16*
X141154000Y-71151000D03*
D19*
X194056000Y-89582000D03*
X194056000Y-92282000D03*
D20*
X152574000Y-109601000D03*
X155274000Y-109601000D03*
D21*
X133711000Y-93345000D03*
X131211000Y-93345000D03*
D22*
X203962000Y-102017000D03*
X203962000Y-93817000D03*
D23*
X130568700Y-109804200D03*
X130568700Y-107823000D03*
X130568700Y-105816400D03*
X130568700Y-103809800D03*
D24*
X133525260Y-80078580D03*
X133525260Y-82618580D03*
X133525260Y-85158580D03*
X133525260Y-87698580D03*
D25*
X133525260Y-90238580D03*
D26*
X197129400Y-95313500D03*
D24*
X197129400Y-92773500D03*
X197129400Y-90233500D03*
X197129400Y-87693500D03*
X197129400Y-85153500D03*
X197129400Y-82613500D03*
X197129400Y-80073500D03*
X197129400Y-77533500D03*
X197129400Y-74993500D03*
D11*
X134418000Y-102235000D03*
X196226500Y-102108000D03*
X134926000Y-68156000D03*
X196226500Y-68156000D03*
D27*
X127762000Y-74168000D03*
D28*
X127762000Y-69088000D03*
X127762000Y-64008000D03*
D27*
X125984000Y-102489000D03*
D28*
X125984000Y-97409000D03*
D27*
X205105000Y-63754000D03*
D28*
X205105000Y-68834000D03*
D29*
X128778000Y-90170000D03*
D30*
X128778000Y-87630000D03*
X128778000Y-85090000D03*
X128778000Y-82550000D03*
X128778000Y-80010000D03*
D19*
X187071000Y-89582000D03*
X187071000Y-92282000D03*
X189357000Y-89582000D03*
X189357000Y-92282000D03*
X191643000Y-89582000D03*
X191643000Y-92282000D03*
D20*
X155274000Y-107315000D03*
X152574000Y-107315000D03*
D31*
X139446000Y-101305360D03*
X139446000Y-96304100D03*
X145034000Y-101178360D03*
X145034000Y-96177100D03*
D32*
X133180000Y-95951000D03*
X133180000Y-96901000D03*
X133180000Y-97851000D03*
X130980000Y-97851000D03*
X130980000Y-95951000D03*
D18*
X182247000Y-84984000D03*
X172247000Y-84984000D03*
X187247000Y-64984000D03*
X167247000Y-64984000D03*
D33*
X151003000Y-91567000D03*
D34*
X156003000Y-91567000D03*
D33*
X150876000Y-99568000D03*
D34*
X150876000Y-102068000D03*
D33*
X146050000Y-108712000D03*
D34*
X146050000Y-106212000D03*
D33*
X138430000Y-108966000D03*
D34*
X138430000Y-106466000D03*
D35*
X172085000Y-114427000D03*
D36*
X169545000Y-114427000D03*
X167005000Y-114427000D03*
X164465000Y-114427000D03*
X161925000Y-114427000D03*
X159385000Y-114427000D03*
D37*
X152654000Y-113030000D03*
D38*
X155194000Y-113030000D03*
D37*
X152654000Y-116713000D03*
D38*
X155194000Y-116713000D03*
D29*
X190627000Y-109347000D03*
D30*
X190627000Y-106807000D03*
X190627000Y-104267000D03*
X190627000Y-101727000D03*
X190627000Y-99187000D03*
X190627000Y-96647000D03*
D39*
X192913000Y-94234000D03*
D40*
X181864000Y-111379000D03*
D39*
X134747000Y-96774000D03*
D40*
X182753000Y-102616000D03*
X187642500Y-110553500D03*
X180594000Y-103378000D03*
X183007000Y-117729000D03*
X201168000Y-90297000D03*
X181356000Y-104394000D03*
X183134000Y-96520000D03*
D39*
X123571000Y-116205000D03*
X129540000Y-96139000D03*
D40*
X181483000Y-96520000D03*
X181610000Y-89916000D03*
X176784000Y-100203000D03*
X177673000Y-89662000D03*
X176276000Y-89154000D03*
X174752000Y-118110000D03*
D39*
X115824000Y-99060000D03*
X115824000Y-105029000D03*
D40*
X178181000Y-115951000D03*
X157734000Y-105664000D03*
X157607000Y-110236000D03*
D41*
X203962000Y-93817000D02*
X202021000Y-93817000D01*
X200977500Y-92773500D02*
X197129400Y-92773500D01*
X202021000Y-93817000D02*
X200977500Y-92773500D01*
X197129400Y-92773500D02*
X196151500Y-92773500D01*
X196151500Y-92773500D02*
X194691000Y-94234000D01*
X194691000Y-94234000D02*
X192913000Y-94234000D01*
D42*
X197129400Y-92773500D02*
X194547500Y-92773500D01*
X194547500Y-92773500D02*
X194056000Y-92282000D01*
X195580000Y-116840000D02*
X196469000Y-116840000D01*
X198374000Y-114935000D02*
X199136000Y-114935000D01*
X196469000Y-116840000D02*
X198374000Y-114935000D01*
X194437000Y-113055400D02*
X195541900Y-113055400D01*
X194437000Y-113055400D02*
X193827400Y-113055400D01*
X193827400Y-113055400D02*
X193802000Y-113030000D01*
X125984000Y-102489000D02*
X130302000Y-102489000D01*
X130568700Y-102755700D02*
X130568700Y-103809800D01*
X130302000Y-102489000D02*
X130568700Y-102755700D01*
X125984000Y-102489000D02*
X127127000Y-102489000D01*
X183418000Y-110079000D02*
X181864000Y-111379000D01*
X183418000Y-108361000D02*
X183418000Y-110079000D01*
D41*
X155194000Y-113030000D02*
X155194000Y-109681000D01*
X155194000Y-109681000D02*
X155274000Y-109601000D01*
X134747000Y-96774000D02*
X134175500Y-96774000D01*
X134048500Y-96901000D02*
X133180000Y-96901000D01*
X134175500Y-96774000D02*
X134048500Y-96901000D01*
D42*
X194525900Y-113055400D02*
X184556400Y-113055400D01*
X183418000Y-111917000D02*
X183418000Y-108361000D01*
X184556400Y-113055400D02*
X183418000Y-111917000D01*
X210070700Y-116027200D02*
X207340200Y-116027200D01*
X207340200Y-116027200D02*
X206248000Y-114935000D01*
X206248000Y-114935000D02*
X199136000Y-114935000D01*
X192252600Y-113055400D02*
X194525900Y-113055400D01*
X192024000Y-113284000D02*
X192252600Y-113055400D01*
X192024000Y-115697000D02*
X192024000Y-113284000D01*
X193167000Y-116840000D02*
X192024000Y-115697000D01*
X195580000Y-116840000D02*
X193167000Y-116840000D01*
X183418000Y-103281000D02*
X183418000Y-108361000D01*
X182753000Y-102616000D02*
X183418000Y-103281000D01*
X184023000Y-105918000D02*
X184150000Y-105918000D01*
X184023000Y-102743000D02*
X184023000Y-105918000D01*
X182880000Y-101600000D02*
X184023000Y-102743000D01*
X177673000Y-101600000D02*
X182880000Y-101600000D01*
X175418000Y-103855000D02*
X177673000Y-101600000D01*
X175418000Y-108361000D02*
X175418000Y-103855000D01*
X187642500Y-109410500D02*
X187642500Y-110553500D01*
X184150000Y-105918000D02*
X187642500Y-109410500D01*
X187642500Y-110553500D02*
X187579000Y-110617000D01*
X181991000Y-117094000D02*
X182372000Y-117094000D01*
X182372000Y-117094000D02*
X183007000Y-117729000D01*
X179418000Y-104521000D02*
X179451000Y-104521000D01*
X179451000Y-104521000D02*
X180594000Y-103378000D01*
X179418000Y-108361000D02*
X179418000Y-104521000D01*
X179418000Y-116426000D02*
X179418000Y-108361000D01*
X180086000Y-117094000D02*
X179418000Y-116426000D01*
X181991000Y-117094000D02*
X180086000Y-117094000D01*
X200406000Y-90233500D02*
X201104500Y-90233500D01*
X201104500Y-90233500D02*
X201168000Y-90297000D01*
X197129400Y-90233500D02*
X194707500Y-90233500D01*
X194707500Y-90233500D02*
X194056000Y-89582000D01*
X194056000Y-89582000D02*
X191643000Y-89582000D01*
X181418000Y-108361000D02*
X181418000Y-104456000D01*
X181418000Y-104456000D02*
X181356000Y-104394000D01*
X197129400Y-90233500D02*
X200406000Y-90233500D01*
X200406000Y-90233500D02*
X200596500Y-90233500D01*
X130568700Y-107823000D02*
X132207000Y-107823000D01*
X132207000Y-107823000D02*
X135509000Y-111125000D01*
X151050000Y-111125000D02*
X152574000Y-109601000D01*
X135509000Y-111125000D02*
X151050000Y-111125000D01*
X130568700Y-107823000D02*
X130365500Y-107823000D01*
X155274000Y-107315000D02*
X154860000Y-107315000D01*
X154860000Y-107315000D02*
X152574000Y-109601000D01*
X179418000Y-92329000D02*
X179418000Y-98966000D01*
X156337000Y-107315000D02*
X155274000Y-107315000D01*
X157353000Y-108331000D02*
X156337000Y-107315000D01*
X157353000Y-108712000D02*
X157353000Y-108331000D01*
X158369000Y-109728000D02*
X157353000Y-108712000D01*
X167640000Y-109728000D02*
X158369000Y-109728000D01*
X167640000Y-103759000D02*
X167640000Y-109728000D01*
X170434000Y-100965000D02*
X167640000Y-103759000D01*
X177419000Y-100965000D02*
X170434000Y-100965000D01*
X179418000Y-98966000D02*
X177419000Y-100965000D01*
X191643000Y-92282000D02*
X189357000Y-92282000D01*
X197129400Y-95313500D02*
X192468500Y-95313500D01*
X191643000Y-94488000D02*
X191643000Y-92282000D01*
X192468500Y-95313500D02*
X191643000Y-94488000D01*
X146050000Y-108712000D02*
X148907500Y-108712000D01*
X150304500Y-107315000D02*
X152574000Y-107315000D01*
X148907500Y-108712000D02*
X150304500Y-107315000D01*
D41*
X138430000Y-108966000D02*
X145796000Y-108966000D01*
X145796000Y-108966000D02*
X146050000Y-108712000D01*
X145427700Y-88506300D02*
X145427700Y-91579700D01*
X145427700Y-91579700D02*
X147066000Y-93218000D01*
X147066000Y-93218000D02*
X147066000Y-96583500D01*
X147066000Y-96583500D02*
X144272000Y-99377500D01*
X144272000Y-99377500D02*
X143510000Y-99377500D01*
X143510000Y-99377500D02*
X141859000Y-101028500D01*
X141859000Y-101028500D02*
X141859000Y-107061000D01*
X141859000Y-107061000D02*
X139954000Y-108966000D01*
X139954000Y-108966000D02*
X138430000Y-108966000D01*
D42*
X183418000Y-96236000D02*
X183418000Y-92329000D01*
X183134000Y-96520000D02*
X183418000Y-96236000D01*
X183418000Y-92329000D02*
X187024000Y-92329000D01*
X187024000Y-92329000D02*
X187071000Y-92282000D01*
X187071000Y-92282000D02*
X189357000Y-92282000D01*
D41*
X172247000Y-84984000D02*
X172247000Y-84547000D01*
X172247000Y-84547000D02*
X175387000Y-81407000D01*
X194183000Y-78994000D02*
X194183000Y-72898000D01*
X191770000Y-81407000D02*
X194183000Y-78994000D01*
X175387000Y-81407000D02*
X191770000Y-81407000D01*
X203962000Y-102017000D02*
X205577000Y-102017000D01*
X198755000Y-72898000D02*
X194183000Y-72898000D01*
X201295000Y-75438000D02*
X198755000Y-72898000D01*
X201295000Y-88646000D02*
X201295000Y-75438000D01*
X202184000Y-89535000D02*
X201295000Y-88646000D01*
X204724000Y-89535000D02*
X202184000Y-89535000D01*
X207264000Y-92075000D02*
X204724000Y-89535000D01*
X207264000Y-100330000D02*
X207264000Y-92075000D01*
X205577000Y-102017000D02*
X207264000Y-100330000D01*
X139604750Y-99345750D02*
X131730750Y-99345750D01*
X130980000Y-98595000D02*
X130980000Y-97851000D01*
X131730750Y-99345750D02*
X130980000Y-98595000D01*
X130980000Y-97851000D02*
X126426000Y-97851000D01*
X126426000Y-97851000D02*
X125984000Y-97409000D01*
X142811500Y-94742000D02*
X142811500Y-86804500D01*
X151003000Y-87122000D02*
X151003000Y-91567000D01*
X149225000Y-85344000D02*
X151003000Y-87122000D01*
X144272000Y-85344000D02*
X149225000Y-85344000D01*
X142811500Y-86804500D02*
X144272000Y-85344000D01*
X142811500Y-96139000D02*
X142811500Y-94742000D01*
X139573000Y-99377500D02*
X139604750Y-99345750D01*
X139604750Y-99345750D02*
X142811500Y-96139000D01*
D42*
X123571000Y-116205000D02*
X120967500Y-113601500D01*
X120967500Y-113601500D02*
X120967500Y-100520500D01*
X120967500Y-100520500D02*
X125984000Y-97409000D01*
D41*
X130980000Y-97851000D02*
X131384000Y-97851000D01*
X131384000Y-97851000D02*
X132080000Y-97155000D01*
X132522000Y-95951000D02*
X133180000Y-95951000D01*
X132080000Y-96393000D02*
X132522000Y-95951000D01*
X132080000Y-97155000D02*
X132080000Y-96393000D01*
X130919000Y-97790000D02*
X130980000Y-97851000D01*
D42*
X126045000Y-97470000D02*
X125984000Y-97409000D01*
D41*
X130980000Y-95951000D02*
X129728000Y-95951000D01*
X129728000Y-95951000D02*
X129540000Y-96139000D01*
D42*
X130980000Y-95951000D02*
X130980000Y-93576000D01*
X130980000Y-93576000D02*
X131211000Y-93345000D01*
X128778000Y-82550000D02*
X133456680Y-82550000D01*
X133456680Y-82550000D02*
X133525260Y-82618580D01*
X133525260Y-85158580D02*
X128846580Y-85158580D01*
X128846580Y-85158580D02*
X128778000Y-85090000D01*
X128778000Y-87630000D02*
X133456680Y-87630000D01*
X133456680Y-87630000D02*
X133525260Y-87698580D01*
X133525260Y-90238580D02*
X128846580Y-90238580D01*
X128846580Y-90238580D02*
X128778000Y-90170000D01*
X181418000Y-96455000D02*
X181418000Y-92329000D01*
X181483000Y-96520000D02*
X181418000Y-96455000D01*
X181418000Y-92329000D02*
X181418000Y-90108000D01*
X181418000Y-90108000D02*
X181610000Y-89916000D01*
X176784000Y-100203000D02*
X176784000Y-94869000D01*
X177418000Y-94235000D02*
X177418000Y-92329000D01*
X176784000Y-94869000D02*
X177418000Y-94235000D01*
X177418000Y-92329000D02*
X177418000Y-89917000D01*
X177418000Y-89917000D02*
X177673000Y-89662000D01*
X175418000Y-92329000D02*
X175418000Y-90012000D01*
X175418000Y-90012000D02*
X176276000Y-89154000D01*
D41*
X127762000Y-74168000D02*
X152371000Y-74168000D01*
X152371000Y-74168000D02*
X155354000Y-77151000D01*
X155354000Y-77151000D02*
X155354000Y-76741000D01*
X127762000Y-69088000D02*
X127762000Y-69215000D01*
X127762000Y-69215000D02*
X129698000Y-71151000D01*
X129698000Y-71151000D02*
X141154000Y-71151000D01*
X127762000Y-69088000D02*
X128397000Y-69088000D01*
X127317500Y-69215000D02*
X127762000Y-69088000D01*
X155194000Y-65151000D02*
X155194000Y-65024000D01*
X155194000Y-65024000D02*
X152146000Y-61976000D01*
X127762000Y-64008000D02*
X135382000Y-64008000D01*
X137414000Y-61976000D02*
X152146000Y-61976000D01*
X135382000Y-64008000D02*
X137414000Y-61976000D01*
X155194000Y-65151000D02*
X155194000Y-64770000D01*
X155194000Y-64770000D02*
X152654000Y-62230000D01*
X187247000Y-64984000D02*
X187247000Y-63197000D01*
X203327000Y-61976000D02*
X205105000Y-63754000D01*
X188468000Y-61976000D02*
X203327000Y-61976000D01*
X187247000Y-63197000D02*
X188468000Y-61976000D01*
X187247000Y-64984000D02*
X187746000Y-64984000D01*
D42*
X173418000Y-108361000D02*
X173418000Y-111442000D01*
X174752000Y-112776000D02*
X174752000Y-118110000D01*
X173418000Y-111442000D02*
X174752000Y-112776000D01*
X115824000Y-105029000D02*
X115824000Y-99060000D01*
X177927000Y-116205000D02*
X177418000Y-116205000D01*
X178181000Y-115951000D02*
X177927000Y-116205000D01*
X152908000Y-118999000D02*
X150241000Y-118999000D01*
X150241000Y-118999000D02*
X149733000Y-118491000D01*
X149733000Y-118491000D02*
X149733000Y-113792000D01*
X149733000Y-113792000D02*
X150495000Y-113030000D01*
X150495000Y-113030000D02*
X152654000Y-113030000D01*
X177418000Y-116205000D02*
X177418000Y-118617000D01*
X177036000Y-118999000D02*
X152908000Y-118999000D01*
X177418000Y-118617000D02*
X177036000Y-118999000D01*
X177418000Y-108361000D02*
X177418000Y-116205000D01*
X173418000Y-92329000D02*
X173418000Y-89980000D01*
X186251002Y-88207002D02*
X187071000Y-89154000D01*
X175190998Y-88207002D02*
X186251002Y-88207002D01*
X173418000Y-89980000D02*
X175190998Y-88207002D01*
X187071000Y-89154000D02*
X187071000Y-89582000D01*
X169418000Y-87757000D02*
X161417000Y-87757000D01*
X161417000Y-87757000D02*
X161036000Y-88138000D01*
X170815000Y-87757000D02*
X169418000Y-87757000D01*
X152654000Y-116713000D02*
X152654000Y-115570000D01*
X159258000Y-89916000D02*
X161036000Y-88138000D01*
X159258000Y-104140000D02*
X159258000Y-89916000D01*
X157734000Y-105664000D02*
X159258000Y-104140000D01*
X157607000Y-114046000D02*
X157607000Y-110236000D01*
X156718000Y-114935000D02*
X157607000Y-114046000D01*
X153289000Y-114935000D02*
X156718000Y-114935000D01*
X152654000Y-115570000D02*
X153289000Y-114935000D01*
X169418000Y-92329000D02*
X169418000Y-88773000D01*
X189992000Y-88265000D02*
X189357000Y-89582000D01*
X189484000Y-87757000D02*
X189992000Y-88265000D01*
X170434000Y-87757000D02*
X170815000Y-87757000D01*
X170815000Y-87757000D02*
X189484000Y-87757000D01*
X169418000Y-88773000D02*
X170434000Y-87757000D01*
X169418000Y-108361000D02*
X169418000Y-110236000D01*
X161925000Y-111506000D02*
X161925000Y-114427000D01*
X162433000Y-110998000D02*
X161925000Y-111506000D01*
X168656000Y-110998000D02*
X162433000Y-110998000D01*
X169418000Y-110236000D02*
X168656000Y-110998000D01*
D41*
X133180000Y-97851000D02*
X133728500Y-97851000D01*
X137515600Y-98234500D02*
X139446000Y-96304100D01*
X134112000Y-98234500D02*
X137515600Y-98234500D01*
X133728500Y-97851000D02*
X134112000Y-98234500D01*
X139446000Y-96304100D02*
X136486900Y-96304100D01*
X136486900Y-96304100D02*
X135699500Y-95516700D01*
X135064500Y-93345000D02*
X133711000Y-93345000D01*
X135699500Y-93980000D02*
X135064500Y-93345000D01*
X135699500Y-95516700D02*
X135699500Y-93980000D01*
X139712700Y-88468200D02*
X139712700Y-96037400D01*
X139712700Y-96037400D02*
X139446000Y-96304100D01*
D42*
X139446000Y-96304100D02*
X139446000Y-88734900D01*
X139446000Y-88734900D02*
X139712700Y-88468200D01*
X133711000Y-93345000D02*
X133711000Y-93833000D01*
D41*
X199644000Y-66421000D02*
X202565000Y-69342000D01*
X202565000Y-69342000D02*
X204597000Y-69342000D01*
X204597000Y-69342000D02*
X205105000Y-68834000D01*
X200152000Y-66675000D02*
X199898000Y-66675000D01*
X199898000Y-66675000D02*
X199644000Y-66421000D01*
X199644000Y-66421000D02*
X197485000Y-64262000D01*
X167247000Y-69838000D02*
X167247000Y-64984000D01*
X168021000Y-70612000D02*
X167247000Y-69838000D01*
X187071000Y-70612000D02*
X168021000Y-70612000D01*
X193421000Y-64262000D02*
X187071000Y-70612000D01*
X197485000Y-64262000D02*
X193421000Y-64262000D01*
X167247000Y-64984000D02*
X167247000Y-64528000D01*
D42*
X133525260Y-80078580D02*
X128846580Y-80078580D01*
X128846580Y-80078580D02*
X128778000Y-80010000D01*
X164465000Y-114427000D02*
X164465000Y-112522000D01*
X171418000Y-111411000D02*
X171418000Y-108361000D01*
X171069000Y-111760000D02*
X171418000Y-111411000D01*
X165227000Y-111760000D02*
X171069000Y-111760000D01*
X164465000Y-112522000D02*
X165227000Y-111760000D01*
X192786000Y-110363000D02*
X192786000Y-105410000D01*
X195541900Y-111048800D02*
X193471800Y-111048800D01*
X192786000Y-110363000D02*
X193471800Y-111048800D01*
X192786000Y-105410000D02*
X191643000Y-104267000D01*
X191643000Y-104267000D02*
X190627000Y-104267000D01*
X190627000Y-104267000D02*
X188087000Y-101727000D01*
X188087000Y-101727000D02*
X186576000Y-101727000D01*
X186576000Y-101727000D02*
X186184000Y-101335000D01*
X194056000Y-111048800D02*
X195541900Y-111048800D01*
X194056000Y-111048800D02*
X194525900Y-111048800D01*
X190627000Y-96647000D02*
X189230000Y-96647000D01*
X187918000Y-95335000D02*
X186184000Y-95335000D01*
X189230000Y-96647000D02*
X187918000Y-95335000D01*
X190627000Y-99187000D02*
X190119000Y-99187000D01*
X190119000Y-99187000D02*
X188267000Y-97335000D01*
X188267000Y-97335000D02*
X186184000Y-97335000D01*
X190627000Y-101727000D02*
X190119000Y-101727000D01*
X190119000Y-101727000D02*
X187727000Y-99335000D01*
X187727000Y-99335000D02*
X186184000Y-99335000D01*
X186184000Y-103335000D02*
X187155000Y-103335000D01*
X187155000Y-103335000D02*
X190627000Y-106807000D01*
X190627000Y-109347000D02*
X189103000Y-109347000D01*
X186184000Y-106428000D02*
X186184000Y-105335000D01*
X189103000Y-109347000D02*
X186184000Y-106428000D01*
D43*
G36*
X161925000Y-70866000D02*
X161935006Y-70915410D01*
X161963447Y-70957035D01*
X162005841Y-70984315D01*
X162052000Y-70993000D01*
X167150421Y-70993000D01*
X167395208Y-71237787D01*
X167395210Y-71237790D01*
X167682325Y-71429633D01*
X168021000Y-71497000D01*
X187070995Y-71497000D01*
X187071000Y-71497001D01*
X187353484Y-71440810D01*
X187409675Y-71429633D01*
X187696790Y-71237790D01*
X187941580Y-70993000D01*
X192098394Y-70993000D01*
X193485270Y-72379876D01*
X193365367Y-72559325D01*
X193298000Y-72898000D01*
X193298000Y-78627421D01*
X191403420Y-80522000D01*
X175387005Y-80522000D01*
X175387000Y-80521999D01*
X175048326Y-80589366D01*
X175048324Y-80589367D01*
X175048325Y-80589367D01*
X174761210Y-80781210D01*
X174761208Y-80781213D01*
X172687325Y-82855096D01*
X172673541Y-82849372D01*
X171824185Y-82848630D01*
X171039200Y-83172980D01*
X170438091Y-83773041D01*
X170112372Y-84557459D01*
X170111630Y-85406815D01*
X170435980Y-86191800D01*
X171036041Y-86792909D01*
X171527546Y-86997000D01*
X161417000Y-86997000D01*
X161126160Y-87054852D01*
X160879599Y-87219599D01*
X158720599Y-89378599D01*
X158555852Y-89625161D01*
X158498000Y-89916000D01*
X158498000Y-103825198D01*
X157594320Y-104728878D01*
X157548833Y-104728838D01*
X157205057Y-104870883D01*
X156941808Y-105133673D01*
X156799162Y-105477201D01*
X156798838Y-105849167D01*
X156940883Y-106192943D01*
X157203673Y-106456192D01*
X157547201Y-106598838D01*
X157919167Y-106599162D01*
X158262943Y-106457117D01*
X158526192Y-106194327D01*
X158668838Y-105850799D01*
X158668879Y-105803923D01*
X159385000Y-105087802D01*
X159385000Y-108968000D01*
X158683802Y-108968000D01*
X158113000Y-108397198D01*
X158113000Y-108331000D01*
X158055148Y-108040161D01*
X157890401Y-107793599D01*
X156874401Y-106777599D01*
X156666487Y-106638675D01*
X156627162Y-106429683D01*
X156488090Y-106213559D01*
X156275890Y-106068569D01*
X156024000Y-106017560D01*
X154524000Y-106017560D01*
X154288683Y-106061838D01*
X154072559Y-106200910D01*
X153927569Y-106413110D01*
X153924919Y-106426197D01*
X153788090Y-106213559D01*
X153575890Y-106068569D01*
X153324000Y-106017560D01*
X151824000Y-106017560D01*
X151588683Y-106061838D01*
X151372559Y-106200910D01*
X151227569Y-106413110D01*
X151198836Y-106555000D01*
X150304500Y-106555000D01*
X150013660Y-106612852D01*
X149767099Y-106777599D01*
X148592698Y-107952000D01*
X147326742Y-107952000D01*
X147303162Y-107826683D01*
X147164090Y-107610559D01*
X146951890Y-107465569D01*
X146700000Y-107414560D01*
X146537615Y-107414560D01*
X146713729Y-107341611D01*
X146769410Y-107111016D01*
X146050000Y-106391605D01*
X145330590Y-107111016D01*
X145386271Y-107341611D01*
X145595902Y-107414560D01*
X145400000Y-107414560D01*
X145164683Y-107458838D01*
X144948559Y-107597910D01*
X144803569Y-107810110D01*
X144752560Y-108062000D01*
X144752560Y-108081000D01*
X142090579Y-108081000D01*
X142484787Y-107686792D01*
X142484790Y-107686790D01*
X142676633Y-107399675D01*
X142699324Y-107285599D01*
X142744001Y-107061000D01*
X142744000Y-107060995D01*
X142744000Y-106031078D01*
X144752378Y-106031078D01*
X144781917Y-106541428D01*
X144920389Y-106875729D01*
X145150984Y-106931410D01*
X145870395Y-106212000D01*
X146229605Y-106212000D01*
X146949016Y-106931410D01*
X147179611Y-106875729D01*
X147347622Y-106392922D01*
X147318083Y-105882572D01*
X147179611Y-105548271D01*
X146949016Y-105492590D01*
X146229605Y-106212000D01*
X145870395Y-106212000D01*
X145150984Y-105492590D01*
X144920389Y-105548271D01*
X144752378Y-106031078D01*
X142744000Y-106031078D01*
X142744000Y-105312984D01*
X145330590Y-105312984D01*
X146050000Y-106032395D01*
X146769410Y-105312984D01*
X146713729Y-105082389D01*
X146230922Y-104914378D01*
X145720572Y-104943917D01*
X145386271Y-105082389D01*
X145330590Y-105312984D01*
X142744000Y-105312984D01*
X142744000Y-102967016D01*
X150156590Y-102967016D01*
X150212271Y-103197611D01*
X150695078Y-103365622D01*
X151205428Y-103336083D01*
X151539729Y-103197611D01*
X151595410Y-102967016D01*
X150876000Y-102247605D01*
X150156590Y-102967016D01*
X142744000Y-102967016D01*
X142744000Y-102330523D01*
X144061443Y-102330523D01*
X144160042Y-102597325D01*
X144769582Y-102823761D01*
X145419377Y-102799701D01*
X145907958Y-102597325D01*
X146006557Y-102330523D01*
X145034000Y-101357965D01*
X144061443Y-102330523D01*
X142744000Y-102330523D01*
X142744000Y-101395080D01*
X143485214Y-100653865D01*
X143388599Y-100913942D01*
X143412659Y-101563737D01*
X143615035Y-102052318D01*
X143881837Y-102150917D01*
X144854395Y-101178360D01*
X145213605Y-101178360D01*
X146186163Y-102150917D01*
X146452965Y-102052318D01*
X146514349Y-101887078D01*
X149578378Y-101887078D01*
X149607917Y-102397428D01*
X149746389Y-102731729D01*
X149976984Y-102787410D01*
X150696395Y-102068000D01*
X151055605Y-102068000D01*
X151775016Y-102787410D01*
X152005611Y-102731729D01*
X152173622Y-102248922D01*
X152144083Y-101738572D01*
X152005611Y-101404271D01*
X151775016Y-101348590D01*
X151055605Y-102068000D01*
X150696395Y-102068000D01*
X149976984Y-101348590D01*
X149746389Y-101404271D01*
X149578378Y-101887078D01*
X146514349Y-101887078D01*
X146679401Y-101442778D01*
X146655341Y-100792983D01*
X146452965Y-100304402D01*
X146186163Y-100205803D01*
X145213605Y-101178360D01*
X144854395Y-101178360D01*
X144840252Y-101164218D01*
X145019858Y-100984612D01*
X145034000Y-100998755D01*
X146006557Y-100026197D01*
X145907958Y-99759395D01*
X145349241Y-99551839D01*
X145983079Y-98918000D01*
X149578560Y-98918000D01*
X149578560Y-100218000D01*
X149622838Y-100453317D01*
X149761910Y-100669441D01*
X149974110Y-100814431D01*
X150226000Y-100865440D01*
X150388385Y-100865440D01*
X150212271Y-100938389D01*
X150156590Y-101168984D01*
X150876000Y-101888395D01*
X151595410Y-101168984D01*
X151539729Y-100938389D01*
X151330098Y-100865440D01*
X151526000Y-100865440D01*
X151761317Y-100821162D01*
X151977441Y-100682090D01*
X152122431Y-100469890D01*
X152173440Y-100218000D01*
X152173440Y-98918000D01*
X152129162Y-98682683D01*
X151990090Y-98466559D01*
X151777890Y-98321569D01*
X151526000Y-98270560D01*
X150226000Y-98270560D01*
X149990683Y-98314838D01*
X149774559Y-98453910D01*
X149629569Y-98666110D01*
X149578560Y-98918000D01*
X145983079Y-98918000D01*
X147691787Y-97209292D01*
X147691790Y-97209290D01*
X147883633Y-96922175D01*
X147908413Y-96797599D01*
X147951001Y-96583500D01*
X147951000Y-96583495D01*
X147951000Y-93218005D01*
X147951001Y-93218000D01*
X147883633Y-92879325D01*
X147879976Y-92873852D01*
X147691790Y-92592210D01*
X147691787Y-92592208D01*
X146312700Y-91213120D01*
X146312700Y-89909698D01*
X146352643Y-89893194D01*
X146812978Y-89433663D01*
X147062416Y-88832948D01*
X147062984Y-88182505D01*
X146814594Y-87581357D01*
X146355063Y-87121022D01*
X145754348Y-86871584D01*
X145103905Y-86871016D01*
X144502757Y-87119406D01*
X144042422Y-87578937D01*
X143792984Y-88179652D01*
X143792416Y-88830095D01*
X144040806Y-89431243D01*
X144500337Y-89891578D01*
X144542700Y-89909169D01*
X144542700Y-91579695D01*
X144542699Y-91579700D01*
X144598890Y-91862184D01*
X144610067Y-91918375D01*
X144768174Y-92155000D01*
X144801910Y-92205490D01*
X146181000Y-93584579D01*
X146181000Y-95012565D01*
X145961073Y-94792254D01*
X145360547Y-94542894D01*
X144710306Y-94542326D01*
X144109345Y-94790638D01*
X143696500Y-95202764D01*
X143696500Y-87171080D01*
X144638579Y-86229000D01*
X148858420Y-86229000D01*
X150118000Y-87488579D01*
X150118000Y-90313778D01*
X150117683Y-90313838D01*
X149901559Y-90452910D01*
X149756569Y-90665110D01*
X149705560Y-90917000D01*
X149705560Y-92217000D01*
X149749838Y-92452317D01*
X149888910Y-92668441D01*
X150101110Y-92813431D01*
X150353000Y-92864440D01*
X151653000Y-92864440D01*
X151888317Y-92820162D01*
X152104441Y-92681090D01*
X152249431Y-92468890D01*
X152250012Y-92466016D01*
X155283590Y-92466016D01*
X155339271Y-92696611D01*
X155822078Y-92864622D01*
X156332428Y-92835083D01*
X156666729Y-92696611D01*
X156722410Y-92466016D01*
X156003000Y-91746605D01*
X155283590Y-92466016D01*
X152250012Y-92466016D01*
X152300440Y-92217000D01*
X152300440Y-91386078D01*
X154705378Y-91386078D01*
X154734917Y-91896428D01*
X154873389Y-92230729D01*
X155103984Y-92286410D01*
X155823395Y-91567000D01*
X156182605Y-91567000D01*
X156902016Y-92286410D01*
X157132611Y-92230729D01*
X157300622Y-91747922D01*
X157271083Y-91237572D01*
X157132611Y-90903271D01*
X156902016Y-90847590D01*
X156182605Y-91567000D01*
X155823395Y-91567000D01*
X155103984Y-90847590D01*
X154873389Y-90903271D01*
X154705378Y-91386078D01*
X152300440Y-91386078D01*
X152300440Y-90917000D01*
X152256162Y-90681683D01*
X152247347Y-90667984D01*
X155283590Y-90667984D01*
X156003000Y-91387395D01*
X156722410Y-90667984D01*
X156666729Y-90437389D01*
X156183922Y-90269378D01*
X155673572Y-90298917D01*
X155339271Y-90437389D01*
X155283590Y-90667984D01*
X152247347Y-90667984D01*
X152117090Y-90465559D01*
X151904890Y-90320569D01*
X151888000Y-90317149D01*
X151888000Y-87122005D01*
X151888001Y-87122000D01*
X151827279Y-86816739D01*
X151820633Y-86783325D01*
X151628790Y-86496210D01*
X151628787Y-86496208D01*
X149850790Y-84718210D01*
X149705572Y-84621179D01*
X149563675Y-84526367D01*
X149507484Y-84515190D01*
X149225000Y-84458999D01*
X149224995Y-84459000D01*
X144272005Y-84459000D01*
X144272000Y-84458999D01*
X143989516Y-84515190D01*
X143933325Y-84526367D01*
X143646210Y-84718210D01*
X143646208Y-84718213D01*
X142185710Y-86178710D01*
X141993867Y-86465825D01*
X141993867Y-86465826D01*
X141926499Y-86804500D01*
X141926500Y-86804505D01*
X141926500Y-95772421D01*
X141080216Y-96618704D01*
X141080774Y-95980406D01*
X140832462Y-95379445D01*
X140597700Y-95144273D01*
X140597700Y-89871598D01*
X140637643Y-89855094D01*
X141097978Y-89395563D01*
X141347416Y-88794848D01*
X141347984Y-88144405D01*
X141099594Y-87543257D01*
X140640063Y-87082922D01*
X140039348Y-86833484D01*
X139388905Y-86832916D01*
X138787757Y-87081306D01*
X138327422Y-87540837D01*
X138077984Y-88141552D01*
X138077416Y-88791995D01*
X138325806Y-89393143D01*
X138686000Y-89753967D01*
X138686000Y-94849604D01*
X138521345Y-94917638D01*
X138061154Y-95377027D01*
X138043684Y-95419100D01*
X136853479Y-95419100D01*
X136584500Y-95150120D01*
X136584500Y-93980005D01*
X136584501Y-93980000D01*
X136517134Y-93641326D01*
X136428216Y-93508250D01*
X136325290Y-93354210D01*
X136325287Y-93354208D01*
X135690290Y-92719210D01*
X135581471Y-92646500D01*
X135403175Y-92527367D01*
X135346984Y-92516190D01*
X135064500Y-92459999D01*
X135064495Y-92460000D01*
X135048279Y-92460000D01*
X134925090Y-92268559D01*
X134712890Y-92123569D01*
X134461000Y-92072560D01*
X132961000Y-92072560D01*
X132725683Y-92116838D01*
X132509559Y-92255910D01*
X132461866Y-92325711D01*
X132425090Y-92268559D01*
X132212890Y-92123569D01*
X131961000Y-92072560D01*
X130461000Y-92072560D01*
X130225683Y-92116838D01*
X130009559Y-92255910D01*
X129864569Y-92468110D01*
X129813560Y-92720000D01*
X129813560Y-93970000D01*
X129857838Y-94205317D01*
X129996910Y-94421441D01*
X130209110Y-94566431D01*
X130220000Y-94568636D01*
X130220000Y-95021838D01*
X130214683Y-95022838D01*
X130147607Y-95066000D01*
X129915594Y-95066000D01*
X129766756Y-95004197D01*
X129315225Y-95003803D01*
X128897914Y-95176233D01*
X128578355Y-95495235D01*
X128405197Y-95912244D01*
X128404803Y-96363775D01*
X128577233Y-96781086D01*
X128761825Y-96966000D01*
X127862169Y-96966000D01*
X127599922Y-96331314D01*
X127064505Y-95794961D01*
X126364590Y-95504332D01*
X125606735Y-95503670D01*
X124906314Y-95793078D01*
X124369961Y-96328495D01*
X124079332Y-97028410D01*
X124078748Y-97696417D01*
X120566908Y-99874647D01*
X120502917Y-99934444D01*
X120430099Y-99983099D01*
X120395607Y-100034721D01*
X120350244Y-100077110D01*
X120314008Y-100156842D01*
X120265352Y-100229661D01*
X120253240Y-100290553D01*
X120227552Y-100347075D01*
X120224586Y-100434602D01*
X120207500Y-100520500D01*
X120207500Y-113601500D01*
X120265352Y-113892339D01*
X120430099Y-114138901D01*
X122436052Y-116144854D01*
X122435803Y-116429775D01*
X122608233Y-116847086D01*
X122927235Y-117166645D01*
X123344244Y-117339803D01*
X123795775Y-117340197D01*
X124213086Y-117167767D01*
X124532645Y-116848765D01*
X124705803Y-116431756D01*
X124706197Y-115980225D01*
X124533767Y-115562914D01*
X124214765Y-115243355D01*
X123797756Y-115070197D01*
X123510749Y-115069947D01*
X121727500Y-113286698D01*
X121727500Y-102774750D01*
X124079000Y-102774750D01*
X124079000Y-103885309D01*
X124175673Y-104118698D01*
X124354301Y-104297327D01*
X124587690Y-104394000D01*
X125698250Y-104394000D01*
X125857000Y-104235250D01*
X125857000Y-102616000D01*
X126111000Y-102616000D01*
X126111000Y-104235250D01*
X126269750Y-104394000D01*
X127380310Y-104394000D01*
X127613699Y-104297327D01*
X127792327Y-104118698D01*
X127889000Y-103885309D01*
X127889000Y-103133490D01*
X128933700Y-103133490D01*
X128933700Y-103524050D01*
X129092450Y-103682800D01*
X130441700Y-103682800D01*
X130441700Y-102783550D01*
X130282950Y-102624800D01*
X129442391Y-102624800D01*
X129209002Y-102721473D01*
X129030373Y-102900101D01*
X128933700Y-103133490D01*
X127889000Y-103133490D01*
X127889000Y-102774750D01*
X127730250Y-102616000D01*
X126111000Y-102616000D01*
X125857000Y-102616000D01*
X124237750Y-102616000D01*
X124079000Y-102774750D01*
X121727500Y-102774750D01*
X121727500Y-101092691D01*
X124079000Y-101092691D01*
X124079000Y-102203250D01*
X124237750Y-102362000D01*
X125857000Y-102362000D01*
X125857000Y-100742750D01*
X126111000Y-100742750D01*
X126111000Y-102362000D01*
X127730250Y-102362000D01*
X127889000Y-102203250D01*
X127889000Y-101092691D01*
X127792327Y-100859302D01*
X127613699Y-100680673D01*
X127380310Y-100584000D01*
X126269750Y-100584000D01*
X126111000Y-100742750D01*
X125857000Y-100742750D01*
X125698250Y-100584000D01*
X124587690Y-100584000D01*
X124354301Y-100680673D01*
X124175673Y-100859302D01*
X124079000Y-101092691D01*
X121727500Y-101092691D01*
X121727500Y-100943429D01*
X124872958Y-98992449D01*
X124903495Y-99023039D01*
X125603410Y-99313668D01*
X126361265Y-99314330D01*
X127061686Y-99024922D01*
X127351113Y-98736000D01*
X130123046Y-98736000D01*
X130140440Y-98823440D01*
X130162367Y-98933675D01*
X130286531Y-99119500D01*
X130354210Y-99220790D01*
X131104958Y-99971537D01*
X131104960Y-99971540D01*
X131392075Y-100163383D01*
X131440031Y-100172922D01*
X131730750Y-100230751D01*
X131730755Y-100230750D01*
X132696042Y-100230750D01*
X132185458Y-100740443D01*
X131783458Y-101708567D01*
X131782627Y-102661092D01*
X131695009Y-102624800D01*
X130854450Y-102624800D01*
X130695700Y-102783550D01*
X130695700Y-103682800D01*
X132044950Y-103682800D01*
X132130002Y-103597748D01*
X132182853Y-103725658D01*
X132923443Y-104467542D01*
X133891567Y-104869542D01*
X134939834Y-104870457D01*
X135908658Y-104470147D01*
X136650542Y-103729557D01*
X137052542Y-102761433D01*
X137053457Y-101713166D01*
X136653147Y-100744342D01*
X136140451Y-100230750D01*
X138208949Y-100230750D01*
X138061154Y-100378287D01*
X137811794Y-100978813D01*
X137811226Y-101629054D01*
X138059538Y-102230015D01*
X138518927Y-102690206D01*
X139119453Y-102939566D01*
X139769694Y-102940134D01*
X140370655Y-102691822D01*
X140830846Y-102232433D01*
X140974000Y-101887680D01*
X140974000Y-106694421D01*
X139645800Y-108022620D01*
X139544090Y-107864559D01*
X139331890Y-107719569D01*
X139080000Y-107668560D01*
X138917615Y-107668560D01*
X139093729Y-107595611D01*
X139149410Y-107365016D01*
X138430000Y-106645605D01*
X137710590Y-107365016D01*
X137766271Y-107595611D01*
X137975902Y-107668560D01*
X137780000Y-107668560D01*
X137544683Y-107712838D01*
X137328559Y-107851910D01*
X137183569Y-108064110D01*
X137132560Y-108316000D01*
X137132560Y-109616000D01*
X137176838Y-109851317D01*
X137315910Y-110067441D01*
X137528110Y-110212431D01*
X137780000Y-110263440D01*
X139080000Y-110263440D01*
X139315317Y-110219162D01*
X139531441Y-110080090D01*
X139676431Y-109867890D01*
X139679851Y-109851000D01*
X139953995Y-109851000D01*
X139954000Y-109851001D01*
X139954005Y-109851000D01*
X144990879Y-109851000D01*
X145148110Y-109958431D01*
X145400000Y-110009440D01*
X146700000Y-110009440D01*
X146935317Y-109965162D01*
X147151441Y-109826090D01*
X147296431Y-109613890D01*
X147325164Y-109472000D01*
X148907500Y-109472000D01*
X149198339Y-109414148D01*
X149444901Y-109249401D01*
X150619302Y-108075000D01*
X151197258Y-108075000D01*
X151220838Y-108200317D01*
X151359910Y-108416441D01*
X151419159Y-108456924D01*
X151372559Y-108486910D01*
X151227569Y-108699110D01*
X151176560Y-108951000D01*
X151176560Y-109923638D01*
X150735198Y-110365000D01*
X135823802Y-110365000D01*
X132744401Y-107285599D01*
X132497839Y-107120852D01*
X132207000Y-107063000D01*
X132176626Y-107063000D01*
X132171862Y-107037683D01*
X132032790Y-106821559D01*
X132028327Y-106818510D01*
X132165131Y-106618290D01*
X132216140Y-106366400D01*
X132216140Y-106285078D01*
X137132378Y-106285078D01*
X137161917Y-106795428D01*
X137300389Y-107129729D01*
X137530984Y-107185410D01*
X138250395Y-106466000D01*
X138609605Y-106466000D01*
X139329016Y-107185410D01*
X139559611Y-107129729D01*
X139727622Y-106646922D01*
X139698083Y-106136572D01*
X139559611Y-105802271D01*
X139329016Y-105746590D01*
X138609605Y-106466000D01*
X138250395Y-106466000D01*
X137530984Y-105746590D01*
X137300389Y-105802271D01*
X137132378Y-106285078D01*
X132216140Y-106285078D01*
X132216140Y-105566984D01*
X137710590Y-105566984D01*
X138430000Y-106286395D01*
X139149410Y-105566984D01*
X139093729Y-105336389D01*
X138610922Y-105168378D01*
X138100572Y-105197917D01*
X137766271Y-105336389D01*
X137710590Y-105566984D01*
X132216140Y-105566984D01*
X132216140Y-105266400D01*
X132171862Y-105031083D01*
X132032790Y-104814959D01*
X132020182Y-104806344D01*
X132107027Y-104719499D01*
X132203700Y-104486110D01*
X132203700Y-104095550D01*
X132044950Y-103936800D01*
X130695700Y-103936800D01*
X130695700Y-103956800D01*
X130441700Y-103956800D01*
X130441700Y-103936800D01*
X129092450Y-103936800D01*
X128933700Y-104095550D01*
X128933700Y-104486110D01*
X129030373Y-104719499D01*
X129115605Y-104804731D01*
X128972269Y-105014510D01*
X128921260Y-105266400D01*
X128921260Y-106366400D01*
X128965538Y-106601717D01*
X129104610Y-106817841D01*
X129109073Y-106820890D01*
X128972269Y-107021110D01*
X128921260Y-107273000D01*
X128921260Y-108373000D01*
X128965538Y-108608317D01*
X129099368Y-108816295D01*
X128972269Y-109002310D01*
X128921260Y-109254200D01*
X128921260Y-110354200D01*
X128965538Y-110589517D01*
X129104610Y-110805641D01*
X129316810Y-110950631D01*
X129568700Y-111001640D01*
X131568700Y-111001640D01*
X131804017Y-110957362D01*
X132020141Y-110818290D01*
X132165131Y-110606090D01*
X132216140Y-110354200D01*
X132216140Y-109254200D01*
X132171862Y-109018883D01*
X132038032Y-108810905D01*
X132071346Y-108762148D01*
X134971599Y-111662401D01*
X135218160Y-111827148D01*
X135509000Y-111885000D01*
X151016683Y-111885000D01*
X150990560Y-112014000D01*
X150990560Y-112270000D01*
X150495000Y-112270000D01*
X150204161Y-112327852D01*
X149957599Y-112492599D01*
X149195599Y-113254599D01*
X149030852Y-113501161D01*
X148973000Y-113792000D01*
X148973000Y-118491000D01*
X149030852Y-118781839D01*
X149195599Y-119028401D01*
X149703599Y-119536401D01*
X149950161Y-119701148D01*
X150241000Y-119759000D01*
X177036000Y-119759000D01*
X177326839Y-119701148D01*
X177573401Y-119536401D01*
X177955401Y-119154401D01*
X178120148Y-118907839D01*
X178178000Y-118617000D01*
X178178000Y-116915073D01*
X178217839Y-116907148D01*
X178249399Y-116886060D01*
X178366167Y-116886162D01*
X178709943Y-116744117D01*
X178724421Y-116729664D01*
X178880599Y-116963401D01*
X179548599Y-117631401D01*
X179795161Y-117796148D01*
X180086000Y-117854000D01*
X182057198Y-117854000D01*
X182071878Y-117868680D01*
X182071838Y-117914167D01*
X182213883Y-118257943D01*
X182476673Y-118521192D01*
X182820201Y-118663838D01*
X183192167Y-118664162D01*
X183535943Y-118522117D01*
X183799192Y-118259327D01*
X183839633Y-118161934D01*
X200475643Y-118161934D01*
X200875953Y-119130758D01*
X201616543Y-119872642D01*
X202584667Y-120274642D01*
X203632934Y-120275557D01*
X204601758Y-119875247D01*
X205343642Y-119134657D01*
X205745642Y-118166533D01*
X205746557Y-117118266D01*
X205413808Y-116312950D01*
X208435700Y-116312950D01*
X208435700Y-116803510D01*
X208532373Y-117036899D01*
X208711002Y-117215527D01*
X208944391Y-117312200D01*
X209784950Y-117312200D01*
X209943700Y-117153450D01*
X209943700Y-116154200D01*
X210197700Y-116154200D01*
X210197700Y-117153450D01*
X210356450Y-117312200D01*
X211197009Y-117312200D01*
X211430398Y-117215527D01*
X211609027Y-117036899D01*
X211705700Y-116803510D01*
X211705700Y-116312950D01*
X211546950Y-116154200D01*
X210197700Y-116154200D01*
X209943700Y-116154200D01*
X208594450Y-116154200D01*
X208435700Y-116312950D01*
X205413808Y-116312950D01*
X205346247Y-116149442D01*
X204605657Y-115407558D01*
X203637533Y-115005558D01*
X202589266Y-115004643D01*
X201620442Y-115404953D01*
X200878558Y-116145543D01*
X200476558Y-117113667D01*
X200475643Y-118161934D01*
X183839633Y-118161934D01*
X183941838Y-117915799D01*
X183942162Y-117543833D01*
X183800117Y-117200057D01*
X183537327Y-116936808D01*
X183193799Y-116794162D01*
X183146923Y-116794121D01*
X182909401Y-116556599D01*
X182662839Y-116391852D01*
X182372000Y-116334000D01*
X180400802Y-116334000D01*
X180178000Y-116111198D01*
X180178000Y-114412000D01*
X193843660Y-114412000D01*
X193843660Y-115712000D01*
X193887938Y-115947317D01*
X194027010Y-116163441D01*
X194239210Y-116308431D01*
X194491100Y-116359440D01*
X196491100Y-116359440D01*
X196726417Y-116315162D01*
X196942541Y-116176090D01*
X197087531Y-115963890D01*
X197138540Y-115712000D01*
X197138540Y-114412000D01*
X197094262Y-114176683D01*
X197045078Y-114100248D01*
X197080227Y-114065099D01*
X197176900Y-113831710D01*
X197176900Y-113341150D01*
X197018150Y-113182400D01*
X195668900Y-113182400D01*
X195668900Y-113202400D01*
X195414900Y-113202400D01*
X195414900Y-113182400D01*
X194065650Y-113182400D01*
X193906900Y-113341150D01*
X193906900Y-113831710D01*
X193986972Y-114025020D01*
X193894669Y-114160110D01*
X193843660Y-114412000D01*
X180178000Y-114412000D01*
X180178000Y-110718926D01*
X180203317Y-110714162D01*
X180419441Y-110575090D01*
X180420390Y-110573701D01*
X180616110Y-110707431D01*
X180868000Y-110758440D01*
X181968000Y-110758440D01*
X182203317Y-110714162D01*
X182419441Y-110575090D01*
X182425377Y-110566402D01*
X182508301Y-110649327D01*
X182741690Y-110746000D01*
X183132250Y-110746000D01*
X183291000Y-110587250D01*
X183291000Y-108488000D01*
X183545000Y-108488000D01*
X183545000Y-110587250D01*
X183703750Y-110746000D01*
X184094310Y-110746000D01*
X184327699Y-110649327D01*
X184506327Y-110470698D01*
X184603000Y-110237309D01*
X184603000Y-108646750D01*
X184444250Y-108488000D01*
X183545000Y-108488000D01*
X183291000Y-108488000D01*
X183271000Y-108488000D01*
X183271000Y-108234000D01*
X183291000Y-108234000D01*
X183291000Y-108214000D01*
X183545000Y-108214000D01*
X183545000Y-108234000D01*
X184444250Y-108234000D01*
X184603000Y-108075250D01*
X184603000Y-107445802D01*
X186882500Y-109725302D01*
X186882500Y-109991037D01*
X186850308Y-110023173D01*
X186707662Y-110366701D01*
X186707338Y-110738667D01*
X186849383Y-111082443D01*
X187112173Y-111345692D01*
X187455701Y-111488338D01*
X187827667Y-111488662D01*
X188171443Y-111346617D01*
X188434692Y-111083827D01*
X188577338Y-110740299D01*
X188577662Y-110368333D01*
X188435617Y-110024557D01*
X188402500Y-109991382D01*
X188402500Y-109721302D01*
X188565599Y-109884401D01*
X188812160Y-110049148D01*
X188963560Y-110079264D01*
X188963560Y-110210600D01*
X189007838Y-110445917D01*
X189146910Y-110662041D01*
X189359110Y-110807031D01*
X189611000Y-110858040D01*
X191643000Y-110858040D01*
X191878317Y-110813762D01*
X192094441Y-110674690D01*
X192096131Y-110672216D01*
X192248599Y-110900401D01*
X192934399Y-111586201D01*
X193180961Y-111750948D01*
X193471800Y-111808800D01*
X193915158Y-111808800D01*
X193938738Y-111934117D01*
X194007812Y-112041462D01*
X194003573Y-112045701D01*
X193906900Y-112279090D01*
X193906900Y-112769650D01*
X194065650Y-112928400D01*
X195414900Y-112928400D01*
X195414900Y-112908400D01*
X195668900Y-112908400D01*
X195668900Y-112928400D01*
X197018150Y-112928400D01*
X197176900Y-112769650D01*
X197176900Y-112279090D01*
X197080227Y-112045701D01*
X197076179Y-112041653D01*
X197138331Y-111950690D01*
X197189340Y-111698800D01*
X197189340Y-110398800D01*
X197145062Y-110163483D01*
X197005990Y-109947359D01*
X196793790Y-109802369D01*
X196541900Y-109751360D01*
X194541900Y-109751360D01*
X194306583Y-109795638D01*
X194090459Y-109934710D01*
X193945469Y-110146910D01*
X193916736Y-110288800D01*
X193786602Y-110288800D01*
X193546000Y-110048198D01*
X193546000Y-109017934D01*
X200437543Y-109017934D01*
X200837853Y-109986758D01*
X201578443Y-110728642D01*
X202546567Y-111130642D01*
X203594834Y-111131557D01*
X204563658Y-110731247D01*
X205305542Y-109990657D01*
X205557946Y-109382800D01*
X208423260Y-109382800D01*
X208423260Y-110682800D01*
X208467538Y-110918117D01*
X208543507Y-111036176D01*
X208474269Y-111137510D01*
X208423260Y-111389400D01*
X208423260Y-112689400D01*
X208467538Y-112924717D01*
X208543507Y-113042776D01*
X208474269Y-113144110D01*
X208423260Y-113396000D01*
X208423260Y-114696000D01*
X208467538Y-114931317D01*
X208528701Y-115026367D01*
X208435700Y-115250890D01*
X208435700Y-115741450D01*
X208594450Y-115900200D01*
X209943700Y-115900200D01*
X209943700Y-115880200D01*
X210197700Y-115880200D01*
X210197700Y-115900200D01*
X211546950Y-115900200D01*
X211705700Y-115741450D01*
X211705700Y-115250890D01*
X211613005Y-115027106D01*
X211667131Y-114947890D01*
X211718140Y-114696000D01*
X211718140Y-113396000D01*
X211673862Y-113160683D01*
X211597893Y-113042624D01*
X211667131Y-112941290D01*
X211718140Y-112689400D01*
X211718140Y-111389400D01*
X211673862Y-111154083D01*
X211597893Y-111036024D01*
X211667131Y-110934690D01*
X211718140Y-110682800D01*
X211718140Y-109382800D01*
X211673862Y-109147483D01*
X211534790Y-108931359D01*
X211322590Y-108786369D01*
X211070700Y-108735360D01*
X209070700Y-108735360D01*
X208835383Y-108779638D01*
X208619259Y-108918710D01*
X208474269Y-109130910D01*
X208423260Y-109382800D01*
X205557946Y-109382800D01*
X205707542Y-109022533D01*
X205708457Y-107974266D01*
X205308147Y-107005442D01*
X204567557Y-106263558D01*
X203599433Y-105861558D01*
X202551166Y-105860643D01*
X201582342Y-106260953D01*
X200840458Y-107001543D01*
X200438458Y-107969667D01*
X200437543Y-109017934D01*
X193546000Y-109017934D01*
X193546000Y-105410000D01*
X193488148Y-105119161D01*
X193323401Y-104872599D01*
X192209172Y-103758370D01*
X192196271Y-103693511D01*
X191871415Y-103207330D01*
X191556634Y-102997000D01*
X191871415Y-102786670D01*
X191976209Y-102629834D01*
X193591043Y-102629834D01*
X193991353Y-103598658D01*
X194731943Y-104340542D01*
X195700067Y-104742542D01*
X196748334Y-104743457D01*
X197717158Y-104343147D01*
X198459042Y-103602557D01*
X198861042Y-102634433D01*
X198861957Y-101586166D01*
X198461647Y-100617342D01*
X197721057Y-99875458D01*
X196752933Y-99473458D01*
X195704666Y-99472543D01*
X194735842Y-99872853D01*
X193993958Y-100613443D01*
X193591958Y-101581567D01*
X193591043Y-102629834D01*
X191976209Y-102629834D01*
X192196271Y-102300489D01*
X192310345Y-101727000D01*
X192196271Y-101153511D01*
X191871415Y-100667330D01*
X191556634Y-100457000D01*
X191871415Y-100246670D01*
X192196271Y-99760489D01*
X192310345Y-99187000D01*
X192196271Y-98613511D01*
X191871415Y-98127330D01*
X191556634Y-97917000D01*
X191871415Y-97706670D01*
X192196271Y-97220489D01*
X192310345Y-96647000D01*
X192196271Y-96073511D01*
X192141435Y-95991443D01*
X192177660Y-96015648D01*
X192468500Y-96073500D01*
X195233842Y-96073500D01*
X195276238Y-96298817D01*
X195415310Y-96514941D01*
X195627510Y-96659931D01*
X195879400Y-96710940D01*
X198379400Y-96710940D01*
X198614717Y-96666662D01*
X198830841Y-96527590D01*
X198975831Y-96315390D01*
X199026840Y-96063500D01*
X199026840Y-94563500D01*
X198982562Y-94328183D01*
X198843490Y-94112059D01*
X198829866Y-94102750D01*
X201727000Y-94102750D01*
X201727000Y-95743309D01*
X201823673Y-95976698D01*
X202002301Y-96155327D01*
X202235690Y-96252000D01*
X203676250Y-96252000D01*
X203835000Y-96093250D01*
X203835000Y-93944000D01*
X204089000Y-93944000D01*
X204089000Y-96093250D01*
X204247750Y-96252000D01*
X205688310Y-96252000D01*
X205921699Y-96155327D01*
X206100327Y-95976698D01*
X206197000Y-95743309D01*
X206197000Y-94102750D01*
X206038250Y-93944000D01*
X204089000Y-93944000D01*
X203835000Y-93944000D01*
X201885750Y-93944000D01*
X201727000Y-94102750D01*
X198829866Y-94102750D01*
X198631290Y-93967069D01*
X198384656Y-93917124D01*
X198698545Y-93663040D01*
X198957573Y-93186184D01*
X198971718Y-93114685D01*
X198849056Y-92900500D01*
X197256400Y-92900500D01*
X197256400Y-92920500D01*
X197002400Y-92920500D01*
X197002400Y-92900500D01*
X196982400Y-92900500D01*
X196982400Y-92646500D01*
X197002400Y-92646500D01*
X197002400Y-92626500D01*
X197256400Y-92626500D01*
X197256400Y-92646500D01*
X198849056Y-92646500D01*
X198971718Y-92432315D01*
X198957573Y-92360816D01*
X198702202Y-91890691D01*
X201727000Y-91890691D01*
X201727000Y-93531250D01*
X201885750Y-93690000D01*
X203835000Y-93690000D01*
X203835000Y-91540750D01*
X203676250Y-91382000D01*
X202235690Y-91382000D01*
X202002301Y-91478673D01*
X201823673Y-91657302D01*
X201727000Y-91890691D01*
X198702202Y-91890691D01*
X198698545Y-91883960D01*
X198276749Y-91542528D01*
X198184920Y-91515346D01*
X198196346Y-91513073D01*
X198645672Y-91212843D01*
X198792232Y-90993500D01*
X200542148Y-90993500D01*
X200637673Y-91089192D01*
X200981201Y-91231838D01*
X201353167Y-91232162D01*
X201696943Y-91090117D01*
X201960192Y-90827327D01*
X202102838Y-90483799D01*
X202102908Y-90403870D01*
X202184000Y-90420001D01*
X202184005Y-90420000D01*
X204357420Y-90420000D01*
X205319420Y-91382000D01*
X204247750Y-91382000D01*
X204089000Y-91540750D01*
X204089000Y-93690000D01*
X206038250Y-93690000D01*
X206197000Y-93531250D01*
X206197000Y-92259579D01*
X206379000Y-92441579D01*
X206379000Y-99963421D01*
X206196134Y-100146286D01*
X206165162Y-99981683D01*
X206026090Y-99765559D01*
X205813890Y-99620569D01*
X205562000Y-99569560D01*
X202362000Y-99569560D01*
X202126683Y-99613838D01*
X201910559Y-99752910D01*
X201765569Y-99965110D01*
X201714560Y-100217000D01*
X201714560Y-103817000D01*
X201758838Y-104052317D01*
X201897910Y-104268441D01*
X202110110Y-104413431D01*
X202362000Y-104464440D01*
X205562000Y-104464440D01*
X205797317Y-104420162D01*
X206013441Y-104281090D01*
X206158431Y-104068890D01*
X206209440Y-103817000D01*
X206209440Y-102636140D01*
X207889787Y-100955792D01*
X207889790Y-100955790D01*
X208081633Y-100668675D01*
X208091844Y-100617342D01*
X208149001Y-100330000D01*
X208149000Y-100329995D01*
X208149000Y-92075000D01*
X208081633Y-91736325D01*
X207889790Y-91449210D01*
X207889787Y-91449208D01*
X205349790Y-88909210D01*
X205305852Y-88879852D01*
X205062675Y-88717367D01*
X205006484Y-88706190D01*
X204724000Y-88649999D01*
X204723995Y-88650000D01*
X202550579Y-88650000D01*
X202180000Y-88279420D01*
X202180000Y-81849619D01*
X204520613Y-81849619D01*
X204860155Y-82671372D01*
X204865232Y-82676458D01*
X204862364Y-82679321D01*
X204521389Y-83500481D01*
X204520613Y-84389619D01*
X204810298Y-85090710D01*
X204521389Y-85786481D01*
X204520613Y-86675619D01*
X204860155Y-87497372D01*
X205488321Y-88126636D01*
X206309481Y-88467611D01*
X207198619Y-88468387D01*
X208020372Y-88128845D01*
X208649636Y-87500679D01*
X208990611Y-86679519D01*
X208991387Y-85790381D01*
X208701702Y-85089290D01*
X208990611Y-84393519D01*
X208991387Y-83504381D01*
X208651845Y-82682628D01*
X208646768Y-82677542D01*
X208649636Y-82674679D01*
X208990611Y-81853519D01*
X208991387Y-80964381D01*
X208651845Y-80142628D01*
X208023679Y-79513364D01*
X207202519Y-79172389D01*
X206313381Y-79171613D01*
X205491628Y-79511155D01*
X204862364Y-80139321D01*
X204521389Y-80960481D01*
X204520613Y-81849619D01*
X202180000Y-81849619D01*
X202180000Y-75438000D01*
X202112633Y-75099325D01*
X201920790Y-74812210D01*
X201920787Y-74812208D01*
X199625580Y-72517000D01*
X217170000Y-72517000D01*
X217170000Y-120321000D01*
X156022052Y-120321000D01*
X113994000Y-120269558D01*
X113994000Y-99284775D01*
X114688803Y-99284775D01*
X114861233Y-99702086D01*
X115064000Y-99905207D01*
X115064000Y-104183941D01*
X114862355Y-104385235D01*
X114689197Y-104802244D01*
X114688803Y-105253775D01*
X114861233Y-105671086D01*
X115180235Y-105990645D01*
X115597244Y-106163803D01*
X116048775Y-106164197D01*
X116466086Y-105991767D01*
X116785645Y-105672765D01*
X116958803Y-105255756D01*
X116959197Y-104804225D01*
X116786767Y-104386914D01*
X116584000Y-104183793D01*
X116584000Y-99905059D01*
X116785645Y-99703765D01*
X116958803Y-99286756D01*
X116959197Y-98835225D01*
X116786767Y-98417914D01*
X116467765Y-98098355D01*
X116050756Y-97925197D01*
X115599225Y-97924803D01*
X115181914Y-98097233D01*
X114862355Y-98416235D01*
X114689197Y-98833244D01*
X114688803Y-99284775D01*
X113994000Y-99284775D01*
X113994000Y-81976619D01*
X122097613Y-81976619D01*
X122437155Y-82798372D01*
X122442232Y-82803458D01*
X122439364Y-82806321D01*
X122098389Y-83627481D01*
X122097613Y-84516619D01*
X122387298Y-85217710D01*
X122098389Y-85913481D01*
X122097613Y-86802619D01*
X122437155Y-87624372D01*
X123065321Y-88253636D01*
X123886481Y-88594611D01*
X124775619Y-88595387D01*
X125597372Y-88255845D01*
X126226636Y-87627679D01*
X126567611Y-86806519D01*
X126568387Y-85917381D01*
X126278702Y-85216290D01*
X126567611Y-84520519D01*
X126568387Y-83631381D01*
X126228845Y-82809628D01*
X126223768Y-82804542D01*
X126226636Y-82801679D01*
X126567611Y-81980519D01*
X126568387Y-81091381D01*
X126228845Y-80269628D01*
X125969671Y-80010000D01*
X127094655Y-80010000D01*
X127208729Y-80583489D01*
X127533585Y-81069670D01*
X127848366Y-81280000D01*
X127533585Y-81490330D01*
X127208729Y-81976511D01*
X127094655Y-82550000D01*
X127208729Y-83123489D01*
X127533585Y-83609670D01*
X127848366Y-83820000D01*
X127533585Y-84030330D01*
X127208729Y-84516511D01*
X127094655Y-85090000D01*
X127208729Y-85663489D01*
X127533585Y-86149670D01*
X127848366Y-86360000D01*
X127533585Y-86570330D01*
X127208729Y-87056511D01*
X127094655Y-87630000D01*
X127208729Y-88203489D01*
X127533585Y-88689670D01*
X127547913Y-88699243D01*
X127526683Y-88703238D01*
X127310559Y-88842310D01*
X127165569Y-89054510D01*
X127114560Y-89306400D01*
X127114560Y-91033600D01*
X127158838Y-91268917D01*
X127297910Y-91485041D01*
X127510110Y-91630031D01*
X127762000Y-91681040D01*
X129794000Y-91681040D01*
X130029317Y-91636762D01*
X130245441Y-91497690D01*
X130390431Y-91285490D01*
X130441440Y-91033600D01*
X130441440Y-90998580D01*
X131627820Y-90998580D01*
X131627820Y-91138580D01*
X131672098Y-91373897D01*
X131811170Y-91590021D01*
X132023370Y-91735011D01*
X132275260Y-91786020D01*
X134775260Y-91786020D01*
X135010577Y-91741742D01*
X135226701Y-91602670D01*
X135371691Y-91390470D01*
X135422700Y-91138580D01*
X135422700Y-89338580D01*
X135378422Y-89103263D01*
X135239350Y-88887139D01*
X135027150Y-88742149D01*
X134964422Y-88729446D01*
X135041532Y-88677923D01*
X135341762Y-88228597D01*
X135447189Y-87698580D01*
X135341762Y-87168563D01*
X135041532Y-86719237D01*
X134606533Y-86428580D01*
X135041532Y-86137923D01*
X135341762Y-85688597D01*
X135447189Y-85158580D01*
X135341762Y-84628563D01*
X135041532Y-84179237D01*
X134606533Y-83888580D01*
X135041532Y-83597923D01*
X135341762Y-83148597D01*
X135447189Y-82618580D01*
X135341762Y-82088563D01*
X135041532Y-81639237D01*
X134606533Y-81348580D01*
X135041532Y-81057923D01*
X135341762Y-80608597D01*
X135447189Y-80078580D01*
X135341762Y-79548563D01*
X135041532Y-79099237D01*
X134592206Y-78799007D01*
X134062189Y-78693580D01*
X132988331Y-78693580D01*
X132458314Y-78799007D01*
X132008988Y-79099237D01*
X131862428Y-79318580D01*
X130268472Y-79318580D01*
X130022415Y-78950330D01*
X129536234Y-78625474D01*
X128962745Y-78511400D01*
X128593255Y-78511400D01*
X128019766Y-78625474D01*
X127533585Y-78950330D01*
X127208729Y-79436511D01*
X127094655Y-80010000D01*
X125969671Y-80010000D01*
X125600679Y-79640364D01*
X124779519Y-79299389D01*
X123890381Y-79298613D01*
X123068628Y-79638155D01*
X122439364Y-80266321D01*
X122098389Y-81087481D01*
X122097613Y-81976619D01*
X113994000Y-81976619D01*
X113994000Y-72898000D01*
X125844560Y-72898000D01*
X125844560Y-75438000D01*
X125888838Y-75673317D01*
X126027910Y-75889441D01*
X126240110Y-76034431D01*
X126492000Y-76085440D01*
X129032000Y-76085440D01*
X129267317Y-76041162D01*
X129483441Y-75902090D01*
X129628431Y-75689890D01*
X129679440Y-75438000D01*
X129679440Y-75053000D01*
X142640743Y-75053000D01*
X141946200Y-75339980D01*
X141345091Y-75940041D01*
X141019372Y-76724459D01*
X141018630Y-77573815D01*
X141342980Y-78358800D01*
X141943041Y-78959909D01*
X142727459Y-79285628D01*
X143576815Y-79286370D01*
X144361800Y-78962020D01*
X144962909Y-78361959D01*
X145288628Y-77577541D01*
X145289370Y-76728185D01*
X144965020Y-75943200D01*
X144364959Y-75342091D01*
X143668751Y-75053000D01*
X152004420Y-75053000D01*
X153043451Y-76092030D01*
X152814441Y-76643546D01*
X152813560Y-77654021D01*
X153199437Y-78587915D01*
X153913327Y-79303052D01*
X154846546Y-79690559D01*
X155857021Y-79691440D01*
X156790915Y-79305563D01*
X157506052Y-78591673D01*
X157893559Y-77658454D01*
X157894440Y-76647979D01*
X157508563Y-75714085D01*
X156794673Y-74998948D01*
X155861454Y-74611441D01*
X154850979Y-74610560D01*
X154294905Y-74840325D01*
X152996790Y-73542210D01*
X152969222Y-73523790D01*
X152709675Y-73350367D01*
X152653484Y-73339190D01*
X152371000Y-73282999D01*
X152370995Y-73283000D01*
X142613517Y-73283000D01*
X143306052Y-72591673D01*
X143693559Y-71658454D01*
X143694440Y-70647979D01*
X143308563Y-69714085D01*
X142594673Y-68998948D01*
X141661454Y-68611441D01*
X140650979Y-68610560D01*
X139717085Y-68996437D01*
X139001948Y-69710327D01*
X138771212Y-70266000D01*
X136542024Y-70266000D01*
X137158542Y-69650557D01*
X137560542Y-68682433D01*
X137561457Y-67634166D01*
X137161147Y-66665342D01*
X136420557Y-65923458D01*
X135452433Y-65521458D01*
X134404166Y-65520543D01*
X133435342Y-65920853D01*
X132693458Y-66661443D01*
X132291458Y-67629567D01*
X132290543Y-68677834D01*
X132690853Y-69646658D01*
X133309115Y-70266000D01*
X130064579Y-70266000D01*
X129549454Y-69750874D01*
X129666668Y-69468590D01*
X129667330Y-68710735D01*
X129377922Y-68010314D01*
X128842505Y-67473961D01*
X128142590Y-67183332D01*
X127384735Y-67182670D01*
X126684314Y-67472078D01*
X126147961Y-68007495D01*
X125857332Y-68707410D01*
X125856670Y-69465265D01*
X126146078Y-70165686D01*
X126681495Y-70702039D01*
X127381410Y-70992668D01*
X128139265Y-70993330D01*
X128245044Y-70949623D01*
X129072208Y-71776787D01*
X129072210Y-71776790D01*
X129359325Y-71968633D01*
X129698000Y-72036000D01*
X138771390Y-72036000D01*
X138999437Y-72587915D01*
X139693310Y-73283000D01*
X129679440Y-73283000D01*
X129679440Y-72898000D01*
X129635162Y-72662683D01*
X129496090Y-72446559D01*
X129283890Y-72301569D01*
X129032000Y-72250560D01*
X126492000Y-72250560D01*
X126256683Y-72294838D01*
X126040559Y-72433910D01*
X125895569Y-72646110D01*
X125844560Y-72898000D01*
X113994000Y-72898000D01*
X113994000Y-64385265D01*
X125856670Y-64385265D01*
X126146078Y-65085686D01*
X126681495Y-65622039D01*
X127381410Y-65912668D01*
X128139265Y-65913330D01*
X128839686Y-65623922D01*
X129376039Y-65088505D01*
X129457219Y-64893000D01*
X135381995Y-64893000D01*
X135382000Y-64893001D01*
X135664484Y-64836810D01*
X135720675Y-64825633D01*
X136007790Y-64633790D01*
X136990579Y-63651000D01*
X141006560Y-63651000D01*
X141006560Y-66651000D01*
X141050838Y-66886317D01*
X141189910Y-67102441D01*
X141402110Y-67247431D01*
X141654000Y-67298440D01*
X144654000Y-67298440D01*
X144889317Y-67254162D01*
X145105441Y-67115090D01*
X145250431Y-66902890D01*
X145301440Y-66651000D01*
X145301440Y-63651000D01*
X145257162Y-63415683D01*
X145118090Y-63199559D01*
X144905890Y-63054569D01*
X144654000Y-63003560D01*
X141654000Y-63003560D01*
X141418683Y-63047838D01*
X141202559Y-63186910D01*
X141057569Y-63399110D01*
X141006560Y-63651000D01*
X136990579Y-63651000D01*
X137780579Y-62861000D01*
X151779420Y-62861000D01*
X152920713Y-64002293D01*
X152654441Y-64643546D01*
X152653560Y-65654021D01*
X153039437Y-66587915D01*
X153753327Y-67303052D01*
X154686546Y-67690559D01*
X155697021Y-67691440D01*
X156630915Y-67305563D01*
X157346052Y-66591673D01*
X157733559Y-65658454D01*
X157734440Y-64647979D01*
X157348563Y-63714085D01*
X156634673Y-62998948D01*
X155701454Y-62611441D01*
X154690979Y-62610560D01*
X154404507Y-62728928D01*
X153279790Y-61604210D01*
X152992674Y-61412367D01*
X152794533Y-61372953D01*
X152771790Y-61350210D01*
X152763991Y-61344999D01*
X152484675Y-61158367D01*
X152428484Y-61147190D01*
X152146000Y-61090999D01*
X152145995Y-61091000D01*
X137414005Y-61091000D01*
X137414000Y-61090999D01*
X137131516Y-61147190D01*
X137075325Y-61158367D01*
X136788210Y-61350210D01*
X136788208Y-61350213D01*
X135015420Y-63123000D01*
X129457538Y-63123000D01*
X129377922Y-62930314D01*
X128842505Y-62393961D01*
X128142590Y-62103332D01*
X127384735Y-62102670D01*
X126684314Y-62392078D01*
X126147961Y-62927495D01*
X125857332Y-63627410D01*
X125856670Y-64385265D01*
X113994000Y-64385265D01*
X113994000Y-49605000D01*
X161925000Y-49605000D01*
X161925000Y-70866000D01*
X161925000Y-70866000D01*
G37*
X161925000Y-70866000D02*
X161935006Y-70915410D01*
X161963447Y-70957035D01*
X162005841Y-70984315D01*
X162052000Y-70993000D01*
X167150421Y-70993000D01*
X167395208Y-71237787D01*
X167395210Y-71237790D01*
X167682325Y-71429633D01*
X168021000Y-71497000D01*
X187070995Y-71497000D01*
X187071000Y-71497001D01*
X187353484Y-71440810D01*
X187409675Y-71429633D01*
X187696790Y-71237790D01*
X187941580Y-70993000D01*
X192098394Y-70993000D01*
X193485270Y-72379876D01*
X193365367Y-72559325D01*
X193298000Y-72898000D01*
X193298000Y-78627421D01*
X191403420Y-80522000D01*
X175387005Y-80522000D01*
X175387000Y-80521999D01*
X175048326Y-80589366D01*
X175048324Y-80589367D01*
X175048325Y-80589367D01*
X174761210Y-80781210D01*
X174761208Y-80781213D01*
X172687325Y-82855096D01*
X172673541Y-82849372D01*
X171824185Y-82848630D01*
X171039200Y-83172980D01*
X170438091Y-83773041D01*
X170112372Y-84557459D01*
X170111630Y-85406815D01*
X170435980Y-86191800D01*
X171036041Y-86792909D01*
X171527546Y-86997000D01*
X161417000Y-86997000D01*
X161126160Y-87054852D01*
X160879599Y-87219599D01*
X158720599Y-89378599D01*
X158555852Y-89625161D01*
X158498000Y-89916000D01*
X158498000Y-103825198D01*
X157594320Y-104728878D01*
X157548833Y-104728838D01*
X157205057Y-104870883D01*
X156941808Y-105133673D01*
X156799162Y-105477201D01*
X156798838Y-105849167D01*
X156940883Y-106192943D01*
X157203673Y-106456192D01*
X157547201Y-106598838D01*
X157919167Y-106599162D01*
X158262943Y-106457117D01*
X158526192Y-106194327D01*
X158668838Y-105850799D01*
X158668879Y-105803923D01*
X159385000Y-105087802D01*
X159385000Y-108968000D01*
X158683802Y-108968000D01*
X158113000Y-108397198D01*
X158113000Y-108331000D01*
X158055148Y-108040161D01*
X157890401Y-107793599D01*
X156874401Y-106777599D01*
X156666487Y-106638675D01*
X156627162Y-106429683D01*
X156488090Y-106213559D01*
X156275890Y-106068569D01*
X156024000Y-106017560D01*
X154524000Y-106017560D01*
X154288683Y-106061838D01*
X154072559Y-106200910D01*
X153927569Y-106413110D01*
X153924919Y-106426197D01*
X153788090Y-106213559D01*
X153575890Y-106068569D01*
X153324000Y-106017560D01*
X151824000Y-106017560D01*
X151588683Y-106061838D01*
X151372559Y-106200910D01*
X151227569Y-106413110D01*
X151198836Y-106555000D01*
X150304500Y-106555000D01*
X150013660Y-106612852D01*
X149767099Y-106777599D01*
X148592698Y-107952000D01*
X147326742Y-107952000D01*
X147303162Y-107826683D01*
X147164090Y-107610559D01*
X146951890Y-107465569D01*
X146700000Y-107414560D01*
X146537615Y-107414560D01*
X146713729Y-107341611D01*
X146769410Y-107111016D01*
X146050000Y-106391605D01*
X145330590Y-107111016D01*
X145386271Y-107341611D01*
X145595902Y-107414560D01*
X145400000Y-107414560D01*
X145164683Y-107458838D01*
X144948559Y-107597910D01*
X144803569Y-107810110D01*
X144752560Y-108062000D01*
X144752560Y-108081000D01*
X142090579Y-108081000D01*
X142484787Y-107686792D01*
X142484790Y-107686790D01*
X142676633Y-107399675D01*
X142699324Y-107285599D01*
X142744001Y-107061000D01*
X142744000Y-107060995D01*
X142744000Y-106031078D01*
X144752378Y-106031078D01*
X144781917Y-106541428D01*
X144920389Y-106875729D01*
X145150984Y-106931410D01*
X145870395Y-106212000D01*
X146229605Y-106212000D01*
X146949016Y-106931410D01*
X147179611Y-106875729D01*
X147347622Y-106392922D01*
X147318083Y-105882572D01*
X147179611Y-105548271D01*
X146949016Y-105492590D01*
X146229605Y-106212000D01*
X145870395Y-106212000D01*
X145150984Y-105492590D01*
X144920389Y-105548271D01*
X144752378Y-106031078D01*
X142744000Y-106031078D01*
X142744000Y-105312984D01*
X145330590Y-105312984D01*
X146050000Y-106032395D01*
X146769410Y-105312984D01*
X146713729Y-105082389D01*
X146230922Y-104914378D01*
X145720572Y-104943917D01*
X145386271Y-105082389D01*
X145330590Y-105312984D01*
X142744000Y-105312984D01*
X142744000Y-102967016D01*
X150156590Y-102967016D01*
X150212271Y-103197611D01*
X150695078Y-103365622D01*
X151205428Y-103336083D01*
X151539729Y-103197611D01*
X151595410Y-102967016D01*
X150876000Y-102247605D01*
X150156590Y-102967016D01*
X142744000Y-102967016D01*
X142744000Y-102330523D01*
X144061443Y-102330523D01*
X144160042Y-102597325D01*
X144769582Y-102823761D01*
X145419377Y-102799701D01*
X145907958Y-102597325D01*
X146006557Y-102330523D01*
X145034000Y-101357965D01*
X144061443Y-102330523D01*
X142744000Y-102330523D01*
X142744000Y-101395080D01*
X143485214Y-100653865D01*
X143388599Y-100913942D01*
X143412659Y-101563737D01*
X143615035Y-102052318D01*
X143881837Y-102150917D01*
X144854395Y-101178360D01*
X145213605Y-101178360D01*
X146186163Y-102150917D01*
X146452965Y-102052318D01*
X146514349Y-101887078D01*
X149578378Y-101887078D01*
X149607917Y-102397428D01*
X149746389Y-102731729D01*
X149976984Y-102787410D01*
X150696395Y-102068000D01*
X151055605Y-102068000D01*
X151775016Y-102787410D01*
X152005611Y-102731729D01*
X152173622Y-102248922D01*
X152144083Y-101738572D01*
X152005611Y-101404271D01*
X151775016Y-101348590D01*
X151055605Y-102068000D01*
X150696395Y-102068000D01*
X149976984Y-101348590D01*
X149746389Y-101404271D01*
X149578378Y-101887078D01*
X146514349Y-101887078D01*
X146679401Y-101442778D01*
X146655341Y-100792983D01*
X146452965Y-100304402D01*
X146186163Y-100205803D01*
X145213605Y-101178360D01*
X144854395Y-101178360D01*
X144840252Y-101164218D01*
X145019858Y-100984612D01*
X145034000Y-100998755D01*
X146006557Y-100026197D01*
X145907958Y-99759395D01*
X145349241Y-99551839D01*
X145983079Y-98918000D01*
X149578560Y-98918000D01*
X149578560Y-100218000D01*
X149622838Y-100453317D01*
X149761910Y-100669441D01*
X149974110Y-100814431D01*
X150226000Y-100865440D01*
X150388385Y-100865440D01*
X150212271Y-100938389D01*
X150156590Y-101168984D01*
X150876000Y-101888395D01*
X151595410Y-101168984D01*
X151539729Y-100938389D01*
X151330098Y-100865440D01*
X151526000Y-100865440D01*
X151761317Y-100821162D01*
X151977441Y-100682090D01*
X152122431Y-100469890D01*
X152173440Y-100218000D01*
X152173440Y-98918000D01*
X152129162Y-98682683D01*
X151990090Y-98466559D01*
X151777890Y-98321569D01*
X151526000Y-98270560D01*
X150226000Y-98270560D01*
X149990683Y-98314838D01*
X149774559Y-98453910D01*
X149629569Y-98666110D01*
X149578560Y-98918000D01*
X145983079Y-98918000D01*
X147691787Y-97209292D01*
X147691790Y-97209290D01*
X147883633Y-96922175D01*
X147908413Y-96797599D01*
X147951001Y-96583500D01*
X147951000Y-96583495D01*
X147951000Y-93218005D01*
X147951001Y-93218000D01*
X147883633Y-92879325D01*
X147879976Y-92873852D01*
X147691790Y-92592210D01*
X147691787Y-92592208D01*
X146312700Y-91213120D01*
X146312700Y-89909698D01*
X146352643Y-89893194D01*
X146812978Y-89433663D01*
X147062416Y-88832948D01*
X147062984Y-88182505D01*
X146814594Y-87581357D01*
X146355063Y-87121022D01*
X145754348Y-86871584D01*
X145103905Y-86871016D01*
X144502757Y-87119406D01*
X144042422Y-87578937D01*
X143792984Y-88179652D01*
X143792416Y-88830095D01*
X144040806Y-89431243D01*
X144500337Y-89891578D01*
X144542700Y-89909169D01*
X144542700Y-91579695D01*
X144542699Y-91579700D01*
X144598890Y-91862184D01*
X144610067Y-91918375D01*
X144768174Y-92155000D01*
X144801910Y-92205490D01*
X146181000Y-93584579D01*
X146181000Y-95012565D01*
X145961073Y-94792254D01*
X145360547Y-94542894D01*
X144710306Y-94542326D01*
X144109345Y-94790638D01*
X143696500Y-95202764D01*
X143696500Y-87171080D01*
X144638579Y-86229000D01*
X148858420Y-86229000D01*
X150118000Y-87488579D01*
X150118000Y-90313778D01*
X150117683Y-90313838D01*
X149901559Y-90452910D01*
X149756569Y-90665110D01*
X149705560Y-90917000D01*
X149705560Y-92217000D01*
X149749838Y-92452317D01*
X149888910Y-92668441D01*
X150101110Y-92813431D01*
X150353000Y-92864440D01*
X151653000Y-92864440D01*
X151888317Y-92820162D01*
X152104441Y-92681090D01*
X152249431Y-92468890D01*
X152250012Y-92466016D01*
X155283590Y-92466016D01*
X155339271Y-92696611D01*
X155822078Y-92864622D01*
X156332428Y-92835083D01*
X156666729Y-92696611D01*
X156722410Y-92466016D01*
X156003000Y-91746605D01*
X155283590Y-92466016D01*
X152250012Y-92466016D01*
X152300440Y-92217000D01*
X152300440Y-91386078D01*
X154705378Y-91386078D01*
X154734917Y-91896428D01*
X154873389Y-92230729D01*
X155103984Y-92286410D01*
X155823395Y-91567000D01*
X156182605Y-91567000D01*
X156902016Y-92286410D01*
X157132611Y-92230729D01*
X157300622Y-91747922D01*
X157271083Y-91237572D01*
X157132611Y-90903271D01*
X156902016Y-90847590D01*
X156182605Y-91567000D01*
X155823395Y-91567000D01*
X155103984Y-90847590D01*
X154873389Y-90903271D01*
X154705378Y-91386078D01*
X152300440Y-91386078D01*
X152300440Y-90917000D01*
X152256162Y-90681683D01*
X152247347Y-90667984D01*
X155283590Y-90667984D01*
X156003000Y-91387395D01*
X156722410Y-90667984D01*
X156666729Y-90437389D01*
X156183922Y-90269378D01*
X155673572Y-90298917D01*
X155339271Y-90437389D01*
X155283590Y-90667984D01*
X152247347Y-90667984D01*
X152117090Y-90465559D01*
X151904890Y-90320569D01*
X151888000Y-90317149D01*
X151888000Y-87122005D01*
X151888001Y-87122000D01*
X151827279Y-86816739D01*
X151820633Y-86783325D01*
X151628790Y-86496210D01*
X151628787Y-86496208D01*
X149850790Y-84718210D01*
X149705572Y-84621179D01*
X149563675Y-84526367D01*
X149507484Y-84515190D01*
X149225000Y-84458999D01*
X149224995Y-84459000D01*
X144272005Y-84459000D01*
X144272000Y-84458999D01*
X143989516Y-84515190D01*
X143933325Y-84526367D01*
X143646210Y-84718210D01*
X143646208Y-84718213D01*
X142185710Y-86178710D01*
X141993867Y-86465825D01*
X141993867Y-86465826D01*
X141926499Y-86804500D01*
X141926500Y-86804505D01*
X141926500Y-95772421D01*
X141080216Y-96618704D01*
X141080774Y-95980406D01*
X140832462Y-95379445D01*
X140597700Y-95144273D01*
X140597700Y-89871598D01*
X140637643Y-89855094D01*
X141097978Y-89395563D01*
X141347416Y-88794848D01*
X141347984Y-88144405D01*
X141099594Y-87543257D01*
X140640063Y-87082922D01*
X140039348Y-86833484D01*
X139388905Y-86832916D01*
X138787757Y-87081306D01*
X138327422Y-87540837D01*
X138077984Y-88141552D01*
X138077416Y-88791995D01*
X138325806Y-89393143D01*
X138686000Y-89753967D01*
X138686000Y-94849604D01*
X138521345Y-94917638D01*
X138061154Y-95377027D01*
X138043684Y-95419100D01*
X136853479Y-95419100D01*
X136584500Y-95150120D01*
X136584500Y-93980005D01*
X136584501Y-93980000D01*
X136517134Y-93641326D01*
X136428216Y-93508250D01*
X136325290Y-93354210D01*
X136325287Y-93354208D01*
X135690290Y-92719210D01*
X135581471Y-92646500D01*
X135403175Y-92527367D01*
X135346984Y-92516190D01*
X135064500Y-92459999D01*
X135064495Y-92460000D01*
X135048279Y-92460000D01*
X134925090Y-92268559D01*
X134712890Y-92123569D01*
X134461000Y-92072560D01*
X132961000Y-92072560D01*
X132725683Y-92116838D01*
X132509559Y-92255910D01*
X132461866Y-92325711D01*
X132425090Y-92268559D01*
X132212890Y-92123569D01*
X131961000Y-92072560D01*
X130461000Y-92072560D01*
X130225683Y-92116838D01*
X130009559Y-92255910D01*
X129864569Y-92468110D01*
X129813560Y-92720000D01*
X129813560Y-93970000D01*
X129857838Y-94205317D01*
X129996910Y-94421441D01*
X130209110Y-94566431D01*
X130220000Y-94568636D01*
X130220000Y-95021838D01*
X130214683Y-95022838D01*
X130147607Y-95066000D01*
X129915594Y-95066000D01*
X129766756Y-95004197D01*
X129315225Y-95003803D01*
X128897914Y-95176233D01*
X128578355Y-95495235D01*
X128405197Y-95912244D01*
X128404803Y-96363775D01*
X128577233Y-96781086D01*
X128761825Y-96966000D01*
X127862169Y-96966000D01*
X127599922Y-96331314D01*
X127064505Y-95794961D01*
X126364590Y-95504332D01*
X125606735Y-95503670D01*
X124906314Y-95793078D01*
X124369961Y-96328495D01*
X124079332Y-97028410D01*
X124078748Y-97696417D01*
X120566908Y-99874647D01*
X120502917Y-99934444D01*
X120430099Y-99983099D01*
X120395607Y-100034721D01*
X120350244Y-100077110D01*
X120314008Y-100156842D01*
X120265352Y-100229661D01*
X120253240Y-100290553D01*
X120227552Y-100347075D01*
X120224586Y-100434602D01*
X120207500Y-100520500D01*
X120207500Y-113601500D01*
X120265352Y-113892339D01*
X120430099Y-114138901D01*
X122436052Y-116144854D01*
X122435803Y-116429775D01*
X122608233Y-116847086D01*
X122927235Y-117166645D01*
X123344244Y-117339803D01*
X123795775Y-117340197D01*
X124213086Y-117167767D01*
X124532645Y-116848765D01*
X124705803Y-116431756D01*
X124706197Y-115980225D01*
X124533767Y-115562914D01*
X124214765Y-115243355D01*
X123797756Y-115070197D01*
X123510749Y-115069947D01*
X121727500Y-113286698D01*
X121727500Y-102774750D01*
X124079000Y-102774750D01*
X124079000Y-103885309D01*
X124175673Y-104118698D01*
X124354301Y-104297327D01*
X124587690Y-104394000D01*
X125698250Y-104394000D01*
X125857000Y-104235250D01*
X125857000Y-102616000D01*
X126111000Y-102616000D01*
X126111000Y-104235250D01*
X126269750Y-104394000D01*
X127380310Y-104394000D01*
X127613699Y-104297327D01*
X127792327Y-104118698D01*
X127889000Y-103885309D01*
X127889000Y-103133490D01*
X128933700Y-103133490D01*
X128933700Y-103524050D01*
X129092450Y-103682800D01*
X130441700Y-103682800D01*
X130441700Y-102783550D01*
X130282950Y-102624800D01*
X129442391Y-102624800D01*
X129209002Y-102721473D01*
X129030373Y-102900101D01*
X128933700Y-103133490D01*
X127889000Y-103133490D01*
X127889000Y-102774750D01*
X127730250Y-102616000D01*
X126111000Y-102616000D01*
X125857000Y-102616000D01*
X124237750Y-102616000D01*
X124079000Y-102774750D01*
X121727500Y-102774750D01*
X121727500Y-101092691D01*
X124079000Y-101092691D01*
X124079000Y-102203250D01*
X124237750Y-102362000D01*
X125857000Y-102362000D01*
X125857000Y-100742750D01*
X126111000Y-100742750D01*
X126111000Y-102362000D01*
X127730250Y-102362000D01*
X127889000Y-102203250D01*
X127889000Y-101092691D01*
X127792327Y-100859302D01*
X127613699Y-100680673D01*
X127380310Y-100584000D01*
X126269750Y-100584000D01*
X126111000Y-100742750D01*
X125857000Y-100742750D01*
X125698250Y-100584000D01*
X124587690Y-100584000D01*
X124354301Y-100680673D01*
X124175673Y-100859302D01*
X124079000Y-101092691D01*
X121727500Y-101092691D01*
X121727500Y-100943429D01*
X124872958Y-98992449D01*
X124903495Y-99023039D01*
X125603410Y-99313668D01*
X126361265Y-99314330D01*
X127061686Y-99024922D01*
X127351113Y-98736000D01*
X130123046Y-98736000D01*
X130140440Y-98823440D01*
X130162367Y-98933675D01*
X130286531Y-99119500D01*
X130354210Y-99220790D01*
X131104958Y-99971537D01*
X131104960Y-99971540D01*
X131392075Y-100163383D01*
X131440031Y-100172922D01*
X131730750Y-100230751D01*
X131730755Y-100230750D01*
X132696042Y-100230750D01*
X132185458Y-100740443D01*
X131783458Y-101708567D01*
X131782627Y-102661092D01*
X131695009Y-102624800D01*
X130854450Y-102624800D01*
X130695700Y-102783550D01*
X130695700Y-103682800D01*
X132044950Y-103682800D01*
X132130002Y-103597748D01*
X132182853Y-103725658D01*
X132923443Y-104467542D01*
X133891567Y-104869542D01*
X134939834Y-104870457D01*
X135908658Y-104470147D01*
X136650542Y-103729557D01*
X137052542Y-102761433D01*
X137053457Y-101713166D01*
X136653147Y-100744342D01*
X136140451Y-100230750D01*
X138208949Y-100230750D01*
X138061154Y-100378287D01*
X137811794Y-100978813D01*
X137811226Y-101629054D01*
X138059538Y-102230015D01*
X138518927Y-102690206D01*
X139119453Y-102939566D01*
X139769694Y-102940134D01*
X140370655Y-102691822D01*
X140830846Y-102232433D01*
X140974000Y-101887680D01*
X140974000Y-106694421D01*
X139645800Y-108022620D01*
X139544090Y-107864559D01*
X139331890Y-107719569D01*
X139080000Y-107668560D01*
X138917615Y-107668560D01*
X139093729Y-107595611D01*
X139149410Y-107365016D01*
X138430000Y-106645605D01*
X137710590Y-107365016D01*
X137766271Y-107595611D01*
X137975902Y-107668560D01*
X137780000Y-107668560D01*
X137544683Y-107712838D01*
X137328559Y-107851910D01*
X137183569Y-108064110D01*
X137132560Y-108316000D01*
X137132560Y-109616000D01*
X137176838Y-109851317D01*
X137315910Y-110067441D01*
X137528110Y-110212431D01*
X137780000Y-110263440D01*
X139080000Y-110263440D01*
X139315317Y-110219162D01*
X139531441Y-110080090D01*
X139676431Y-109867890D01*
X139679851Y-109851000D01*
X139953995Y-109851000D01*
X139954000Y-109851001D01*
X139954005Y-109851000D01*
X144990879Y-109851000D01*
X145148110Y-109958431D01*
X145400000Y-110009440D01*
X146700000Y-110009440D01*
X146935317Y-109965162D01*
X147151441Y-109826090D01*
X147296431Y-109613890D01*
X147325164Y-109472000D01*
X148907500Y-109472000D01*
X149198339Y-109414148D01*
X149444901Y-109249401D01*
X150619302Y-108075000D01*
X151197258Y-108075000D01*
X151220838Y-108200317D01*
X151359910Y-108416441D01*
X151419159Y-108456924D01*
X151372559Y-108486910D01*
X151227569Y-108699110D01*
X151176560Y-108951000D01*
X151176560Y-109923638D01*
X150735198Y-110365000D01*
X135823802Y-110365000D01*
X132744401Y-107285599D01*
X132497839Y-107120852D01*
X132207000Y-107063000D01*
X132176626Y-107063000D01*
X132171862Y-107037683D01*
X132032790Y-106821559D01*
X132028327Y-106818510D01*
X132165131Y-106618290D01*
X132216140Y-106366400D01*
X132216140Y-106285078D01*
X137132378Y-106285078D01*
X137161917Y-106795428D01*
X137300389Y-107129729D01*
X137530984Y-107185410D01*
X138250395Y-106466000D01*
X138609605Y-106466000D01*
X139329016Y-107185410D01*
X139559611Y-107129729D01*
X139727622Y-106646922D01*
X139698083Y-106136572D01*
X139559611Y-105802271D01*
X139329016Y-105746590D01*
X138609605Y-106466000D01*
X138250395Y-106466000D01*
X137530984Y-105746590D01*
X137300389Y-105802271D01*
X137132378Y-106285078D01*
X132216140Y-106285078D01*
X132216140Y-105566984D01*
X137710590Y-105566984D01*
X138430000Y-106286395D01*
X139149410Y-105566984D01*
X139093729Y-105336389D01*
X138610922Y-105168378D01*
X138100572Y-105197917D01*
X137766271Y-105336389D01*
X137710590Y-105566984D01*
X132216140Y-105566984D01*
X132216140Y-105266400D01*
X132171862Y-105031083D01*
X132032790Y-104814959D01*
X132020182Y-104806344D01*
X132107027Y-104719499D01*
X132203700Y-104486110D01*
X132203700Y-104095550D01*
X132044950Y-103936800D01*
X130695700Y-103936800D01*
X130695700Y-103956800D01*
X130441700Y-103956800D01*
X130441700Y-103936800D01*
X129092450Y-103936800D01*
X128933700Y-104095550D01*
X128933700Y-104486110D01*
X129030373Y-104719499D01*
X129115605Y-104804731D01*
X128972269Y-105014510D01*
X128921260Y-105266400D01*
X128921260Y-106366400D01*
X128965538Y-106601717D01*
X129104610Y-106817841D01*
X129109073Y-106820890D01*
X128972269Y-107021110D01*
X128921260Y-107273000D01*
X128921260Y-108373000D01*
X128965538Y-108608317D01*
X129099368Y-108816295D01*
X128972269Y-109002310D01*
X128921260Y-109254200D01*
X128921260Y-110354200D01*
X128965538Y-110589517D01*
X129104610Y-110805641D01*
X129316810Y-110950631D01*
X129568700Y-111001640D01*
X131568700Y-111001640D01*
X131804017Y-110957362D01*
X132020141Y-110818290D01*
X132165131Y-110606090D01*
X132216140Y-110354200D01*
X132216140Y-109254200D01*
X132171862Y-109018883D01*
X132038032Y-108810905D01*
X132071346Y-108762148D01*
X134971599Y-111662401D01*
X135218160Y-111827148D01*
X135509000Y-111885000D01*
X151016683Y-111885000D01*
X150990560Y-112014000D01*
X150990560Y-112270000D01*
X150495000Y-112270000D01*
X150204161Y-112327852D01*
X149957599Y-112492599D01*
X149195599Y-113254599D01*
X149030852Y-113501161D01*
X148973000Y-113792000D01*
X148973000Y-118491000D01*
X149030852Y-118781839D01*
X149195599Y-119028401D01*
X149703599Y-119536401D01*
X149950161Y-119701148D01*
X150241000Y-119759000D01*
X177036000Y-119759000D01*
X177326839Y-119701148D01*
X177573401Y-119536401D01*
X177955401Y-119154401D01*
X178120148Y-118907839D01*
X178178000Y-118617000D01*
X178178000Y-116915073D01*
X178217839Y-116907148D01*
X178249399Y-116886060D01*
X178366167Y-116886162D01*
X178709943Y-116744117D01*
X178724421Y-116729664D01*
X178880599Y-116963401D01*
X179548599Y-117631401D01*
X179795161Y-117796148D01*
X180086000Y-117854000D01*
X182057198Y-117854000D01*
X182071878Y-117868680D01*
X182071838Y-117914167D01*
X182213883Y-118257943D01*
X182476673Y-118521192D01*
X182820201Y-118663838D01*
X183192167Y-118664162D01*
X183535943Y-118522117D01*
X183799192Y-118259327D01*
X183839633Y-118161934D01*
X200475643Y-118161934D01*
X200875953Y-119130758D01*
X201616543Y-119872642D01*
X202584667Y-120274642D01*
X203632934Y-120275557D01*
X204601758Y-119875247D01*
X205343642Y-119134657D01*
X205745642Y-118166533D01*
X205746557Y-117118266D01*
X205413808Y-116312950D01*
X208435700Y-116312950D01*
X208435700Y-116803510D01*
X208532373Y-117036899D01*
X208711002Y-117215527D01*
X208944391Y-117312200D01*
X209784950Y-117312200D01*
X209943700Y-117153450D01*
X209943700Y-116154200D01*
X210197700Y-116154200D01*
X210197700Y-117153450D01*
X210356450Y-117312200D01*
X211197009Y-117312200D01*
X211430398Y-117215527D01*
X211609027Y-117036899D01*
X211705700Y-116803510D01*
X211705700Y-116312950D01*
X211546950Y-116154200D01*
X210197700Y-116154200D01*
X209943700Y-116154200D01*
X208594450Y-116154200D01*
X208435700Y-116312950D01*
X205413808Y-116312950D01*
X205346247Y-116149442D01*
X204605657Y-115407558D01*
X203637533Y-115005558D01*
X202589266Y-115004643D01*
X201620442Y-115404953D01*
X200878558Y-116145543D01*
X200476558Y-117113667D01*
X200475643Y-118161934D01*
X183839633Y-118161934D01*
X183941838Y-117915799D01*
X183942162Y-117543833D01*
X183800117Y-117200057D01*
X183537327Y-116936808D01*
X183193799Y-116794162D01*
X183146923Y-116794121D01*
X182909401Y-116556599D01*
X182662839Y-116391852D01*
X182372000Y-116334000D01*
X180400802Y-116334000D01*
X180178000Y-116111198D01*
X180178000Y-114412000D01*
X193843660Y-114412000D01*
X193843660Y-115712000D01*
X193887938Y-115947317D01*
X194027010Y-116163441D01*
X194239210Y-116308431D01*
X194491100Y-116359440D01*
X196491100Y-116359440D01*
X196726417Y-116315162D01*
X196942541Y-116176090D01*
X197087531Y-115963890D01*
X197138540Y-115712000D01*
X197138540Y-114412000D01*
X197094262Y-114176683D01*
X197045078Y-114100248D01*
X197080227Y-114065099D01*
X197176900Y-113831710D01*
X197176900Y-113341150D01*
X197018150Y-113182400D01*
X195668900Y-113182400D01*
X195668900Y-113202400D01*
X195414900Y-113202400D01*
X195414900Y-113182400D01*
X194065650Y-113182400D01*
X193906900Y-113341150D01*
X193906900Y-113831710D01*
X193986972Y-114025020D01*
X193894669Y-114160110D01*
X193843660Y-114412000D01*
X180178000Y-114412000D01*
X180178000Y-110718926D01*
X180203317Y-110714162D01*
X180419441Y-110575090D01*
X180420390Y-110573701D01*
X180616110Y-110707431D01*
X180868000Y-110758440D01*
X181968000Y-110758440D01*
X182203317Y-110714162D01*
X182419441Y-110575090D01*
X182425377Y-110566402D01*
X182508301Y-110649327D01*
X182741690Y-110746000D01*
X183132250Y-110746000D01*
X183291000Y-110587250D01*
X183291000Y-108488000D01*
X183545000Y-108488000D01*
X183545000Y-110587250D01*
X183703750Y-110746000D01*
X184094310Y-110746000D01*
X184327699Y-110649327D01*
X184506327Y-110470698D01*
X184603000Y-110237309D01*
X184603000Y-108646750D01*
X184444250Y-108488000D01*
X183545000Y-108488000D01*
X183291000Y-108488000D01*
X183271000Y-108488000D01*
X183271000Y-108234000D01*
X183291000Y-108234000D01*
X183291000Y-108214000D01*
X183545000Y-108214000D01*
X183545000Y-108234000D01*
X184444250Y-108234000D01*
X184603000Y-108075250D01*
X184603000Y-107445802D01*
X186882500Y-109725302D01*
X186882500Y-109991037D01*
X186850308Y-110023173D01*
X186707662Y-110366701D01*
X186707338Y-110738667D01*
X186849383Y-111082443D01*
X187112173Y-111345692D01*
X187455701Y-111488338D01*
X187827667Y-111488662D01*
X188171443Y-111346617D01*
X188434692Y-111083827D01*
X188577338Y-110740299D01*
X188577662Y-110368333D01*
X188435617Y-110024557D01*
X188402500Y-109991382D01*
X188402500Y-109721302D01*
X188565599Y-109884401D01*
X188812160Y-110049148D01*
X188963560Y-110079264D01*
X188963560Y-110210600D01*
X189007838Y-110445917D01*
X189146910Y-110662041D01*
X189359110Y-110807031D01*
X189611000Y-110858040D01*
X191643000Y-110858040D01*
X191878317Y-110813762D01*
X192094441Y-110674690D01*
X192096131Y-110672216D01*
X192248599Y-110900401D01*
X192934399Y-111586201D01*
X193180961Y-111750948D01*
X193471800Y-111808800D01*
X193915158Y-111808800D01*
X193938738Y-111934117D01*
X194007812Y-112041462D01*
X194003573Y-112045701D01*
X193906900Y-112279090D01*
X193906900Y-112769650D01*
X194065650Y-112928400D01*
X195414900Y-112928400D01*
X195414900Y-112908400D01*
X195668900Y-112908400D01*
X195668900Y-112928400D01*
X197018150Y-112928400D01*
X197176900Y-112769650D01*
X197176900Y-112279090D01*
X197080227Y-112045701D01*
X197076179Y-112041653D01*
X197138331Y-111950690D01*
X197189340Y-111698800D01*
X197189340Y-110398800D01*
X197145062Y-110163483D01*
X197005990Y-109947359D01*
X196793790Y-109802369D01*
X196541900Y-109751360D01*
X194541900Y-109751360D01*
X194306583Y-109795638D01*
X194090459Y-109934710D01*
X193945469Y-110146910D01*
X193916736Y-110288800D01*
X193786602Y-110288800D01*
X193546000Y-110048198D01*
X193546000Y-109017934D01*
X200437543Y-109017934D01*
X200837853Y-109986758D01*
X201578443Y-110728642D01*
X202546567Y-111130642D01*
X203594834Y-111131557D01*
X204563658Y-110731247D01*
X205305542Y-109990657D01*
X205557946Y-109382800D01*
X208423260Y-109382800D01*
X208423260Y-110682800D01*
X208467538Y-110918117D01*
X208543507Y-111036176D01*
X208474269Y-111137510D01*
X208423260Y-111389400D01*
X208423260Y-112689400D01*
X208467538Y-112924717D01*
X208543507Y-113042776D01*
X208474269Y-113144110D01*
X208423260Y-113396000D01*
X208423260Y-114696000D01*
X208467538Y-114931317D01*
X208528701Y-115026367D01*
X208435700Y-115250890D01*
X208435700Y-115741450D01*
X208594450Y-115900200D01*
X209943700Y-115900200D01*
X209943700Y-115880200D01*
X210197700Y-115880200D01*
X210197700Y-115900200D01*
X211546950Y-115900200D01*
X211705700Y-115741450D01*
X211705700Y-115250890D01*
X211613005Y-115027106D01*
X211667131Y-114947890D01*
X211718140Y-114696000D01*
X211718140Y-113396000D01*
X211673862Y-113160683D01*
X211597893Y-113042624D01*
X211667131Y-112941290D01*
X211718140Y-112689400D01*
X211718140Y-111389400D01*
X211673862Y-111154083D01*
X211597893Y-111036024D01*
X211667131Y-110934690D01*
X211718140Y-110682800D01*
X211718140Y-109382800D01*
X211673862Y-109147483D01*
X211534790Y-108931359D01*
X211322590Y-108786369D01*
X211070700Y-108735360D01*
X209070700Y-108735360D01*
X208835383Y-108779638D01*
X208619259Y-108918710D01*
X208474269Y-109130910D01*
X208423260Y-109382800D01*
X205557946Y-109382800D01*
X205707542Y-109022533D01*
X205708457Y-107974266D01*
X205308147Y-107005442D01*
X204567557Y-106263558D01*
X203599433Y-105861558D01*
X202551166Y-105860643D01*
X201582342Y-106260953D01*
X200840458Y-107001543D01*
X200438458Y-107969667D01*
X200437543Y-109017934D01*
X193546000Y-109017934D01*
X193546000Y-105410000D01*
X193488148Y-105119161D01*
X193323401Y-104872599D01*
X192209172Y-103758370D01*
X192196271Y-103693511D01*
X191871415Y-103207330D01*
X191556634Y-102997000D01*
X191871415Y-102786670D01*
X191976209Y-102629834D01*
X193591043Y-102629834D01*
X193991353Y-103598658D01*
X194731943Y-104340542D01*
X195700067Y-104742542D01*
X196748334Y-104743457D01*
X197717158Y-104343147D01*
X198459042Y-103602557D01*
X198861042Y-102634433D01*
X198861957Y-101586166D01*
X198461647Y-100617342D01*
X197721057Y-99875458D01*
X196752933Y-99473458D01*
X195704666Y-99472543D01*
X194735842Y-99872853D01*
X193993958Y-100613443D01*
X193591958Y-101581567D01*
X193591043Y-102629834D01*
X191976209Y-102629834D01*
X192196271Y-102300489D01*
X192310345Y-101727000D01*
X192196271Y-101153511D01*
X191871415Y-100667330D01*
X191556634Y-100457000D01*
X191871415Y-100246670D01*
X192196271Y-99760489D01*
X192310345Y-99187000D01*
X192196271Y-98613511D01*
X191871415Y-98127330D01*
X191556634Y-97917000D01*
X191871415Y-97706670D01*
X192196271Y-97220489D01*
X192310345Y-96647000D01*
X192196271Y-96073511D01*
X192141435Y-95991443D01*
X192177660Y-96015648D01*
X192468500Y-96073500D01*
X195233842Y-96073500D01*
X195276238Y-96298817D01*
X195415310Y-96514941D01*
X195627510Y-96659931D01*
X195879400Y-96710940D01*
X198379400Y-96710940D01*
X198614717Y-96666662D01*
X198830841Y-96527590D01*
X198975831Y-96315390D01*
X199026840Y-96063500D01*
X199026840Y-94563500D01*
X198982562Y-94328183D01*
X198843490Y-94112059D01*
X198829866Y-94102750D01*
X201727000Y-94102750D01*
X201727000Y-95743309D01*
X201823673Y-95976698D01*
X202002301Y-96155327D01*
X202235690Y-96252000D01*
X203676250Y-96252000D01*
X203835000Y-96093250D01*
X203835000Y-93944000D01*
X204089000Y-93944000D01*
X204089000Y-96093250D01*
X204247750Y-96252000D01*
X205688310Y-96252000D01*
X205921699Y-96155327D01*
X206100327Y-95976698D01*
X206197000Y-95743309D01*
X206197000Y-94102750D01*
X206038250Y-93944000D01*
X204089000Y-93944000D01*
X203835000Y-93944000D01*
X201885750Y-93944000D01*
X201727000Y-94102750D01*
X198829866Y-94102750D01*
X198631290Y-93967069D01*
X198384656Y-93917124D01*
X198698545Y-93663040D01*
X198957573Y-93186184D01*
X198971718Y-93114685D01*
X198849056Y-92900500D01*
X197256400Y-92900500D01*
X197256400Y-92920500D01*
X197002400Y-92920500D01*
X197002400Y-92900500D01*
X196982400Y-92900500D01*
X196982400Y-92646500D01*
X197002400Y-92646500D01*
X197002400Y-92626500D01*
X197256400Y-92626500D01*
X197256400Y-92646500D01*
X198849056Y-92646500D01*
X198971718Y-92432315D01*
X198957573Y-92360816D01*
X198702202Y-91890691D01*
X201727000Y-91890691D01*
X201727000Y-93531250D01*
X201885750Y-93690000D01*
X203835000Y-93690000D01*
X203835000Y-91540750D01*
X203676250Y-91382000D01*
X202235690Y-91382000D01*
X202002301Y-91478673D01*
X201823673Y-91657302D01*
X201727000Y-91890691D01*
X198702202Y-91890691D01*
X198698545Y-91883960D01*
X198276749Y-91542528D01*
X198184920Y-91515346D01*
X198196346Y-91513073D01*
X198645672Y-91212843D01*
X198792232Y-90993500D01*
X200542148Y-90993500D01*
X200637673Y-91089192D01*
X200981201Y-91231838D01*
X201353167Y-91232162D01*
X201696943Y-91090117D01*
X201960192Y-90827327D01*
X202102838Y-90483799D01*
X202102908Y-90403870D01*
X202184000Y-90420001D01*
X202184005Y-90420000D01*
X204357420Y-90420000D01*
X205319420Y-91382000D01*
X204247750Y-91382000D01*
X204089000Y-91540750D01*
X204089000Y-93690000D01*
X206038250Y-93690000D01*
X206197000Y-93531250D01*
X206197000Y-92259579D01*
X206379000Y-92441579D01*
X206379000Y-99963421D01*
X206196134Y-100146286D01*
X206165162Y-99981683D01*
X206026090Y-99765559D01*
X205813890Y-99620569D01*
X205562000Y-99569560D01*
X202362000Y-99569560D01*
X202126683Y-99613838D01*
X201910559Y-99752910D01*
X201765569Y-99965110D01*
X201714560Y-100217000D01*
X201714560Y-103817000D01*
X201758838Y-104052317D01*
X201897910Y-104268441D01*
X202110110Y-104413431D01*
X202362000Y-104464440D01*
X205562000Y-104464440D01*
X205797317Y-104420162D01*
X206013441Y-104281090D01*
X206158431Y-104068890D01*
X206209440Y-103817000D01*
X206209440Y-102636140D01*
X207889787Y-100955792D01*
X207889790Y-100955790D01*
X208081633Y-100668675D01*
X208091844Y-100617342D01*
X208149001Y-100330000D01*
X208149000Y-100329995D01*
X208149000Y-92075000D01*
X208081633Y-91736325D01*
X207889790Y-91449210D01*
X207889787Y-91449208D01*
X205349790Y-88909210D01*
X205305852Y-88879852D01*
X205062675Y-88717367D01*
X205006484Y-88706190D01*
X204724000Y-88649999D01*
X204723995Y-88650000D01*
X202550579Y-88650000D01*
X202180000Y-88279420D01*
X202180000Y-81849619D01*
X204520613Y-81849619D01*
X204860155Y-82671372D01*
X204865232Y-82676458D01*
X204862364Y-82679321D01*
X204521389Y-83500481D01*
X204520613Y-84389619D01*
X204810298Y-85090710D01*
X204521389Y-85786481D01*
X204520613Y-86675619D01*
X204860155Y-87497372D01*
X205488321Y-88126636D01*
X206309481Y-88467611D01*
X207198619Y-88468387D01*
X208020372Y-88128845D01*
X208649636Y-87500679D01*
X208990611Y-86679519D01*
X208991387Y-85790381D01*
X208701702Y-85089290D01*
X208990611Y-84393519D01*
X208991387Y-83504381D01*
X208651845Y-82682628D01*
X208646768Y-82677542D01*
X208649636Y-82674679D01*
X208990611Y-81853519D01*
X208991387Y-80964381D01*
X208651845Y-80142628D01*
X208023679Y-79513364D01*
X207202519Y-79172389D01*
X206313381Y-79171613D01*
X205491628Y-79511155D01*
X204862364Y-80139321D01*
X204521389Y-80960481D01*
X204520613Y-81849619D01*
X202180000Y-81849619D01*
X202180000Y-75438000D01*
X202112633Y-75099325D01*
X201920790Y-74812210D01*
X201920787Y-74812208D01*
X199625580Y-72517000D01*
X217170000Y-72517000D01*
X217170000Y-120321000D01*
X156022052Y-120321000D01*
X113994000Y-120269558D01*
X113994000Y-99284775D01*
X114688803Y-99284775D01*
X114861233Y-99702086D01*
X115064000Y-99905207D01*
X115064000Y-104183941D01*
X114862355Y-104385235D01*
X114689197Y-104802244D01*
X114688803Y-105253775D01*
X114861233Y-105671086D01*
X115180235Y-105990645D01*
X115597244Y-106163803D01*
X116048775Y-106164197D01*
X116466086Y-105991767D01*
X116785645Y-105672765D01*
X116958803Y-105255756D01*
X116959197Y-104804225D01*
X116786767Y-104386914D01*
X116584000Y-104183793D01*
X116584000Y-99905059D01*
X116785645Y-99703765D01*
X116958803Y-99286756D01*
X116959197Y-98835225D01*
X116786767Y-98417914D01*
X116467765Y-98098355D01*
X116050756Y-97925197D01*
X115599225Y-97924803D01*
X115181914Y-98097233D01*
X114862355Y-98416235D01*
X114689197Y-98833244D01*
X114688803Y-99284775D01*
X113994000Y-99284775D01*
X113994000Y-81976619D01*
X122097613Y-81976619D01*
X122437155Y-82798372D01*
X122442232Y-82803458D01*
X122439364Y-82806321D01*
X122098389Y-83627481D01*
X122097613Y-84516619D01*
X122387298Y-85217710D01*
X122098389Y-85913481D01*
X122097613Y-86802619D01*
X122437155Y-87624372D01*
X123065321Y-88253636D01*
X123886481Y-88594611D01*
X124775619Y-88595387D01*
X125597372Y-88255845D01*
X126226636Y-87627679D01*
X126567611Y-86806519D01*
X126568387Y-85917381D01*
X126278702Y-85216290D01*
X126567611Y-84520519D01*
X126568387Y-83631381D01*
X126228845Y-82809628D01*
X126223768Y-82804542D01*
X126226636Y-82801679D01*
X126567611Y-81980519D01*
X126568387Y-81091381D01*
X126228845Y-80269628D01*
X125969671Y-80010000D01*
X127094655Y-80010000D01*
X127208729Y-80583489D01*
X127533585Y-81069670D01*
X127848366Y-81280000D01*
X127533585Y-81490330D01*
X127208729Y-81976511D01*
X127094655Y-82550000D01*
X127208729Y-83123489D01*
X127533585Y-83609670D01*
X127848366Y-83820000D01*
X127533585Y-84030330D01*
X127208729Y-84516511D01*
X127094655Y-85090000D01*
X127208729Y-85663489D01*
X127533585Y-86149670D01*
X127848366Y-86360000D01*
X127533585Y-86570330D01*
X127208729Y-87056511D01*
X127094655Y-87630000D01*
X127208729Y-88203489D01*
X127533585Y-88689670D01*
X127547913Y-88699243D01*
X127526683Y-88703238D01*
X127310559Y-88842310D01*
X127165569Y-89054510D01*
X127114560Y-89306400D01*
X127114560Y-91033600D01*
X127158838Y-91268917D01*
X127297910Y-91485041D01*
X127510110Y-91630031D01*
X127762000Y-91681040D01*
X129794000Y-91681040D01*
X130029317Y-91636762D01*
X130245441Y-91497690D01*
X130390431Y-91285490D01*
X130441440Y-91033600D01*
X130441440Y-90998580D01*
X131627820Y-90998580D01*
X131627820Y-91138580D01*
X131672098Y-91373897D01*
X131811170Y-91590021D01*
X132023370Y-91735011D01*
X132275260Y-91786020D01*
X134775260Y-91786020D01*
X135010577Y-91741742D01*
X135226701Y-91602670D01*
X135371691Y-91390470D01*
X135422700Y-91138580D01*
X135422700Y-89338580D01*
X135378422Y-89103263D01*
X135239350Y-88887139D01*
X135027150Y-88742149D01*
X134964422Y-88729446D01*
X135041532Y-88677923D01*
X135341762Y-88228597D01*
X135447189Y-87698580D01*
X135341762Y-87168563D01*
X135041532Y-86719237D01*
X134606533Y-86428580D01*
X135041532Y-86137923D01*
X135341762Y-85688597D01*
X135447189Y-85158580D01*
X135341762Y-84628563D01*
X135041532Y-84179237D01*
X134606533Y-83888580D01*
X135041532Y-83597923D01*
X135341762Y-83148597D01*
X135447189Y-82618580D01*
X135341762Y-82088563D01*
X135041532Y-81639237D01*
X134606533Y-81348580D01*
X135041532Y-81057923D01*
X135341762Y-80608597D01*
X135447189Y-80078580D01*
X135341762Y-79548563D01*
X135041532Y-79099237D01*
X134592206Y-78799007D01*
X134062189Y-78693580D01*
X132988331Y-78693580D01*
X132458314Y-78799007D01*
X132008988Y-79099237D01*
X131862428Y-79318580D01*
X130268472Y-79318580D01*
X130022415Y-78950330D01*
X129536234Y-78625474D01*
X128962745Y-78511400D01*
X128593255Y-78511400D01*
X128019766Y-78625474D01*
X127533585Y-78950330D01*
X127208729Y-79436511D01*
X127094655Y-80010000D01*
X125969671Y-80010000D01*
X125600679Y-79640364D01*
X124779519Y-79299389D01*
X123890381Y-79298613D01*
X123068628Y-79638155D01*
X122439364Y-80266321D01*
X122098389Y-81087481D01*
X122097613Y-81976619D01*
X113994000Y-81976619D01*
X113994000Y-72898000D01*
X125844560Y-72898000D01*
X125844560Y-75438000D01*
X125888838Y-75673317D01*
X126027910Y-75889441D01*
X126240110Y-76034431D01*
X126492000Y-76085440D01*
X129032000Y-76085440D01*
X129267317Y-76041162D01*
X129483441Y-75902090D01*
X129628431Y-75689890D01*
X129679440Y-75438000D01*
X129679440Y-75053000D01*
X142640743Y-75053000D01*
X141946200Y-75339980D01*
X141345091Y-75940041D01*
X141019372Y-76724459D01*
X141018630Y-77573815D01*
X141342980Y-78358800D01*
X141943041Y-78959909D01*
X142727459Y-79285628D01*
X143576815Y-79286370D01*
X144361800Y-78962020D01*
X144962909Y-78361959D01*
X145288628Y-77577541D01*
X145289370Y-76728185D01*
X144965020Y-75943200D01*
X144364959Y-75342091D01*
X143668751Y-75053000D01*
X152004420Y-75053000D01*
X153043451Y-76092030D01*
X152814441Y-76643546D01*
X152813560Y-77654021D01*
X153199437Y-78587915D01*
X153913327Y-79303052D01*
X154846546Y-79690559D01*
X155857021Y-79691440D01*
X156790915Y-79305563D01*
X157506052Y-78591673D01*
X157893559Y-77658454D01*
X157894440Y-76647979D01*
X157508563Y-75714085D01*
X156794673Y-74998948D01*
X155861454Y-74611441D01*
X154850979Y-74610560D01*
X154294905Y-74840325D01*
X152996790Y-73542210D01*
X152969222Y-73523790D01*
X152709675Y-73350367D01*
X152653484Y-73339190D01*
X152371000Y-73282999D01*
X152370995Y-73283000D01*
X142613517Y-73283000D01*
X143306052Y-72591673D01*
X143693559Y-71658454D01*
X143694440Y-70647979D01*
X143308563Y-69714085D01*
X142594673Y-68998948D01*
X141661454Y-68611441D01*
X140650979Y-68610560D01*
X139717085Y-68996437D01*
X139001948Y-69710327D01*
X138771212Y-70266000D01*
X136542024Y-70266000D01*
X137158542Y-69650557D01*
X137560542Y-68682433D01*
X137561457Y-67634166D01*
X137161147Y-66665342D01*
X136420557Y-65923458D01*
X135452433Y-65521458D01*
X134404166Y-65520543D01*
X133435342Y-65920853D01*
X132693458Y-66661443D01*
X132291458Y-67629567D01*
X132290543Y-68677834D01*
X132690853Y-69646658D01*
X133309115Y-70266000D01*
X130064579Y-70266000D01*
X129549454Y-69750874D01*
X129666668Y-69468590D01*
X129667330Y-68710735D01*
X129377922Y-68010314D01*
X128842505Y-67473961D01*
X128142590Y-67183332D01*
X127384735Y-67182670D01*
X126684314Y-67472078D01*
X126147961Y-68007495D01*
X125857332Y-68707410D01*
X125856670Y-69465265D01*
X126146078Y-70165686D01*
X126681495Y-70702039D01*
X127381410Y-70992668D01*
X128139265Y-70993330D01*
X128245044Y-70949623D01*
X129072208Y-71776787D01*
X129072210Y-71776790D01*
X129359325Y-71968633D01*
X129698000Y-72036000D01*
X138771390Y-72036000D01*
X138999437Y-72587915D01*
X139693310Y-73283000D01*
X129679440Y-73283000D01*
X129679440Y-72898000D01*
X129635162Y-72662683D01*
X129496090Y-72446559D01*
X129283890Y-72301569D01*
X129032000Y-72250560D01*
X126492000Y-72250560D01*
X126256683Y-72294838D01*
X126040559Y-72433910D01*
X125895569Y-72646110D01*
X125844560Y-72898000D01*
X113994000Y-72898000D01*
X113994000Y-64385265D01*
X125856670Y-64385265D01*
X126146078Y-65085686D01*
X126681495Y-65622039D01*
X127381410Y-65912668D01*
X128139265Y-65913330D01*
X128839686Y-65623922D01*
X129376039Y-65088505D01*
X129457219Y-64893000D01*
X135381995Y-64893000D01*
X135382000Y-64893001D01*
X135664484Y-64836810D01*
X135720675Y-64825633D01*
X136007790Y-64633790D01*
X136990579Y-63651000D01*
X141006560Y-63651000D01*
X141006560Y-66651000D01*
X141050838Y-66886317D01*
X141189910Y-67102441D01*
X141402110Y-67247431D01*
X141654000Y-67298440D01*
X144654000Y-67298440D01*
X144889317Y-67254162D01*
X145105441Y-67115090D01*
X145250431Y-66902890D01*
X145301440Y-66651000D01*
X145301440Y-63651000D01*
X145257162Y-63415683D01*
X145118090Y-63199559D01*
X144905890Y-63054569D01*
X144654000Y-63003560D01*
X141654000Y-63003560D01*
X141418683Y-63047838D01*
X141202559Y-63186910D01*
X141057569Y-63399110D01*
X141006560Y-63651000D01*
X136990579Y-63651000D01*
X137780579Y-62861000D01*
X151779420Y-62861000D01*
X152920713Y-64002293D01*
X152654441Y-64643546D01*
X152653560Y-65654021D01*
X153039437Y-66587915D01*
X153753327Y-67303052D01*
X154686546Y-67690559D01*
X155697021Y-67691440D01*
X156630915Y-67305563D01*
X157346052Y-66591673D01*
X157733559Y-65658454D01*
X157734440Y-64647979D01*
X157348563Y-63714085D01*
X156634673Y-62998948D01*
X155701454Y-62611441D01*
X154690979Y-62610560D01*
X154404507Y-62728928D01*
X153279790Y-61604210D01*
X152992674Y-61412367D01*
X152794533Y-61372953D01*
X152771790Y-61350210D01*
X152763991Y-61344999D01*
X152484675Y-61158367D01*
X152428484Y-61147190D01*
X152146000Y-61090999D01*
X152145995Y-61091000D01*
X137414005Y-61091000D01*
X137414000Y-61090999D01*
X137131516Y-61147190D01*
X137075325Y-61158367D01*
X136788210Y-61350210D01*
X136788208Y-61350213D01*
X135015420Y-63123000D01*
X129457538Y-63123000D01*
X129377922Y-62930314D01*
X128842505Y-62393961D01*
X128142590Y-62103332D01*
X127384735Y-62102670D01*
X126684314Y-62392078D01*
X126147961Y-62927495D01*
X125857332Y-63627410D01*
X125856670Y-64385265D01*
X113994000Y-64385265D01*
X113994000Y-49605000D01*
X161925000Y-49605000D01*
X161925000Y-70866000D01*
G36*
X161387599Y-110968599D02*
X161222852Y-111215161D01*
X161165000Y-111506000D01*
X161165000Y-112982352D01*
X160865330Y-113182585D01*
X160658539Y-113492069D01*
X160287036Y-113076268D01*
X159759791Y-112822291D01*
X159744026Y-112819642D01*
X159512000Y-112940783D01*
X159512000Y-114300000D01*
X159532000Y-114300000D01*
X159532000Y-114554000D01*
X159512000Y-114554000D01*
X159512000Y-115913217D01*
X159744026Y-116034358D01*
X159759791Y-116031709D01*
X160287036Y-115777732D01*
X160658539Y-115361931D01*
X160865330Y-115671415D01*
X161351511Y-115996271D01*
X161925000Y-116110345D01*
X162498489Y-115996271D01*
X162984670Y-115671415D01*
X163195000Y-115356634D01*
X163405330Y-115671415D01*
X163891511Y-115996271D01*
X164465000Y-116110345D01*
X165038489Y-115996271D01*
X165524670Y-115671415D01*
X165735000Y-115356634D01*
X165945330Y-115671415D01*
X166431511Y-115996271D01*
X167005000Y-116110345D01*
X167578489Y-115996271D01*
X168064670Y-115671415D01*
X168275000Y-115356634D01*
X168485330Y-115671415D01*
X168971511Y-115996271D01*
X169545000Y-116110345D01*
X170118489Y-115996271D01*
X170604670Y-115671415D01*
X170614243Y-115657087D01*
X170618238Y-115678317D01*
X170757310Y-115894441D01*
X170969510Y-116039431D01*
X171221400Y-116090440D01*
X172948600Y-116090440D01*
X173183917Y-116046162D01*
X173400041Y-115907090D01*
X173545031Y-115694890D01*
X173596040Y-115443000D01*
X173596040Y-113411000D01*
X173551762Y-113175683D01*
X173412690Y-112959559D01*
X173200490Y-112814569D01*
X172948600Y-112763560D01*
X171221400Y-112763560D01*
X170986083Y-112807838D01*
X170769959Y-112946910D01*
X170624969Y-113159110D01*
X170616600Y-113200439D01*
X170604670Y-113182585D01*
X170118489Y-112857729D01*
X169545000Y-112743655D01*
X168971511Y-112857729D01*
X168485330Y-113182585D01*
X168275000Y-113497366D01*
X168064670Y-113182585D01*
X167578489Y-112857729D01*
X167005000Y-112743655D01*
X166431511Y-112857729D01*
X165945330Y-113182585D01*
X165735000Y-113497366D01*
X165524670Y-113182585D01*
X165225000Y-112982352D01*
X165225000Y-112836802D01*
X165541802Y-112520000D01*
X171069000Y-112520000D01*
X171359839Y-112462148D01*
X171606401Y-112297401D01*
X171955401Y-111948401D01*
X172120148Y-111701839D01*
X172178000Y-111411000D01*
X172178000Y-110718926D01*
X172203317Y-110714162D01*
X172419441Y-110575090D01*
X172420390Y-110573701D01*
X172616110Y-110707431D01*
X172658000Y-110715914D01*
X172658000Y-111442000D01*
X172715852Y-111732839D01*
X172880599Y-111979401D01*
X173992000Y-113090802D01*
X173992000Y-117547537D01*
X173959808Y-117579673D01*
X173817162Y-117923201D01*
X173816887Y-118239000D01*
X155770029Y-118239000D01*
X156058818Y-118119385D01*
X156531188Y-117681379D01*
X156799983Y-117095946D01*
X156681367Y-116840000D01*
X155321000Y-116840000D01*
X155321000Y-116860000D01*
X155067000Y-116860000D01*
X155067000Y-116840000D01*
X155047000Y-116840000D01*
X155047000Y-116586000D01*
X155067000Y-116586000D01*
X155067000Y-116566000D01*
X155321000Y-116566000D01*
X155321000Y-116586000D01*
X156681367Y-116586000D01*
X156799983Y-116330054D01*
X156531188Y-115744621D01*
X156477674Y-115695000D01*
X156718000Y-115695000D01*
X157008839Y-115637148D01*
X157255401Y-115472401D01*
X157909942Y-114817860D01*
X158093046Y-115341320D01*
X158482964Y-115777732D01*
X159010209Y-116031709D01*
X159025974Y-116034358D01*
X159258000Y-115913217D01*
X159258000Y-114554000D01*
X159238000Y-114554000D01*
X159238000Y-114300000D01*
X159258000Y-114300000D01*
X159258000Y-112940783D01*
X159025974Y-112819642D01*
X159010209Y-112822291D01*
X158482964Y-113076268D01*
X158367000Y-113206060D01*
X158367000Y-110798463D01*
X158399192Y-110766327D01*
X158514764Y-110488000D01*
X161868198Y-110488000D01*
X161387599Y-110968599D01*
X161387599Y-110968599D01*
G37*
X161387599Y-110968599D02*
X161222852Y-111215161D01*
X161165000Y-111506000D01*
X161165000Y-112982352D01*
X160865330Y-113182585D01*
X160658539Y-113492069D01*
X160287036Y-113076268D01*
X159759791Y-112822291D01*
X159744026Y-112819642D01*
X159512000Y-112940783D01*
X159512000Y-114300000D01*
X159532000Y-114300000D01*
X159532000Y-114554000D01*
X159512000Y-114554000D01*
X159512000Y-115913217D01*
X159744026Y-116034358D01*
X159759791Y-116031709D01*
X160287036Y-115777732D01*
X160658539Y-115361931D01*
X160865330Y-115671415D01*
X161351511Y-115996271D01*
X161925000Y-116110345D01*
X162498489Y-115996271D01*
X162984670Y-115671415D01*
X163195000Y-115356634D01*
X163405330Y-115671415D01*
X163891511Y-115996271D01*
X164465000Y-116110345D01*
X165038489Y-115996271D01*
X165524670Y-115671415D01*
X165735000Y-115356634D01*
X165945330Y-115671415D01*
X166431511Y-115996271D01*
X167005000Y-116110345D01*
X167578489Y-115996271D01*
X168064670Y-115671415D01*
X168275000Y-115356634D01*
X168485330Y-115671415D01*
X168971511Y-115996271D01*
X169545000Y-116110345D01*
X170118489Y-115996271D01*
X170604670Y-115671415D01*
X170614243Y-115657087D01*
X170618238Y-115678317D01*
X170757310Y-115894441D01*
X170969510Y-116039431D01*
X171221400Y-116090440D01*
X172948600Y-116090440D01*
X173183917Y-116046162D01*
X173400041Y-115907090D01*
X173545031Y-115694890D01*
X173596040Y-115443000D01*
X173596040Y-113411000D01*
X173551762Y-113175683D01*
X173412690Y-112959559D01*
X173200490Y-112814569D01*
X172948600Y-112763560D01*
X171221400Y-112763560D01*
X170986083Y-112807838D01*
X170769959Y-112946910D01*
X170624969Y-113159110D01*
X170616600Y-113200439D01*
X170604670Y-113182585D01*
X170118489Y-112857729D01*
X169545000Y-112743655D01*
X168971511Y-112857729D01*
X168485330Y-113182585D01*
X168275000Y-113497366D01*
X168064670Y-113182585D01*
X167578489Y-112857729D01*
X167005000Y-112743655D01*
X166431511Y-112857729D01*
X165945330Y-113182585D01*
X165735000Y-113497366D01*
X165524670Y-113182585D01*
X165225000Y-112982352D01*
X165225000Y-112836802D01*
X165541802Y-112520000D01*
X171069000Y-112520000D01*
X171359839Y-112462148D01*
X171606401Y-112297401D01*
X171955401Y-111948401D01*
X172120148Y-111701839D01*
X172178000Y-111411000D01*
X172178000Y-110718926D01*
X172203317Y-110714162D01*
X172419441Y-110575090D01*
X172420390Y-110573701D01*
X172616110Y-110707431D01*
X172658000Y-110715914D01*
X172658000Y-111442000D01*
X172715852Y-111732839D01*
X172880599Y-111979401D01*
X173992000Y-113090802D01*
X173992000Y-117547537D01*
X173959808Y-117579673D01*
X173817162Y-117923201D01*
X173816887Y-118239000D01*
X155770029Y-118239000D01*
X156058818Y-118119385D01*
X156531188Y-117681379D01*
X156799983Y-117095946D01*
X156681367Y-116840000D01*
X155321000Y-116840000D01*
X155321000Y-116860000D01*
X155067000Y-116860000D01*
X155067000Y-116840000D01*
X155047000Y-116840000D01*
X155047000Y-116586000D01*
X155067000Y-116586000D01*
X155067000Y-116566000D01*
X155321000Y-116566000D01*
X155321000Y-116586000D01*
X156681367Y-116586000D01*
X156799983Y-116330054D01*
X156531188Y-115744621D01*
X156477674Y-115695000D01*
X156718000Y-115695000D01*
X157008839Y-115637148D01*
X157255401Y-115472401D01*
X157909942Y-114817860D01*
X158093046Y-115341320D01*
X158482964Y-115777732D01*
X159010209Y-116031709D01*
X159025974Y-116034358D01*
X159258000Y-115913217D01*
X159258000Y-114554000D01*
X159238000Y-114554000D01*
X159238000Y-114300000D01*
X159258000Y-114300000D01*
X159258000Y-112940783D01*
X159025974Y-112819642D01*
X159010209Y-112822291D01*
X158482964Y-113076268D01*
X158367000Y-113206060D01*
X158367000Y-110798463D01*
X158399192Y-110766327D01*
X158514764Y-110488000D01*
X161868198Y-110488000D01*
X161387599Y-110968599D01*
G36*
X156815599Y-109249401D02*
X157043539Y-109477341D01*
X156814808Y-109705673D01*
X156672162Y-110049201D01*
X156671838Y-110421167D01*
X156813883Y-110764943D01*
X156847000Y-110798118D01*
X156847000Y-113731198D01*
X156403198Y-114175000D01*
X156340710Y-114175000D01*
X156531188Y-113998379D01*
X156799983Y-113412946D01*
X156681367Y-113157000D01*
X155321000Y-113157000D01*
X155321000Y-113177000D01*
X155067000Y-113177000D01*
X155067000Y-113157000D01*
X155047000Y-113157000D01*
X155047000Y-112903000D01*
X155067000Y-112903000D01*
X155067000Y-111543164D01*
X155321000Y-111543164D01*
X155321000Y-112903000D01*
X156681367Y-112903000D01*
X156799983Y-112647054D01*
X156531188Y-112061621D01*
X156058818Y-111623615D01*
X155576944Y-111424025D01*
X155321000Y-111543164D01*
X155067000Y-111543164D01*
X154811056Y-111424025D01*
X154329182Y-111623615D01*
X154231602Y-111714097D01*
X154134090Y-111562559D01*
X153921890Y-111417569D01*
X153670000Y-111366560D01*
X151883242Y-111366560D01*
X152351362Y-110898440D01*
X153324000Y-110898440D01*
X153559317Y-110854162D01*
X153775441Y-110715090D01*
X153920431Y-110502890D01*
X153927191Y-110469510D01*
X153985673Y-110610699D01*
X154164302Y-110789327D01*
X154397691Y-110886000D01*
X154988250Y-110886000D01*
X155147000Y-110727250D01*
X155147000Y-109728000D01*
X155401000Y-109728000D01*
X155401000Y-110727250D01*
X155559750Y-110886000D01*
X156150309Y-110886000D01*
X156383698Y-110789327D01*
X156562327Y-110610699D01*
X156659000Y-110377310D01*
X156659000Y-109886750D01*
X156500250Y-109728000D01*
X155401000Y-109728000D01*
X155147000Y-109728000D01*
X155127000Y-109728000D01*
X155127000Y-109474000D01*
X155147000Y-109474000D01*
X155147000Y-109454000D01*
X155401000Y-109454000D01*
X155401000Y-109474000D01*
X156500250Y-109474000D01*
X156659000Y-109315250D01*
X156659000Y-109015033D01*
X156815599Y-109249401D01*
X156815599Y-109249401D01*
G37*
X156815599Y-109249401D02*
X157043539Y-109477341D01*
X156814808Y-109705673D01*
X156672162Y-110049201D01*
X156671838Y-110421167D01*
X156813883Y-110764943D01*
X156847000Y-110798118D01*
X156847000Y-113731198D01*
X156403198Y-114175000D01*
X156340710Y-114175000D01*
X156531188Y-113998379D01*
X156799983Y-113412946D01*
X156681367Y-113157000D01*
X155321000Y-113157000D01*
X155321000Y-113177000D01*
X155067000Y-113177000D01*
X155067000Y-113157000D01*
X155047000Y-113157000D01*
X155047000Y-112903000D01*
X155067000Y-112903000D01*
X155067000Y-111543164D01*
X155321000Y-111543164D01*
X155321000Y-112903000D01*
X156681367Y-112903000D01*
X156799983Y-112647054D01*
X156531188Y-112061621D01*
X156058818Y-111623615D01*
X155576944Y-111424025D01*
X155321000Y-111543164D01*
X155067000Y-111543164D01*
X154811056Y-111424025D01*
X154329182Y-111623615D01*
X154231602Y-111714097D01*
X154134090Y-111562559D01*
X153921890Y-111417569D01*
X153670000Y-111366560D01*
X151883242Y-111366560D01*
X152351362Y-110898440D01*
X153324000Y-110898440D01*
X153559317Y-110854162D01*
X153775441Y-110715090D01*
X153920431Y-110502890D01*
X153927191Y-110469510D01*
X153985673Y-110610699D01*
X154164302Y-110789327D01*
X154397691Y-110886000D01*
X154988250Y-110886000D01*
X155147000Y-110727250D01*
X155147000Y-109728000D01*
X155401000Y-109728000D01*
X155401000Y-110727250D01*
X155559750Y-110886000D01*
X156150309Y-110886000D01*
X156383698Y-110789327D01*
X156562327Y-110610699D01*
X156659000Y-110377310D01*
X156659000Y-109886750D01*
X156500250Y-109728000D01*
X155401000Y-109728000D01*
X155147000Y-109728000D01*
X155127000Y-109728000D01*
X155127000Y-109474000D01*
X155147000Y-109474000D01*
X155147000Y-109454000D01*
X155401000Y-109454000D01*
X155401000Y-109474000D01*
X156500250Y-109474000D01*
X156659000Y-109315250D01*
X156659000Y-109015033D01*
X156815599Y-109249401D01*
G36*
X183263000Y-103057802D02*
X183263000Y-105918000D01*
X183290998Y-106058754D01*
X183290998Y-106134748D01*
X183132250Y-105976000D01*
X182741690Y-105976000D01*
X182508301Y-106072673D01*
X182425748Y-106155226D01*
X182219890Y-106014569D01*
X182178000Y-106006086D01*
X182178000Y-104852542D01*
X182290838Y-104580799D01*
X182291162Y-104208833D01*
X182149117Y-103865057D01*
X181886327Y-103601808D01*
X181542799Y-103459162D01*
X181528930Y-103459150D01*
X181529162Y-103192833D01*
X181387117Y-102849057D01*
X181124327Y-102585808D01*
X180780799Y-102443162D01*
X180408833Y-102442838D01*
X180065057Y-102584883D01*
X179801808Y-102847673D01*
X179659162Y-103191201D01*
X179659121Y-103238077D01*
X178980050Y-103917148D01*
X178880599Y-103983599D01*
X178715852Y-104230161D01*
X178658000Y-104521000D01*
X178658000Y-106003074D01*
X178632683Y-106007838D01*
X178416559Y-106146910D01*
X178415610Y-106148299D01*
X178219890Y-106014569D01*
X177968000Y-105963560D01*
X176868000Y-105963560D01*
X176632683Y-106007838D01*
X176416559Y-106146910D01*
X176415610Y-106148299D01*
X176219890Y-106014569D01*
X176178000Y-106006086D01*
X176178000Y-104169802D01*
X177987802Y-102360000D01*
X182565198Y-102360000D01*
X183263000Y-103057802D01*
X183263000Y-103057802D01*
G37*
X183263000Y-103057802D02*
X183263000Y-105918000D01*
X183290998Y-106058754D01*
X183290998Y-106134748D01*
X183132250Y-105976000D01*
X182741690Y-105976000D01*
X182508301Y-106072673D01*
X182425748Y-106155226D01*
X182219890Y-106014569D01*
X182178000Y-106006086D01*
X182178000Y-104852542D01*
X182290838Y-104580799D01*
X182291162Y-104208833D01*
X182149117Y-103865057D01*
X181886327Y-103601808D01*
X181542799Y-103459162D01*
X181528930Y-103459150D01*
X181529162Y-103192833D01*
X181387117Y-102849057D01*
X181124327Y-102585808D01*
X180780799Y-102443162D01*
X180408833Y-102442838D01*
X180065057Y-102584883D01*
X179801808Y-102847673D01*
X179659162Y-103191201D01*
X179659121Y-103238077D01*
X178980050Y-103917148D01*
X178880599Y-103983599D01*
X178715852Y-104230161D01*
X178658000Y-104521000D01*
X178658000Y-106003074D01*
X178632683Y-106007838D01*
X178416559Y-106146910D01*
X178415610Y-106148299D01*
X178219890Y-106014569D01*
X177968000Y-105963560D01*
X176868000Y-105963560D01*
X176632683Y-106007838D01*
X176416559Y-106146910D01*
X176415610Y-106148299D01*
X176219890Y-106014569D01*
X176178000Y-106006086D01*
X176178000Y-104169802D01*
X177987802Y-102360000D01*
X182565198Y-102360000D01*
X183263000Y-103057802D01*
G36*
X132496910Y-94421441D02*
X132709110Y-94566431D01*
X132961000Y-94617440D01*
X134461000Y-94617440D01*
X134696317Y-94573162D01*
X134814500Y-94497113D01*
X134814500Y-95516695D01*
X134814499Y-95516700D01*
X134861474Y-95752852D01*
X134881867Y-95855375D01*
X135014801Y-96054326D01*
X135073710Y-96142490D01*
X135861108Y-96929887D01*
X135861110Y-96929890D01*
X136148225Y-97121733D01*
X136204416Y-97132910D01*
X136486900Y-97189101D01*
X136486905Y-97189100D01*
X137309420Y-97189100D01*
X137149020Y-97349500D01*
X134478580Y-97349500D01*
X134354290Y-97225210D01*
X134345000Y-97219003D01*
X134345000Y-97186750D01*
X134186250Y-97028000D01*
X134105949Y-97028000D01*
X133961890Y-96929569D01*
X133824880Y-96901824D01*
X133945317Y-96879162D01*
X134108743Y-96774000D01*
X134186250Y-96774000D01*
X134345000Y-96615250D01*
X134345000Y-96449690D01*
X134329732Y-96412829D01*
X134357440Y-96276000D01*
X134357440Y-95626000D01*
X134313162Y-95390683D01*
X134174090Y-95174559D01*
X133961890Y-95029569D01*
X133710000Y-94978560D01*
X132650000Y-94978560D01*
X132414683Y-95022838D01*
X132269579Y-95116210D01*
X132183325Y-95133367D01*
X132018466Y-95243522D01*
X131974090Y-95174559D01*
X131761890Y-95029569D01*
X131740000Y-95025136D01*
X131740000Y-94617440D01*
X131961000Y-94617440D01*
X132196317Y-94573162D01*
X132412441Y-94434090D01*
X132460134Y-94364289D01*
X132496910Y-94421441D01*
X132496910Y-94421441D01*
G37*
X132496910Y-94421441D02*
X132709110Y-94566431D01*
X132961000Y-94617440D01*
X134461000Y-94617440D01*
X134696317Y-94573162D01*
X134814500Y-94497113D01*
X134814500Y-95516695D01*
X134814499Y-95516700D01*
X134861474Y-95752852D01*
X134881867Y-95855375D01*
X135014801Y-96054326D01*
X135073710Y-96142490D01*
X135861108Y-96929887D01*
X135861110Y-96929890D01*
X136148225Y-97121733D01*
X136204416Y-97132910D01*
X136486900Y-97189101D01*
X136486905Y-97189100D01*
X137309420Y-97189100D01*
X137149020Y-97349500D01*
X134478580Y-97349500D01*
X134354290Y-97225210D01*
X134345000Y-97219003D01*
X134345000Y-97186750D01*
X134186250Y-97028000D01*
X134105949Y-97028000D01*
X133961890Y-96929569D01*
X133824880Y-96901824D01*
X133945317Y-96879162D01*
X134108743Y-96774000D01*
X134186250Y-96774000D01*
X134345000Y-96615250D01*
X134345000Y-96449690D01*
X134329732Y-96412829D01*
X134357440Y-96276000D01*
X134357440Y-95626000D01*
X134313162Y-95390683D01*
X134174090Y-95174559D01*
X133961890Y-95029569D01*
X133710000Y-94978560D01*
X132650000Y-94978560D01*
X132414683Y-95022838D01*
X132269579Y-95116210D01*
X132183325Y-95133367D01*
X132018466Y-95243522D01*
X131974090Y-95174559D01*
X131761890Y-95029569D01*
X131740000Y-95025136D01*
X131740000Y-94617440D01*
X131961000Y-94617440D01*
X132196317Y-94573162D01*
X132412441Y-94434090D01*
X132460134Y-94364289D01*
X132496910Y-94421441D01*
G36*
X195613128Y-91212843D02*
X196062454Y-91513073D01*
X196073880Y-91515346D01*
X195982051Y-91542528D01*
X195560255Y-91883960D01*
X195301227Y-92360816D01*
X195287082Y-92432315D01*
X195409743Y-92646498D01*
X195341000Y-92646498D01*
X195341000Y-92567750D01*
X195182250Y-92409000D01*
X194183000Y-92409000D01*
X194183000Y-93508250D01*
X194341750Y-93667000D01*
X194832310Y-93667000D01*
X195065699Y-93570327D01*
X195244327Y-93391698D01*
X195317242Y-93215666D01*
X195560255Y-93663040D01*
X195874068Y-93917063D01*
X195644083Y-93960338D01*
X195427959Y-94099410D01*
X195282969Y-94311610D01*
X195233985Y-94553500D01*
X192783302Y-94553500D01*
X192403000Y-94173198D01*
X192403000Y-93658742D01*
X192528317Y-93635162D01*
X192744441Y-93496090D01*
X192848083Y-93344404D01*
X192867673Y-93391698D01*
X193046301Y-93570327D01*
X193279690Y-93667000D01*
X193770250Y-93667000D01*
X193929000Y-93508250D01*
X193929000Y-92409000D01*
X193909000Y-92409000D01*
X193909000Y-92155000D01*
X193929000Y-92155000D01*
X193929000Y-92135000D01*
X194183000Y-92135000D01*
X194183000Y-92155000D01*
X195182250Y-92155000D01*
X195341000Y-91996250D01*
X195341000Y-91405691D01*
X195244327Y-91172302D01*
X195065699Y-90993673D01*
X195065281Y-90993500D01*
X195466568Y-90993500D01*
X195613128Y-91212843D01*
X195613128Y-91212843D01*
G37*
X195613128Y-91212843D02*
X196062454Y-91513073D01*
X196073880Y-91515346D01*
X195982051Y-91542528D01*
X195560255Y-91883960D01*
X195301227Y-92360816D01*
X195287082Y-92432315D01*
X195409743Y-92646498D01*
X195341000Y-92646498D01*
X195341000Y-92567750D01*
X195182250Y-92409000D01*
X194183000Y-92409000D01*
X194183000Y-93508250D01*
X194341750Y-93667000D01*
X194832310Y-93667000D01*
X195065699Y-93570327D01*
X195244327Y-93391698D01*
X195317242Y-93215666D01*
X195560255Y-93663040D01*
X195874068Y-93917063D01*
X195644083Y-93960338D01*
X195427959Y-94099410D01*
X195282969Y-94311610D01*
X195233985Y-94553500D01*
X192783302Y-94553500D01*
X192403000Y-94173198D01*
X192403000Y-93658742D01*
X192528317Y-93635162D01*
X192744441Y-93496090D01*
X192848083Y-93344404D01*
X192867673Y-93391698D01*
X193046301Y-93570327D01*
X193279690Y-93667000D01*
X193770250Y-93667000D01*
X193929000Y-93508250D01*
X193929000Y-92409000D01*
X193909000Y-92409000D01*
X193909000Y-92155000D01*
X193929000Y-92155000D01*
X193929000Y-92135000D01*
X194183000Y-92135000D01*
X194183000Y-92155000D01*
X195182250Y-92155000D01*
X195341000Y-91996250D01*
X195341000Y-91405691D01*
X195244327Y-91172302D01*
X195065699Y-90993673D01*
X195065281Y-90993500D01*
X195466568Y-90993500D01*
X195613128Y-91212843D01*
G36*
X195613128Y-74014157D02*
X195312898Y-74463483D01*
X195207471Y-74993500D01*
X195312898Y-75523517D01*
X195613128Y-75972843D01*
X196048127Y-76263500D01*
X195613128Y-76554157D01*
X195312898Y-77003483D01*
X195207471Y-77533500D01*
X195312898Y-78063517D01*
X195613128Y-78512843D01*
X196048127Y-78803500D01*
X195613128Y-79094157D01*
X195312898Y-79543483D01*
X195207471Y-80073500D01*
X195312898Y-80603517D01*
X195613128Y-81052843D01*
X196048127Y-81343500D01*
X195613128Y-81634157D01*
X195312898Y-82083483D01*
X195207471Y-82613500D01*
X195312898Y-83143517D01*
X195613128Y-83592843D01*
X196048127Y-83883500D01*
X195613128Y-84174157D01*
X195312898Y-84623483D01*
X195207471Y-85153500D01*
X195312898Y-85683517D01*
X195613128Y-86132843D01*
X196048127Y-86423500D01*
X195613128Y-86714157D01*
X195312898Y-87163483D01*
X195207471Y-87693500D01*
X195312898Y-88223517D01*
X195613128Y-88672843D01*
X196048127Y-88963500D01*
X195613128Y-89254157D01*
X195466568Y-89473500D01*
X195353440Y-89473500D01*
X195353440Y-88832000D01*
X195309162Y-88596683D01*
X195170090Y-88380559D01*
X194957890Y-88235569D01*
X194706000Y-88184560D01*
X193406000Y-88184560D01*
X193170683Y-88228838D01*
X192954559Y-88367910D01*
X192848672Y-88522881D01*
X192757090Y-88380559D01*
X192544890Y-88235569D01*
X192293000Y-88184560D01*
X190993000Y-88184560D01*
X190757683Y-88228838D01*
X190746267Y-88236184D01*
X190727188Y-88140268D01*
X190709469Y-88014327D01*
X190698400Y-87995543D01*
X190694147Y-87974160D01*
X190623486Y-87868408D01*
X190558926Y-87758845D01*
X190541515Y-87745729D01*
X190529401Y-87727599D01*
X190021401Y-87219599D01*
X189774839Y-87054852D01*
X189484000Y-86997000D01*
X182986393Y-86997000D01*
X183421582Y-86816739D01*
X183581365Y-86497970D01*
X182247000Y-85163605D01*
X180912635Y-86497970D01*
X181072418Y-86816739D01*
X181532264Y-86997000D01*
X172965972Y-86997000D01*
X173454800Y-86795020D01*
X174055909Y-86194959D01*
X174381628Y-85410541D01*
X174382335Y-84600187D01*
X180104277Y-84600187D01*
X180120503Y-85449387D01*
X180414261Y-86158582D01*
X180733030Y-86318365D01*
X182067395Y-84984000D01*
X182426605Y-84984000D01*
X183760970Y-86318365D01*
X184079739Y-86158582D01*
X184389723Y-85367813D01*
X184373497Y-84518613D01*
X184079739Y-83809418D01*
X183760970Y-83649635D01*
X182426605Y-84984000D01*
X182067395Y-84984000D01*
X180733030Y-83649635D01*
X180414261Y-83809418D01*
X180104277Y-84600187D01*
X174382335Y-84600187D01*
X174382370Y-84561185D01*
X174119818Y-83925762D01*
X174575549Y-83470030D01*
X180912635Y-83470030D01*
X182247000Y-84804395D01*
X183581365Y-83470030D01*
X183421582Y-83151261D01*
X182630813Y-82841277D01*
X181781613Y-82857503D01*
X181072418Y-83151261D01*
X180912635Y-83470030D01*
X174575549Y-83470030D01*
X175753579Y-82292000D01*
X191769995Y-82292000D01*
X191770000Y-82292001D01*
X192052484Y-82235810D01*
X192108675Y-82224633D01*
X192395790Y-82032790D01*
X192395791Y-82032789D01*
X194808787Y-79619792D01*
X194808790Y-79619790D01*
X195000633Y-79332675D01*
X195068000Y-78994000D01*
X195068000Y-73783000D01*
X195959079Y-73783000D01*
X195613128Y-74014157D01*
X195613128Y-74014157D01*
G37*
X195613128Y-74014157D02*
X195312898Y-74463483D01*
X195207471Y-74993500D01*
X195312898Y-75523517D01*
X195613128Y-75972843D01*
X196048127Y-76263500D01*
X195613128Y-76554157D01*
X195312898Y-77003483D01*
X195207471Y-77533500D01*
X195312898Y-78063517D01*
X195613128Y-78512843D01*
X196048127Y-78803500D01*
X195613128Y-79094157D01*
X195312898Y-79543483D01*
X195207471Y-80073500D01*
X195312898Y-80603517D01*
X195613128Y-81052843D01*
X196048127Y-81343500D01*
X195613128Y-81634157D01*
X195312898Y-82083483D01*
X195207471Y-82613500D01*
X195312898Y-83143517D01*
X195613128Y-83592843D01*
X196048127Y-83883500D01*
X195613128Y-84174157D01*
X195312898Y-84623483D01*
X195207471Y-85153500D01*
X195312898Y-85683517D01*
X195613128Y-86132843D01*
X196048127Y-86423500D01*
X195613128Y-86714157D01*
X195312898Y-87163483D01*
X195207471Y-87693500D01*
X195312898Y-88223517D01*
X195613128Y-88672843D01*
X196048127Y-88963500D01*
X195613128Y-89254157D01*
X195466568Y-89473500D01*
X195353440Y-89473500D01*
X195353440Y-88832000D01*
X195309162Y-88596683D01*
X195170090Y-88380559D01*
X194957890Y-88235569D01*
X194706000Y-88184560D01*
X193406000Y-88184560D01*
X193170683Y-88228838D01*
X192954559Y-88367910D01*
X192848672Y-88522881D01*
X192757090Y-88380559D01*
X192544890Y-88235569D01*
X192293000Y-88184560D01*
X190993000Y-88184560D01*
X190757683Y-88228838D01*
X190746267Y-88236184D01*
X190727188Y-88140268D01*
X190709469Y-88014327D01*
X190698400Y-87995543D01*
X190694147Y-87974160D01*
X190623486Y-87868408D01*
X190558926Y-87758845D01*
X190541515Y-87745729D01*
X190529401Y-87727599D01*
X190021401Y-87219599D01*
X189774839Y-87054852D01*
X189484000Y-86997000D01*
X182986393Y-86997000D01*
X183421582Y-86816739D01*
X183581365Y-86497970D01*
X182247000Y-85163605D01*
X180912635Y-86497970D01*
X181072418Y-86816739D01*
X181532264Y-86997000D01*
X172965972Y-86997000D01*
X173454800Y-86795020D01*
X174055909Y-86194959D01*
X174381628Y-85410541D01*
X174382335Y-84600187D01*
X180104277Y-84600187D01*
X180120503Y-85449387D01*
X180414261Y-86158582D01*
X180733030Y-86318365D01*
X182067395Y-84984000D01*
X182426605Y-84984000D01*
X183760970Y-86318365D01*
X184079739Y-86158582D01*
X184389723Y-85367813D01*
X184373497Y-84518613D01*
X184079739Y-83809418D01*
X183760970Y-83649635D01*
X182426605Y-84984000D01*
X182067395Y-84984000D01*
X180733030Y-83649635D01*
X180414261Y-83809418D01*
X180104277Y-84600187D01*
X174382335Y-84600187D01*
X174382370Y-84561185D01*
X174119818Y-83925762D01*
X174575549Y-83470030D01*
X180912635Y-83470030D01*
X182247000Y-84804395D01*
X183581365Y-83470030D01*
X183421582Y-83151261D01*
X182630813Y-82841277D01*
X181781613Y-82857503D01*
X181072418Y-83151261D01*
X180912635Y-83470030D01*
X174575549Y-83470030D01*
X175753579Y-82292000D01*
X191769995Y-82292000D01*
X191770000Y-82292001D01*
X192052484Y-82235810D01*
X192108675Y-82224633D01*
X192395790Y-82032790D01*
X192395791Y-82032789D01*
X194808787Y-79619792D01*
X194808790Y-79619790D01*
X195000633Y-79332675D01*
X195068000Y-78994000D01*
X195068000Y-73783000D01*
X195959079Y-73783000D01*
X195613128Y-74014157D01*
M02*
