G04 #@! TF.FileFunction,Other,User*
%FSLAX46Y46*%
G04 Gerber Fmt 4.6, Leading zero omitted, Abs format (unit mm)*
G04 Created by KiCad (PCBNEW 4.0.4-stable) date 02/12/17 18:05:13*
%MOMM*%
%LPD*%
G01*
G04 APERTURE LIST*
%ADD10C,0.100000*%
%ADD11C,0.050000*%
G04 APERTURE END LIST*
D10*
D11*
X127783000Y-81534000D02*
G75*
G03X127783000Y-81534000I-3450000J0D01*
G01*
X127783000Y-86360000D02*
G75*
G03X127783000Y-86360000I-3450000J0D01*
G01*
X127783000Y-84074000D02*
G75*
G03X127783000Y-84074000I-3450000J0D01*
G01*
X210206000Y-83947000D02*
G75*
G03X210206000Y-83947000I-3450000J0D01*
G01*
X210206000Y-86233000D02*
G75*
G03X210206000Y-86233000I-3450000J0D01*
G01*
X180991000Y-116573000D02*
X180991000Y-111773000D01*
X182991000Y-116573000D02*
X182991000Y-111773000D01*
X180991000Y-116573000D02*
X182991000Y-116573000D01*
X180991000Y-111773000D02*
X182991000Y-111773000D01*
X183626000Y-97395000D02*
X183626000Y-101995000D01*
X181626000Y-97395000D02*
X181626000Y-101995000D01*
X183626000Y-97395000D02*
X181626000Y-97395000D01*
X183626000Y-101995000D02*
X181626000Y-101995000D01*
X115763000Y-75697000D02*
X117663000Y-75697000D01*
X117663000Y-75697000D02*
X117663000Y-79497000D01*
X117663000Y-79497000D02*
X115763000Y-79497000D01*
X115763000Y-79497000D02*
X115763000Y-75697000D01*
X116495000Y-72356000D02*
X120995000Y-72356000D01*
X120995000Y-72356000D02*
X120995000Y-74456000D01*
X120995000Y-74456000D02*
X116495000Y-74456000D01*
X116495000Y-72356000D02*
X116495000Y-74456000D01*
X114936000Y-82855000D02*
X118236000Y-82855000D01*
X118236000Y-82855000D02*
X118236000Y-86055000D01*
X118236000Y-86055000D02*
X114936000Y-86055000D01*
X114936000Y-86055000D02*
X114936000Y-82855000D01*
X117237000Y-92443000D02*
X117237000Y-87643000D01*
X119237000Y-92443000D02*
X119237000Y-87643000D01*
X117237000Y-92443000D02*
X119237000Y-92443000D01*
X117237000Y-87643000D02*
X119237000Y-87643000D01*
X117999000Y-80378000D02*
X117999000Y-75578000D01*
X119999000Y-80378000D02*
X119999000Y-75578000D01*
X117999000Y-80378000D02*
X119999000Y-80378000D01*
X117999000Y-75578000D02*
X119999000Y-75578000D01*
X116824000Y-87643000D02*
X116824000Y-92443000D01*
X114824000Y-87643000D02*
X114824000Y-92443000D01*
X116824000Y-87643000D02*
X114824000Y-87643000D01*
X116824000Y-92443000D02*
X114824000Y-92443000D01*
X178705000Y-116573000D02*
X178705000Y-111773000D01*
X180705000Y-116573000D02*
X180705000Y-111773000D01*
X178705000Y-116573000D02*
X180705000Y-116573000D01*
X178705000Y-111773000D02*
X180705000Y-111773000D01*
X183277000Y-116573000D02*
X183277000Y-111773000D01*
X185277000Y-116573000D02*
X185277000Y-111773000D01*
X183277000Y-116573000D02*
X185277000Y-116573000D01*
X183277000Y-111773000D02*
X185277000Y-111773000D01*
X173835000Y-112677000D02*
X157635000Y-112677000D01*
X173835000Y-116177000D02*
X157635000Y-116177000D01*
X173835000Y-112677000D02*
X173835000Y-116177000D01*
X157635000Y-112677000D02*
X157635000Y-116177000D01*
X150904000Y-114780000D02*
X156954000Y-114780000D01*
X150904000Y-111280000D02*
X156954000Y-111280000D01*
X150904000Y-114780000D02*
X150904000Y-111280000D01*
X156954000Y-114780000D02*
X156954000Y-111280000D01*
X187563000Y-111773000D02*
X187563000Y-116573000D01*
X185563000Y-111773000D02*
X185563000Y-116573000D01*
X187563000Y-111773000D02*
X185563000Y-111773000D01*
X187563000Y-116573000D02*
X185563000Y-116573000D01*
X189849000Y-111773000D02*
X189849000Y-116573000D01*
X187849000Y-111773000D02*
X187849000Y-116573000D01*
X189849000Y-111773000D02*
X187849000Y-111773000D01*
X189849000Y-116573000D02*
X187849000Y-116573000D01*
X145791000Y-113477000D02*
X145791000Y-115377000D01*
X145791000Y-115377000D02*
X141991000Y-115377000D01*
X141991000Y-115377000D02*
X141991000Y-113477000D01*
X141991000Y-113477000D02*
X145791000Y-113477000D01*
X136157000Y-113427000D02*
X140957000Y-113427000D01*
X136157000Y-115427000D02*
X140957000Y-115427000D01*
X136157000Y-113427000D02*
X136157000Y-115427000D01*
X140957000Y-113427000D02*
X140957000Y-115427000D01*
X177562000Y-102222000D02*
X177562000Y-97422000D01*
X179562000Y-102222000D02*
X179562000Y-97422000D01*
X177562000Y-102222000D02*
X179562000Y-102222000D01*
X177562000Y-97422000D02*
X179562000Y-97422000D01*
X174133000Y-102222000D02*
X174133000Y-97422000D01*
X176133000Y-102222000D02*
X176133000Y-97422000D01*
X174133000Y-102222000D02*
X176133000Y-102222000D01*
X174133000Y-97422000D02*
X176133000Y-97422000D01*
X150904000Y-118463000D02*
X156954000Y-118463000D01*
X150904000Y-114963000D02*
X156954000Y-114963000D01*
X150904000Y-118463000D02*
X150904000Y-114963000D01*
X156954000Y-118463000D02*
X156954000Y-114963000D01*
X190008000Y-116573000D02*
X190008000Y-111773000D01*
X192008000Y-116573000D02*
X192008000Y-111773000D01*
X190008000Y-116573000D02*
X192008000Y-116573000D01*
X190008000Y-111773000D02*
X192008000Y-111773000D01*
X210206000Y-81407000D02*
G75*
G03X210206000Y-81407000I-3450000J0D01*
G01*
X192377000Y-111097000D02*
X192377000Y-94897000D01*
X188877000Y-111097000D02*
X188877000Y-94897000D01*
X192377000Y-111097000D02*
X188877000Y-111097000D01*
X192377000Y-94897000D02*
X188877000Y-94897000D01*
M02*
