G04 #@! TF.FileFunction,Other,User*
%FSLAX46Y46*%
G04 Gerber Fmt 4.6, Leading zero omitted, Abs format (unit mm)*
G04 Created by KiCad (PCBNEW 4.0.4-stable) date 02/12/17 18:05:13*
%MOMM*%
%LPD*%
G01*
G04 APERTURE LIST*
%ADD10C,0.100000*%
%ADD11C,0.050000*%
%ADD12C,0.152400*%
G04 APERTURE END LIST*
D10*
D11*
X168918000Y-91095000D02*
X160668000Y-91095000D01*
X160668000Y-91095000D02*
X160668000Y-108595000D01*
X160668000Y-108595000D02*
X160668000Y-109595000D01*
X160668000Y-109595000D02*
X185418000Y-109595000D01*
X185418000Y-109595000D02*
X185418000Y-91095000D01*
X185418000Y-91095000D02*
X168918000Y-91095000D01*
D12*
X161036000Y-92329000D02*
X168402000Y-92329000D01*
D11*
X193056000Y-88532000D02*
X193056000Y-93332000D01*
X195056000Y-88532000D02*
X195056000Y-93332000D01*
X193056000Y-88532000D02*
X195056000Y-88532000D01*
X193056000Y-93332000D02*
X195056000Y-93332000D01*
X151524000Y-110601000D02*
X156324000Y-110601000D01*
X151524000Y-108601000D02*
X156324000Y-108601000D01*
X151524000Y-110601000D02*
X151524000Y-108601000D01*
X156324000Y-110601000D02*
X156324000Y-108601000D01*
X134761000Y-92345000D02*
X130161000Y-92345000D01*
X134761000Y-94345000D02*
X130161000Y-94345000D01*
X134761000Y-92345000D02*
X134761000Y-94345000D01*
X130161000Y-92345000D02*
X130161000Y-94345000D01*
X200512000Y-91767000D02*
X200512000Y-104067000D01*
X200512000Y-104067000D02*
X207412000Y-104067000D01*
X207412000Y-104067000D02*
X207412000Y-91767000D01*
X207412000Y-91767000D02*
X200512000Y-91767000D01*
X127028000Y-91920000D02*
X127028000Y-78220000D01*
X130528000Y-91920000D02*
X130528000Y-78220000D01*
X127028000Y-91920000D02*
X130528000Y-91920000D01*
X127028000Y-78220000D02*
X130528000Y-78220000D01*
X186071000Y-88532000D02*
X186071000Y-93332000D01*
X188071000Y-88532000D02*
X188071000Y-93332000D01*
X186071000Y-88532000D02*
X188071000Y-88532000D01*
X186071000Y-93332000D02*
X188071000Y-93332000D01*
X188357000Y-88532000D02*
X188357000Y-93332000D01*
X190357000Y-88532000D02*
X190357000Y-93332000D01*
X188357000Y-88532000D02*
X190357000Y-88532000D01*
X188357000Y-93332000D02*
X190357000Y-93332000D01*
X190643000Y-88532000D02*
X190643000Y-93332000D01*
X192643000Y-88532000D02*
X192643000Y-93332000D01*
X190643000Y-88532000D02*
X192643000Y-88532000D01*
X190643000Y-93332000D02*
X192643000Y-93332000D01*
X156324000Y-106315000D02*
X151524000Y-106315000D01*
X156324000Y-108315000D02*
X151524000Y-108315000D01*
X156324000Y-106315000D02*
X156324000Y-108315000D01*
X151524000Y-106315000D02*
X151524000Y-108315000D01*
X133880000Y-95301000D02*
X130280000Y-95301000D01*
X130280000Y-95301000D02*
X130280000Y-98501000D01*
X130280000Y-98501000D02*
X133880000Y-98501000D01*
X133880000Y-98501000D02*
X133880000Y-95301000D01*
X158803000Y-91567000D02*
G75*
G03X158803000Y-91567000I-5300000J0D01*
G01*
X153676000Y-100818000D02*
G75*
G03X153676000Y-100818000I-2800000J0D01*
G01*
X148850000Y-107462000D02*
G75*
G03X148850000Y-107462000I-2800000J0D01*
G01*
X141230000Y-107716000D02*
G75*
G03X141230000Y-107716000I-2800000J0D01*
G01*
M02*
