G04 #@! TF.FileFunction,Copper,L1,Top,Signal*
%FSLAX46Y46*%
G04 Gerber Fmt 4.6, Leading zero omitted, Abs format (unit mm)*
G04 Created by KiCad (PCBNEW 4.0.4-stable) date 02/12/17 18:05:11*
%MOMM*%
%LPD*%
G01*
G04 APERTURE LIST*
%ADD10C,0.100000*%
%ADD11C,4.000000*%
%ADD12R,2.000000X1.300000*%
%ADD13C,2.000000*%
%ADD14C,3.810000*%
%ADD15R,3.000000X3.000000*%
%ADD16C,3.000000*%
%ADD17R,1.300000X1.500000*%
%ADD18R,1.250000X1.500000*%
%ADD19R,1.198880X1.198880*%
%ADD20R,0.910000X1.220000*%
%ADD21R,2.000000X1.100000*%
%ADD22O,2.500000X1.500000*%
%ADD23R,2.500000X1.800000*%
%ADD24R,2.500000X1.500000*%
%ADD25R,2.540000X2.540000*%
%ADD26C,2.540000*%
%ADD27R,2.032000X1.727200*%
%ADD28O,2.032000X1.727200*%
%ADD29R,0.800100X0.800100*%
%ADD30C,1.998980*%
%ADD31R,1.300000X1.300000*%
%ADD32C,1.300000*%
%ADD33R,1.727200X2.032000*%
%ADD34O,1.727200X2.032000*%
%ADD35R,2.032000X2.032000*%
%ADD36O,2.032000X2.032000*%
%ADD37R,1.500000X1.300000*%
%ADD38C,1.000000*%
%ADD39C,0.600000*%
%ADD40C,0.500000*%
%ADD41C,0.250000*%
%ADD42C,0.254000*%
G04 APERTURE END LIST*
D10*
D11*
X203111100Y-117640100D03*
D12*
X195541900Y-111048800D03*
X195541900Y-113055400D03*
X195491100Y-115062000D03*
X210070700Y-116027200D03*
X210070700Y-114046000D03*
X210070700Y-112039400D03*
X210070700Y-110032800D03*
D11*
X203073000Y-108496100D03*
D13*
X139712700Y-88468200D03*
X145427700Y-88506300D03*
D14*
X155354000Y-77151000D03*
D15*
X143154000Y-65151000D03*
D14*
X155194000Y-65151000D03*
D16*
X143154000Y-77151000D03*
D14*
X141154000Y-71151000D03*
D17*
X181991000Y-115523000D03*
X181991000Y-112823000D03*
D18*
X182626000Y-98445000D03*
X182626000Y-100945000D03*
D19*
X116713000Y-76547980D03*
X116713000Y-78646020D03*
D20*
X117110000Y-73406000D03*
X120380000Y-73406000D03*
D21*
X130568700Y-109804200D03*
X130568700Y-107823000D03*
X130568700Y-105816400D03*
X130568700Y-103809800D03*
D22*
X133525260Y-80078580D03*
X133525260Y-82618580D03*
X133525260Y-85158580D03*
X133525260Y-87698580D03*
D23*
X133525260Y-90238580D03*
D24*
X197129400Y-95313500D03*
D22*
X197129400Y-92773500D03*
X197129400Y-90233500D03*
X197129400Y-87693500D03*
X197129400Y-85153500D03*
X197129400Y-82613500D03*
X197129400Y-80073500D03*
X197129400Y-77533500D03*
X197129400Y-74993500D03*
D11*
X134418000Y-102235000D03*
X196226500Y-102108000D03*
X134926000Y-68156000D03*
X196226500Y-68156000D03*
D25*
X127762000Y-74168000D03*
D26*
X127762000Y-69088000D03*
X127762000Y-64008000D03*
D25*
X125984000Y-102489000D03*
D26*
X125984000Y-97409000D03*
D25*
X205105000Y-63754000D03*
D26*
X205105000Y-68834000D03*
D27*
X128778000Y-90170000D03*
D28*
X128778000Y-87630000D03*
X128778000Y-85090000D03*
X128778000Y-82550000D03*
X128778000Y-80010000D03*
D29*
X115636000Y-85455760D03*
X117536000Y-85455760D03*
X116586000Y-83456780D03*
D17*
X118237000Y-91393000D03*
X118237000Y-88693000D03*
X118999000Y-79328000D03*
X118999000Y-76628000D03*
X115824000Y-88693000D03*
X115824000Y-91393000D03*
X179705000Y-115523000D03*
X179705000Y-112823000D03*
X184277000Y-115523000D03*
X184277000Y-112823000D03*
D30*
X139446000Y-101305360D03*
X139446000Y-96304100D03*
X145034000Y-101178360D03*
X145034000Y-96177100D03*
D16*
X182247000Y-84984000D03*
X172247000Y-84984000D03*
X187247000Y-64984000D03*
X167247000Y-64984000D03*
D31*
X151003000Y-91567000D03*
D32*
X156003000Y-91567000D03*
D31*
X150876000Y-99568000D03*
D32*
X150876000Y-102068000D03*
D31*
X146050000Y-108712000D03*
D32*
X146050000Y-106212000D03*
D31*
X138430000Y-108966000D03*
D32*
X138430000Y-106466000D03*
D33*
X172085000Y-114427000D03*
D34*
X169545000Y-114427000D03*
X167005000Y-114427000D03*
X164465000Y-114427000D03*
X161925000Y-114427000D03*
X159385000Y-114427000D03*
D35*
X152654000Y-113030000D03*
D36*
X155194000Y-113030000D03*
D17*
X186563000Y-112823000D03*
X186563000Y-115523000D03*
X188849000Y-112823000D03*
X188849000Y-115523000D03*
D19*
X144940020Y-114427000D03*
X142841980Y-114427000D03*
D37*
X137207000Y-114427000D03*
X139907000Y-114427000D03*
D17*
X178562000Y-101172000D03*
X178562000Y-98472000D03*
X175133000Y-101172000D03*
X175133000Y-98472000D03*
D35*
X152654000Y-116713000D03*
D36*
X155194000Y-116713000D03*
D17*
X191008000Y-115523000D03*
X191008000Y-112823000D03*
D27*
X190627000Y-109347000D03*
D28*
X190627000Y-106807000D03*
X190627000Y-104267000D03*
X190627000Y-101727000D03*
X190627000Y-99187000D03*
X190627000Y-96647000D03*
D38*
X192913000Y-94234000D03*
D39*
X181864000Y-111379000D03*
D38*
X134747000Y-96774000D03*
D39*
X182753000Y-102616000D03*
X187642500Y-110553500D03*
X180594000Y-103378000D03*
X183007000Y-117729000D03*
X201168000Y-90297000D03*
X181356000Y-104394000D03*
X183134000Y-96520000D03*
D38*
X123571000Y-116205000D03*
X129540000Y-96139000D03*
D39*
X181483000Y-96520000D03*
X181610000Y-89916000D03*
X176784000Y-100203000D03*
X177673000Y-89662000D03*
X176276000Y-89154000D03*
X174752000Y-118110000D03*
D38*
X115824000Y-99060000D03*
X115824000Y-105029000D03*
D39*
X178181000Y-115951000D03*
X157734000Y-105664000D03*
X157607000Y-110236000D03*
D40*
X192024000Y-95123000D02*
X183388000Y-95123000D01*
X192913000Y-94234000D02*
X192024000Y-95123000D01*
D41*
X195541900Y-113055400D02*
X191240400Y-113055400D01*
X191240400Y-113055400D02*
X191008000Y-112823000D01*
X191240400Y-113055400D02*
X191008000Y-112823000D01*
D40*
X120142000Y-86868000D02*
X120142000Y-102489000D01*
D41*
X115824000Y-91393000D02*
X114601000Y-91393000D01*
X114601000Y-91393000D02*
X114046000Y-91948000D01*
D40*
X117536000Y-85455760D02*
X117536000Y-85532000D01*
X117536000Y-85532000D02*
X120142000Y-86868000D01*
X114046000Y-94742000D02*
X114046000Y-99822000D01*
X114046000Y-99822000D02*
X116713000Y-102489000D01*
X116713000Y-102489000D02*
X120142000Y-102489000D01*
X114046000Y-91948000D02*
X114046000Y-94742000D01*
X120142000Y-102489000D02*
X123063000Y-102489000D01*
X123063000Y-102489000D02*
X125984000Y-102489000D01*
D41*
X125984000Y-102489000D02*
X125984000Y-101981000D01*
X125984000Y-102489000D02*
X125730000Y-102489000D01*
X181864000Y-111379000D02*
X181991000Y-111506000D01*
X181991000Y-111506000D02*
X181991000Y-112823000D01*
X191008000Y-112823000D02*
X194293500Y-112823000D01*
X194293500Y-112823000D02*
X194525900Y-113055400D01*
D40*
X146955510Y-116442490D02*
X147049490Y-116442490D01*
X155194000Y-118618000D02*
X155194000Y-116713000D01*
X155067000Y-118745000D02*
X155194000Y-118618000D01*
X149352000Y-118745000D02*
X155067000Y-118745000D01*
X147049490Y-116442490D02*
X149352000Y-118745000D01*
X155194000Y-116713000D02*
X155194000Y-113030000D01*
X155448000Y-116459000D02*
X157988000Y-116459000D01*
X157988000Y-116459000D02*
X159385000Y-115062000D01*
X155448000Y-116459000D02*
X155194000Y-116713000D01*
X173609000Y-88392000D02*
X173609000Y-93853000D01*
X184531000Y-99040000D02*
X182626000Y-100945000D01*
X184531000Y-95885000D02*
X184531000Y-99040000D01*
X183769000Y-95123000D02*
X184531000Y-95885000D01*
X174879000Y-95123000D02*
X183388000Y-95123000D01*
X183388000Y-95123000D02*
X183769000Y-95123000D01*
X173609000Y-93853000D02*
X174879000Y-95123000D01*
X156003000Y-91567000D02*
X156003000Y-91393000D01*
X156003000Y-91393000D02*
X159004000Y-88392000D01*
X177017000Y-84984000D02*
X182247000Y-84984000D01*
X173609000Y-88392000D02*
X177017000Y-84984000D01*
X159004000Y-88392000D02*
X173609000Y-88392000D01*
X144940020Y-114427000D02*
X144940020Y-112936020D01*
X143637000Y-108625000D02*
X146050000Y-106212000D01*
X143637000Y-111633000D02*
X143637000Y-108625000D01*
X144940020Y-112936020D02*
X143637000Y-111633000D01*
X159385000Y-114427000D02*
X159385000Y-115062000D01*
X146972020Y-116459000D02*
X146955510Y-116442490D01*
X146955510Y-116442490D02*
X144940020Y-114427000D01*
X135572500Y-97599500D02*
X134747000Y-96774000D01*
X135572500Y-99695000D02*
X135572500Y-97599500D01*
X133477000Y-99695000D02*
X135572500Y-99695000D01*
X135572500Y-99695000D02*
X135699500Y-99695000D01*
X135699500Y-99695000D02*
X137033000Y-101028500D01*
X156003000Y-91567000D02*
X156003000Y-100410000D01*
X154345000Y-102068000D02*
X150876000Y-102068000D01*
X156003000Y-100410000D02*
X154345000Y-102068000D01*
X137033000Y-105069000D02*
X138430000Y-106466000D01*
X137033000Y-101028500D02*
X137033000Y-105069000D01*
X137033000Y-100838000D02*
X137033000Y-101028500D01*
X146050000Y-106212000D02*
X138684000Y-106212000D01*
X138684000Y-106212000D02*
X138430000Y-106466000D01*
X145034000Y-101178360D02*
X145034000Y-105196000D01*
X145034000Y-105196000D02*
X146050000Y-106212000D01*
X145034000Y-101178360D02*
X146390360Y-101178360D01*
X147280000Y-102068000D02*
X150876000Y-102068000D01*
X146390360Y-101178360D02*
X147280000Y-102068000D01*
X133731000Y-99695000D02*
X133477000Y-99695000D01*
X133477000Y-99695000D02*
X127000000Y-99695000D01*
X127000000Y-99695000D02*
X126111000Y-102489000D01*
X126111000Y-102489000D02*
X125984000Y-102489000D01*
D41*
X182626000Y-100945000D02*
X182626000Y-102489000D01*
X182626000Y-102489000D02*
X182753000Y-102616000D01*
X194456050Y-115081050D02*
X195472050Y-115081050D01*
X195472050Y-115081050D02*
X195491100Y-115062000D01*
X188849000Y-111760000D02*
X187642500Y-110553500D01*
X188849000Y-112823000D02*
X188849000Y-111760000D01*
X191008000Y-115523000D02*
X194014100Y-115523000D01*
X194014100Y-115523000D02*
X194456050Y-115081050D01*
X194456050Y-115081050D02*
X194475100Y-115062000D01*
X188849000Y-112823000D02*
X188849000Y-113364000D01*
X188849000Y-113364000D02*
X191008000Y-115523000D01*
X189437000Y-113411000D02*
X188849000Y-112823000D01*
X192659000Y-102997000D02*
X193167000Y-102997000D01*
X193929000Y-96520000D02*
X193929000Y-96647000D01*
X193675000Y-96774000D02*
X193929000Y-96520000D01*
X193675000Y-102489000D02*
X193675000Y-96774000D01*
X193167000Y-102997000D02*
X193675000Y-102489000D01*
X193929000Y-96647000D02*
X194056000Y-96520000D01*
X188214000Y-103378000D02*
X188849000Y-103378000D01*
X189230000Y-102997000D02*
X192659000Y-102997000D01*
X188849000Y-103378000D02*
X189230000Y-102997000D01*
X183007000Y-117729000D02*
X181737000Y-116459000D01*
X181737000Y-116459000D02*
X181737000Y-115777000D01*
X181737000Y-115777000D02*
X181991000Y-115523000D01*
X180594000Y-103378000D02*
X188214000Y-103378000D01*
X194056000Y-86995000D02*
X194056000Y-96520000D01*
X194056000Y-86995000D02*
X195580000Y-85471000D01*
X197129400Y-85153500D02*
X195897500Y-85153500D01*
X195897500Y-85153500D02*
X195580000Y-85471000D01*
X195897500Y-85153500D02*
X195580000Y-85471000D01*
X182880000Y-117602000D02*
X183007000Y-117729000D01*
X181991000Y-115523000D02*
X184277000Y-115523000D01*
X201168000Y-90297000D02*
X201168000Y-90678000D01*
X200660000Y-91186000D02*
X200660000Y-104394000D01*
X201168000Y-90678000D02*
X200660000Y-91186000D01*
X188214000Y-104267000D02*
X188468000Y-104267000D01*
X199517000Y-105537000D02*
X200406000Y-104648000D01*
X189738000Y-105537000D02*
X199517000Y-105537000D01*
X188468000Y-104267000D02*
X189738000Y-105537000D01*
X200406000Y-104648000D02*
X200660000Y-104394000D01*
X181483000Y-104267000D02*
X188214000Y-104267000D01*
X181356000Y-104394000D02*
X181483000Y-104267000D01*
X201168000Y-90297000D02*
X201041000Y-90424000D01*
D40*
X199390000Y-95313500D02*
X199390000Y-95123000D01*
X199390000Y-95123000D02*
X199771000Y-94742000D01*
X197129400Y-95313500D02*
X199390000Y-95313500D01*
X199072500Y-87693500D02*
X197129400Y-87693500D01*
X199771000Y-88392000D02*
X199072500Y-87693500D01*
X199771000Y-94742000D02*
X199771000Y-88392000D01*
X130568700Y-109804200D02*
X137591800Y-109804200D01*
X137591800Y-109804200D02*
X138430000Y-108966000D01*
D41*
X179705000Y-111506000D02*
X179705000Y-110998000D01*
X179705000Y-112823000D02*
X179705000Y-111506000D01*
X179705000Y-110998000D02*
X179959000Y-110744000D01*
X178943000Y-110998000D02*
X179197000Y-110744000D01*
X184277000Y-111125000D02*
X184277000Y-112823000D01*
X183896000Y-110744000D02*
X184277000Y-111125000D01*
X179197000Y-110744000D02*
X179959000Y-110744000D01*
X179959000Y-110744000D02*
X183896000Y-110744000D01*
X184277000Y-112823000D02*
X184277000Y-111379000D01*
D40*
X175133000Y-98472000D02*
X178562000Y-98472000D01*
X177292000Y-105410000D02*
X177292000Y-105029000D01*
X177292000Y-105029000D02*
X178943000Y-103378000D01*
X180848000Y-101473000D02*
X180848000Y-100965000D01*
X178943000Y-103378000D02*
X180848000Y-101473000D01*
X177292000Y-105410000D02*
X170878500Y-111823500D01*
X171196000Y-112141000D02*
X170878500Y-111823500D01*
X180848000Y-100965000D02*
X180848000Y-98445000D01*
X180467000Y-98445000D02*
X178589000Y-98445000D01*
X178589000Y-98445000D02*
X178562000Y-98472000D01*
X182626000Y-98445000D02*
X180848000Y-98445000D01*
X180848000Y-98445000D02*
X180467000Y-98445000D01*
X180467000Y-98445000D02*
X180113000Y-98445000D01*
X180113000Y-98445000D02*
X180086000Y-98472000D01*
X149733000Y-111252000D02*
X147574000Y-111252000D01*
X149733000Y-111252000D02*
X170307000Y-111252000D01*
X170307000Y-111252000D02*
X171196000Y-112141000D01*
X146050000Y-108712000D02*
X146050000Y-109728000D01*
X146050000Y-109728000D02*
X147066000Y-110744000D01*
X147574000Y-111252000D02*
X147066000Y-110744000D01*
X182626000Y-98445000D02*
X181590000Y-98445000D01*
X130568700Y-109804200D02*
X131114800Y-109804200D01*
X172085000Y-113030000D02*
X172085000Y-114427000D01*
X171196000Y-112141000D02*
X172085000Y-113030000D01*
D41*
X182626000Y-98445000D02*
X182626000Y-97028000D01*
X182626000Y-97028000D02*
X183134000Y-96520000D01*
X172085000Y-114427000D02*
X176911000Y-114427000D01*
X178181000Y-111760000D02*
X178943000Y-110998000D01*
X178181000Y-113157000D02*
X178181000Y-111760000D01*
X176911000Y-114427000D02*
X178181000Y-113157000D01*
X184277000Y-112823000D02*
X184277000Y-113364000D01*
X184277000Y-113364000D02*
X186563000Y-115523000D01*
X188849000Y-115523000D02*
X186563000Y-115523000D01*
D40*
X118999000Y-76628000D02*
X119808000Y-76628000D01*
X121539000Y-92964000D02*
X125984000Y-97409000D01*
X121539000Y-78359000D02*
X121539000Y-92964000D01*
X119808000Y-76628000D02*
X121539000Y-78359000D01*
X118999000Y-76628000D02*
X118999000Y-74787000D01*
X118999000Y-74787000D02*
X120380000Y-73406000D01*
X119364000Y-76263000D02*
X118999000Y-76628000D01*
X143154000Y-65151000D02*
X145732500Y-65151000D01*
X145732500Y-65151000D02*
X151003000Y-70421500D01*
X151003000Y-70421500D02*
X151003000Y-91567000D01*
X151003000Y-91567000D02*
X151003000Y-99441000D01*
X151003000Y-99441000D02*
X150876000Y-99568000D01*
D41*
X137207000Y-114427000D02*
X134175500Y-114427000D01*
X134175500Y-114427000D02*
X132397500Y-116205000D01*
X132397500Y-116205000D02*
X123571000Y-116205000D01*
D40*
X151003000Y-91567000D02*
X151003000Y-89154000D01*
X151003000Y-89154000D02*
X155173000Y-84984000D01*
X155173000Y-84984000D02*
X172247000Y-84984000D01*
X139446000Y-101305360D02*
X139905740Y-101305360D01*
X139905740Y-101305360D02*
X145034000Y-96177100D01*
X136906000Y-98765360D02*
X139446000Y-101305360D01*
X136906000Y-96393000D02*
X136906000Y-98765360D01*
X135255000Y-94742000D02*
X136906000Y-96393000D01*
X130175000Y-94742000D02*
X135255000Y-94742000D01*
X129667000Y-95250000D02*
X130175000Y-94742000D01*
X129667000Y-96012000D02*
X129667000Y-95250000D01*
X129540000Y-96139000D02*
X129667000Y-96012000D01*
X124714000Y-76327000D02*
X124714000Y-75057000D01*
X124714000Y-75057000D02*
X121031000Y-71374000D01*
X117110000Y-73406000D02*
X117110000Y-72247000D01*
X117983000Y-71374000D02*
X121031000Y-71374000D01*
X117110000Y-72247000D02*
X117983000Y-71374000D01*
X124714000Y-76327000D02*
X125538000Y-77151000D01*
X143154000Y-77151000D02*
X125538000Y-77151000D01*
X116586000Y-83456780D02*
X116222780Y-83456780D01*
X116222780Y-83456780D02*
X114935000Y-80899000D01*
X115349020Y-76547980D02*
X116713000Y-76547980D01*
X114935000Y-76962000D02*
X115349020Y-76547980D01*
X114935000Y-80899000D02*
X114935000Y-76962000D01*
X116713000Y-76547980D02*
X116713000Y-73803000D01*
X116713000Y-73803000D02*
X117110000Y-73406000D01*
X116713000Y-76547980D02*
X116713000Y-76073000D01*
X116586000Y-83456780D02*
X116586000Y-83312000D01*
X116713000Y-78646020D02*
X118317020Y-78646020D01*
X118317020Y-78646020D02*
X118999000Y-79328000D01*
X118698020Y-79027020D02*
X118999000Y-79328000D01*
D41*
X117013980Y-78947000D02*
X116713000Y-78646020D01*
X175133000Y-101172000D02*
X174070000Y-101172000D01*
X173355000Y-96520000D02*
X181483000Y-96520000D01*
X173228000Y-96647000D02*
X173355000Y-96520000D01*
X173228000Y-100330000D02*
X173228000Y-96647000D01*
X174070000Y-101172000D02*
X173228000Y-100330000D01*
X193992500Y-82613500D02*
X197129400Y-82613500D01*
X193421000Y-83185000D02*
X193992500Y-82613500D01*
X193421000Y-88011000D02*
X193421000Y-83185000D01*
X191643000Y-89789000D02*
X193421000Y-88011000D01*
X181737000Y-89789000D02*
X191643000Y-89789000D01*
X181610000Y-89916000D02*
X181737000Y-89789000D01*
X178562000Y-101172000D02*
X177499000Y-101172000D01*
X176784000Y-100457000D02*
X176784000Y-100203000D01*
X177499000Y-101172000D02*
X176784000Y-100457000D01*
X193865500Y-80073500D02*
X197129400Y-80073500D01*
X192786000Y-81153000D02*
X193865500Y-80073500D01*
X192786000Y-87630000D02*
X192786000Y-81153000D01*
X191135000Y-89281000D02*
X192786000Y-87630000D01*
X178054000Y-89281000D02*
X191135000Y-89281000D01*
X177673000Y-89662000D02*
X178054000Y-89281000D01*
X193103500Y-77533500D02*
X197129400Y-77533500D01*
X192151000Y-78486000D02*
X193103500Y-77533500D01*
X192151000Y-87249000D02*
X192151000Y-78486000D01*
X190627000Y-88773000D02*
X192151000Y-87249000D01*
X176657000Y-88773000D02*
X190627000Y-88773000D01*
X176276000Y-89154000D02*
X176657000Y-88773000D01*
X117030500Y-95567500D02*
X117983000Y-94615000D01*
X117983000Y-94615000D02*
X117983000Y-91647000D01*
X117983000Y-91647000D02*
X118237000Y-91393000D01*
X115824000Y-96774000D02*
X115824000Y-99060000D01*
X117094000Y-95504000D02*
X117030500Y-95567500D01*
X117030500Y-95567500D02*
X115824000Y-96774000D01*
X162306000Y-119507000D02*
X163703000Y-118110000D01*
X147701000Y-119507000D02*
X162306000Y-119507000D01*
X174752000Y-118110000D02*
X163703000Y-118110000D01*
X200533000Y-116205000D02*
X202692000Y-114046000D01*
X202692000Y-114046000D02*
X210070700Y-114046000D01*
X197485000Y-119253000D02*
X200533000Y-116205000D01*
X175895000Y-119253000D02*
X197485000Y-119253000D01*
X174752000Y-118110000D02*
X175895000Y-119253000D01*
X146304000Y-118110000D02*
X147701000Y-119507000D01*
X145923000Y-118110000D02*
X146304000Y-118110000D01*
X145923000Y-118110000D02*
X118872000Y-118110000D01*
X115824000Y-115062000D02*
X115824000Y-105029000D01*
X118872000Y-118110000D02*
X115824000Y-115062000D01*
X203073000Y-111252000D02*
X203962000Y-111252000D01*
X207975200Y-110032800D02*
X210070700Y-110032800D01*
X206756000Y-111252000D02*
X207975200Y-110032800D01*
X203962000Y-111252000D02*
X206756000Y-111252000D01*
X179705000Y-115523000D02*
X178609000Y-115523000D01*
X178609000Y-115523000D02*
X178181000Y-115951000D01*
X200152000Y-114173000D02*
X203073000Y-111252000D01*
X179705000Y-115523000D02*
X181991000Y-118110000D01*
X195707000Y-118618000D02*
X200152000Y-114173000D01*
X182499000Y-118618000D02*
X195707000Y-118618000D01*
X181991000Y-118110000D02*
X182499000Y-118618000D01*
D40*
X118237000Y-88693000D02*
X118237000Y-88011000D01*
X118237000Y-88011000D02*
X117414000Y-87188000D01*
X117414000Y-87188000D02*
X115636000Y-85455760D01*
X115824000Y-88693000D02*
X118237000Y-88693000D01*
D41*
X157734000Y-110109000D02*
X157734000Y-105664000D01*
X157607000Y-110236000D02*
X157734000Y-110109000D01*
X186563000Y-110109000D02*
X186563000Y-109855000D01*
X186817000Y-109601000D02*
X188341000Y-109601000D01*
X186563000Y-109855000D02*
X186817000Y-109601000D01*
X189788800Y-111048800D02*
X195541900Y-111048800D01*
X188341000Y-109601000D02*
X189788800Y-111048800D01*
X186563000Y-112823000D02*
X186563000Y-111125000D01*
X186563000Y-111125000D02*
X186563000Y-110109000D01*
X139907000Y-114427000D02*
X142841980Y-114427000D01*
D42*
G36*
X161798002Y-70992257D02*
X161807719Y-71041725D01*
X161835916Y-71083515D01*
X161878150Y-71111043D01*
X161925000Y-71120000D01*
X191971394Y-71120000D01*
X193458197Y-72606803D01*
X193500211Y-72634666D01*
X193548000Y-72644000D01*
X217170669Y-72644000D01*
X217349000Y-106437746D01*
X217349000Y-120321000D01*
X162405192Y-120321000D01*
X113994000Y-120143669D01*
X113994000Y-105253775D01*
X114688803Y-105253775D01*
X114861233Y-105671086D01*
X115064000Y-105874207D01*
X115064000Y-115062000D01*
X115121852Y-115352839D01*
X115286599Y-115599401D01*
X118334599Y-118647401D01*
X118581161Y-118812148D01*
X118872000Y-118870000D01*
X145989198Y-118870000D01*
X147163599Y-120044401D01*
X147410160Y-120209148D01*
X147701000Y-120267000D01*
X162306000Y-120267000D01*
X162596839Y-120209148D01*
X162843401Y-120044401D01*
X164017802Y-118870000D01*
X174189537Y-118870000D01*
X174221673Y-118902192D01*
X174565201Y-119044838D01*
X174612077Y-119044879D01*
X175357599Y-119790401D01*
X175604161Y-119955148D01*
X175895000Y-120013000D01*
X197485000Y-120013000D01*
X197775839Y-119955148D01*
X198022401Y-119790401D01*
X200476364Y-117336438D01*
X200475643Y-118161934D01*
X200875953Y-119130758D01*
X201616543Y-119872642D01*
X202584667Y-120274642D01*
X203632934Y-120275557D01*
X204601758Y-119875247D01*
X205343642Y-119134657D01*
X205745642Y-118166533D01*
X205746557Y-117118266D01*
X205413808Y-116312950D01*
X208435700Y-116312950D01*
X208435700Y-116803510D01*
X208532373Y-117036899D01*
X208711002Y-117215527D01*
X208944391Y-117312200D01*
X209784950Y-117312200D01*
X209943700Y-117153450D01*
X209943700Y-116154200D01*
X210197700Y-116154200D01*
X210197700Y-117153450D01*
X210356450Y-117312200D01*
X211197009Y-117312200D01*
X211430398Y-117215527D01*
X211609027Y-117036899D01*
X211705700Y-116803510D01*
X211705700Y-116312950D01*
X211546950Y-116154200D01*
X210197700Y-116154200D01*
X209943700Y-116154200D01*
X208594450Y-116154200D01*
X208435700Y-116312950D01*
X205413808Y-116312950D01*
X205346247Y-116149442D01*
X204605657Y-115407558D01*
X203637533Y-115005558D01*
X202807968Y-115004834D01*
X203006802Y-114806000D01*
X208443958Y-114806000D01*
X208467538Y-114931317D01*
X208528701Y-115026367D01*
X208435700Y-115250890D01*
X208435700Y-115741450D01*
X208594450Y-115900200D01*
X209943700Y-115900200D01*
X209943700Y-115880200D01*
X210197700Y-115880200D01*
X210197700Y-115900200D01*
X211546950Y-115900200D01*
X211705700Y-115741450D01*
X211705700Y-115250890D01*
X211613005Y-115027106D01*
X211667131Y-114947890D01*
X211718140Y-114696000D01*
X211718140Y-113396000D01*
X211673862Y-113160683D01*
X211597893Y-113042624D01*
X211667131Y-112941290D01*
X211718140Y-112689400D01*
X211718140Y-111389400D01*
X211673862Y-111154083D01*
X211597893Y-111036024D01*
X211667131Y-110934690D01*
X211718140Y-110682800D01*
X211718140Y-109382800D01*
X211673862Y-109147483D01*
X211534790Y-108931359D01*
X211322590Y-108786369D01*
X211070700Y-108735360D01*
X209070700Y-108735360D01*
X208835383Y-108779638D01*
X208619259Y-108918710D01*
X208474269Y-109130910D01*
X208445536Y-109272800D01*
X207975200Y-109272800D01*
X207684360Y-109330652D01*
X207437799Y-109495399D01*
X206441198Y-110492000D01*
X204803323Y-110492000D01*
X205305542Y-109990657D01*
X205707542Y-109022533D01*
X205708457Y-107974266D01*
X205308147Y-107005442D01*
X204567557Y-106263558D01*
X203599433Y-105861558D01*
X202551166Y-105860643D01*
X201582342Y-106260953D01*
X200840458Y-107001543D01*
X200438458Y-107969667D01*
X200437543Y-109017934D01*
X200837853Y-109986758D01*
X201578443Y-110728642D01*
X202244843Y-111005355D01*
X195392198Y-117858000D01*
X183941888Y-117858000D01*
X183942162Y-117543833D01*
X183800117Y-117200057D01*
X183537327Y-116936808D01*
X183193799Y-116794162D01*
X183146923Y-116794121D01*
X183090890Y-116738088D01*
X183092441Y-116737090D01*
X183132924Y-116677841D01*
X183162910Y-116724441D01*
X183375110Y-116869431D01*
X183627000Y-116920440D01*
X184927000Y-116920440D01*
X185162317Y-116876162D01*
X185378441Y-116737090D01*
X185418924Y-116677841D01*
X185448910Y-116724441D01*
X185661110Y-116869431D01*
X185913000Y-116920440D01*
X187213000Y-116920440D01*
X187448317Y-116876162D01*
X187664441Y-116737090D01*
X187704924Y-116677841D01*
X187734910Y-116724441D01*
X187947110Y-116869431D01*
X188199000Y-116920440D01*
X189499000Y-116920440D01*
X189734317Y-116876162D01*
X189930862Y-116749689D01*
X190106110Y-116869431D01*
X190358000Y-116920440D01*
X191658000Y-116920440D01*
X191893317Y-116876162D01*
X192109441Y-116737090D01*
X192254431Y-116524890D01*
X192303415Y-116283000D01*
X194014100Y-116283000D01*
X194159625Y-116254053D01*
X194239210Y-116308431D01*
X194491100Y-116359440D01*
X196491100Y-116359440D01*
X196726417Y-116315162D01*
X196942541Y-116176090D01*
X197087531Y-115963890D01*
X197138540Y-115712000D01*
X197138540Y-114412000D01*
X197094262Y-114176683D01*
X197045078Y-114100248D01*
X197080227Y-114065099D01*
X197176900Y-113831710D01*
X197176900Y-113341150D01*
X197018150Y-113182400D01*
X195668900Y-113182400D01*
X195668900Y-113202400D01*
X195414900Y-113202400D01*
X195414900Y-113182400D01*
X194065650Y-113182400D01*
X193906900Y-113341150D01*
X193906900Y-113831710D01*
X193986972Y-114025020D01*
X193894669Y-114160110D01*
X193843660Y-114412000D01*
X193843660Y-114618638D01*
X193699298Y-114763000D01*
X192303558Y-114763000D01*
X192261162Y-114537683D01*
X192122090Y-114321559D01*
X191909890Y-114176569D01*
X191876510Y-114169809D01*
X192017699Y-114111327D01*
X192196327Y-113932698D01*
X192293000Y-113699309D01*
X192293000Y-113108750D01*
X192134250Y-112950000D01*
X191135000Y-112950000D01*
X191135000Y-112970000D01*
X190881000Y-112970000D01*
X190881000Y-112950000D01*
X190861000Y-112950000D01*
X190861000Y-112696000D01*
X190881000Y-112696000D01*
X190881000Y-112676000D01*
X191135000Y-112676000D01*
X191135000Y-112696000D01*
X192134250Y-112696000D01*
X192293000Y-112537250D01*
X192293000Y-111946691D01*
X192235884Y-111808800D01*
X193915158Y-111808800D01*
X193938738Y-111934117D01*
X194007812Y-112041462D01*
X194003573Y-112045701D01*
X193906900Y-112279090D01*
X193906900Y-112769650D01*
X194065650Y-112928400D01*
X195414900Y-112928400D01*
X195414900Y-112908400D01*
X195668900Y-112908400D01*
X195668900Y-112928400D01*
X197018150Y-112928400D01*
X197176900Y-112769650D01*
X197176900Y-112279090D01*
X197080227Y-112045701D01*
X197076179Y-112041653D01*
X197138331Y-111950690D01*
X197189340Y-111698800D01*
X197189340Y-110398800D01*
X197145062Y-110163483D01*
X197005990Y-109947359D01*
X196793790Y-109802369D01*
X196541900Y-109751360D01*
X194541900Y-109751360D01*
X194306583Y-109795638D01*
X194090459Y-109934710D01*
X193945469Y-110146910D01*
X193916736Y-110288800D01*
X192274604Y-110288800D01*
X192290440Y-110210600D01*
X192290440Y-108483400D01*
X192246162Y-108248083D01*
X192107090Y-108031959D01*
X191894890Y-107886969D01*
X191853561Y-107878600D01*
X191871415Y-107866670D01*
X192196271Y-107380489D01*
X192310345Y-106807000D01*
X192208900Y-106297000D01*
X199517000Y-106297000D01*
X199807839Y-106239148D01*
X200054401Y-106074401D01*
X201197401Y-104931401D01*
X201362148Y-104684840D01*
X201420000Y-104394000D01*
X201420000Y-91500802D01*
X201705401Y-91215401D01*
X201870147Y-90968840D01*
X201870148Y-90968839D01*
X201882961Y-90904423D01*
X201960192Y-90827327D01*
X202102838Y-90483799D01*
X202103162Y-90111833D01*
X201961117Y-89768057D01*
X201698327Y-89504808D01*
X201354799Y-89362162D01*
X200982833Y-89361838D01*
X200656000Y-89496882D01*
X200656000Y-88392005D01*
X200656001Y-88392000D01*
X200588633Y-88053325D01*
X200561689Y-88013000D01*
X200396790Y-87766210D01*
X200396787Y-87766208D01*
X199698290Y-87067710D01*
X199534337Y-86958161D01*
X199411175Y-86875867D01*
X199354984Y-86864690D01*
X199072500Y-86808499D01*
X199072495Y-86808500D01*
X198708710Y-86808500D01*
X198645672Y-86714157D01*
X198210673Y-86423500D01*
X198645672Y-86132843D01*
X198945902Y-85683517D01*
X199051329Y-85153500D01*
X198945902Y-84623483D01*
X198645672Y-84174157D01*
X198210673Y-83883500D01*
X198645672Y-83592843D01*
X198945902Y-83143517D01*
X199051329Y-82613500D01*
X198945902Y-82083483D01*
X198789640Y-81849619D01*
X204520613Y-81849619D01*
X204860155Y-82671372D01*
X204865232Y-82676458D01*
X204862364Y-82679321D01*
X204521389Y-83500481D01*
X204520613Y-84389619D01*
X204810298Y-85090710D01*
X204521389Y-85786481D01*
X204520613Y-86675619D01*
X204860155Y-87497372D01*
X205488321Y-88126636D01*
X206309481Y-88467611D01*
X207198619Y-88468387D01*
X208020372Y-88128845D01*
X208649636Y-87500679D01*
X208990611Y-86679519D01*
X208991387Y-85790381D01*
X208701702Y-85089290D01*
X208990611Y-84393519D01*
X208991387Y-83504381D01*
X208651845Y-82682628D01*
X208646768Y-82677542D01*
X208649636Y-82674679D01*
X208990611Y-81853519D01*
X208991387Y-80964381D01*
X208651845Y-80142628D01*
X208023679Y-79513364D01*
X207202519Y-79172389D01*
X206313381Y-79171613D01*
X205491628Y-79511155D01*
X204862364Y-80139321D01*
X204521389Y-80960481D01*
X204520613Y-81849619D01*
X198789640Y-81849619D01*
X198645672Y-81634157D01*
X198210673Y-81343500D01*
X198645672Y-81052843D01*
X198945902Y-80603517D01*
X199051329Y-80073500D01*
X198945902Y-79543483D01*
X198645672Y-79094157D01*
X198210673Y-78803500D01*
X198645672Y-78512843D01*
X198945902Y-78063517D01*
X199051329Y-77533500D01*
X198945902Y-77003483D01*
X198645672Y-76554157D01*
X198210673Y-76263500D01*
X198645672Y-75972843D01*
X198945902Y-75523517D01*
X199051329Y-74993500D01*
X198945902Y-74463483D01*
X198645672Y-74014157D01*
X198196346Y-73713927D01*
X197666329Y-73608500D01*
X196592471Y-73608500D01*
X196062454Y-73713927D01*
X195613128Y-74014157D01*
X195312898Y-74463483D01*
X195207471Y-74993500D01*
X195312898Y-75523517D01*
X195613128Y-75972843D01*
X196048127Y-76263500D01*
X195613128Y-76554157D01*
X195466568Y-76773500D01*
X193103500Y-76773500D01*
X192860914Y-76821754D01*
X192812660Y-76831352D01*
X192566099Y-76996099D01*
X191613599Y-77948599D01*
X191448852Y-78195161D01*
X191391000Y-78486000D01*
X191391000Y-86934198D01*
X190312198Y-88013000D01*
X176657000Y-88013000D01*
X176366160Y-88070852D01*
X176144613Y-88218885D01*
X176090833Y-88218838D01*
X175747057Y-88360883D01*
X175483808Y-88623673D01*
X175341162Y-88967201D01*
X175340838Y-89339167D01*
X175482883Y-89682943D01*
X175745673Y-89946192D01*
X176089201Y-90088838D01*
X176461167Y-90089162D01*
X176782900Y-89956225D01*
X176879883Y-90190943D01*
X177142673Y-90454192D01*
X177486201Y-90596838D01*
X177858167Y-90597162D01*
X178201943Y-90455117D01*
X178465192Y-90192327D01*
X178528029Y-90041000D01*
X180674890Y-90041000D01*
X180674838Y-90101167D01*
X180816883Y-90444943D01*
X181079673Y-90708192D01*
X181423201Y-90850838D01*
X181795167Y-90851162D01*
X182138943Y-90709117D01*
X182299340Y-90549000D01*
X191643000Y-90549000D01*
X191933839Y-90491148D01*
X192180401Y-90326401D01*
X193296000Y-89210802D01*
X193296000Y-96078198D01*
X193137599Y-96236599D01*
X192972852Y-96483161D01*
X192915000Y-96774000D01*
X192915000Y-102174198D01*
X192852198Y-102237000D01*
X192208900Y-102237000D01*
X192310345Y-101727000D01*
X192196271Y-101153511D01*
X191871415Y-100667330D01*
X191556634Y-100457000D01*
X191871415Y-100246670D01*
X192196271Y-99760489D01*
X192310345Y-99187000D01*
X192196271Y-98613511D01*
X191871415Y-98127330D01*
X191556634Y-97917000D01*
X191871415Y-97706670D01*
X192196271Y-97220489D01*
X192310345Y-96647000D01*
X192196271Y-96073511D01*
X191871415Y-95587330D01*
X191385234Y-95262474D01*
X190811745Y-95148400D01*
X190442255Y-95148400D01*
X189868766Y-95262474D01*
X189382585Y-95587330D01*
X189057729Y-96073511D01*
X188943655Y-96647000D01*
X189057729Y-97220489D01*
X189382585Y-97706670D01*
X189697366Y-97917000D01*
X189382585Y-98127330D01*
X189057729Y-98613511D01*
X188943655Y-99187000D01*
X189057729Y-99760489D01*
X189382585Y-100246670D01*
X189697366Y-100457000D01*
X189382585Y-100667330D01*
X189057729Y-101153511D01*
X188943655Y-101727000D01*
X189052138Y-102272379D01*
X188939160Y-102294852D01*
X188692599Y-102459599D01*
X188534198Y-102618000D01*
X181156463Y-102618000D01*
X181124327Y-102585808D01*
X181027131Y-102545448D01*
X181473787Y-102098792D01*
X181473790Y-102098790D01*
X181486998Y-102079023D01*
X181641301Y-102233327D01*
X181874690Y-102330000D01*
X182340250Y-102330000D01*
X182499000Y-102171250D01*
X182499000Y-101072000D01*
X182753000Y-101072000D01*
X182753000Y-102171250D01*
X182911750Y-102330000D01*
X183377310Y-102330000D01*
X183610699Y-102233327D01*
X183789327Y-102054698D01*
X183886000Y-101821309D01*
X183886000Y-101230750D01*
X183727250Y-101072000D01*
X182753000Y-101072000D01*
X182499000Y-101072000D01*
X182479000Y-101072000D01*
X182479000Y-100818000D01*
X182499000Y-100818000D01*
X182499000Y-100798000D01*
X182753000Y-100798000D01*
X182753000Y-100818000D01*
X183727250Y-100818000D01*
X183886000Y-100659250D01*
X183886000Y-100068691D01*
X183789327Y-99835302D01*
X183648090Y-99694064D01*
X183702441Y-99659090D01*
X183847431Y-99446890D01*
X183898440Y-99195000D01*
X183898440Y-97695000D01*
X183854162Y-97459683D01*
X183721947Y-97254216D01*
X183926192Y-97050327D01*
X184068838Y-96706799D01*
X184069162Y-96334833D01*
X183927117Y-95991057D01*
X183664327Y-95727808D01*
X183320799Y-95585162D01*
X182948833Y-95584838D01*
X182605057Y-95726883D01*
X182341808Y-95989673D01*
X182308595Y-96069659D01*
X182276117Y-95991057D01*
X182013327Y-95727808D01*
X181669799Y-95585162D01*
X181297833Y-95584838D01*
X180954057Y-95726883D01*
X180920882Y-95760000D01*
X173355000Y-95760000D01*
X173064161Y-95817852D01*
X172817599Y-95982599D01*
X172690599Y-96109599D01*
X172525852Y-96356161D01*
X172468000Y-96647000D01*
X172468000Y-100330000D01*
X172525852Y-100620839D01*
X172690599Y-100867401D01*
X173532599Y-101709401D01*
X173779161Y-101874148D01*
X173835560Y-101885367D01*
X173835560Y-101922000D01*
X173879838Y-102157317D01*
X174018910Y-102373441D01*
X174231110Y-102518431D01*
X174483000Y-102569440D01*
X175783000Y-102569440D01*
X176018317Y-102525162D01*
X176234441Y-102386090D01*
X176379431Y-102173890D01*
X176430440Y-101922000D01*
X176430440Y-101178242D01*
X176961599Y-101709401D01*
X177208161Y-101874148D01*
X177264560Y-101885367D01*
X177264560Y-101922000D01*
X177308838Y-102157317D01*
X177447910Y-102373441D01*
X177660110Y-102518431D01*
X177912000Y-102569440D01*
X178499980Y-102569440D01*
X178317210Y-102752210D01*
X178317208Y-102752213D01*
X176666210Y-104403210D01*
X176474367Y-104690325D01*
X176474367Y-104690326D01*
X176406999Y-105029000D01*
X176407000Y-105029005D01*
X176407000Y-105043421D01*
X170867701Y-110582719D01*
X170848966Y-110570201D01*
X170645675Y-110434367D01*
X170589484Y-110423190D01*
X170307000Y-110366999D01*
X170306995Y-110367000D01*
X158541887Y-110367000D01*
X158542162Y-110050833D01*
X158494000Y-109934272D01*
X158494000Y-106226463D01*
X158526192Y-106194327D01*
X158668838Y-105850799D01*
X158669162Y-105478833D01*
X158527117Y-105135057D01*
X158264327Y-104871808D01*
X157920799Y-104729162D01*
X157548833Y-104728838D01*
X157205057Y-104870883D01*
X156941808Y-105133673D01*
X156799162Y-105477201D01*
X156798838Y-105849167D01*
X156940883Y-106192943D01*
X156974000Y-106226118D01*
X156974000Y-109546759D01*
X156814808Y-109705673D01*
X156672162Y-110049201D01*
X156671885Y-110367000D01*
X147940580Y-110367000D01*
X147691790Y-110118210D01*
X147691787Y-110118208D01*
X147252201Y-109678622D01*
X147296431Y-109613890D01*
X147347440Y-109362000D01*
X147347440Y-108062000D01*
X147303162Y-107826683D01*
X147164090Y-107610559D01*
X146951890Y-107465569D01*
X146700000Y-107414560D01*
X146537615Y-107414560D01*
X146713729Y-107341611D01*
X146769410Y-107111016D01*
X146050000Y-106391605D01*
X145330590Y-107111016D01*
X145386271Y-107341611D01*
X145595902Y-107414560D01*
X145400000Y-107414560D01*
X145164683Y-107458838D01*
X144948559Y-107597910D01*
X144803569Y-107810110D01*
X144752560Y-108062000D01*
X144752560Y-109362000D01*
X144796838Y-109597317D01*
X144935910Y-109813441D01*
X145148110Y-109958431D01*
X145213469Y-109971666D01*
X145232367Y-110066675D01*
X145380785Y-110288800D01*
X145424210Y-110353790D01*
X146440208Y-111369787D01*
X146440210Y-111369790D01*
X146948208Y-111877787D01*
X146948210Y-111877790D01*
X147149071Y-112012000D01*
X147235325Y-112069633D01*
X147574000Y-112137000D01*
X150990560Y-112137000D01*
X150990560Y-114046000D01*
X151034838Y-114281317D01*
X151173910Y-114497441D01*
X151386110Y-114642431D01*
X151638000Y-114693440D01*
X153670000Y-114693440D01*
X153905317Y-114649162D01*
X154121441Y-114510090D01*
X154232840Y-114347052D01*
X154329182Y-114436385D01*
X154811056Y-114635975D01*
X155067000Y-114516836D01*
X155067000Y-113157000D01*
X155321000Y-113157000D01*
X155321000Y-114516836D01*
X155576944Y-114635975D01*
X156058818Y-114436385D01*
X156459246Y-114065087D01*
X157899816Y-114065087D01*
X158044076Y-114300000D01*
X159258000Y-114300000D01*
X159258000Y-112940783D01*
X159025974Y-112819642D01*
X159010209Y-112822291D01*
X158482964Y-113076268D01*
X158093046Y-113512680D01*
X157899816Y-114065087D01*
X156459246Y-114065087D01*
X156531188Y-113998379D01*
X156799983Y-113412946D01*
X156681367Y-113157000D01*
X155321000Y-113157000D01*
X155067000Y-113157000D01*
X155047000Y-113157000D01*
X155047000Y-112903000D01*
X155067000Y-112903000D01*
X155067000Y-112883000D01*
X155321000Y-112883000D01*
X155321000Y-112903000D01*
X156681367Y-112903000D01*
X156799983Y-112647054D01*
X156565797Y-112137000D01*
X169940420Y-112137000D01*
X170252709Y-112449288D01*
X170252710Y-112449290D01*
X170570208Y-112766787D01*
X170570210Y-112766790D01*
X170761991Y-112958571D01*
X170624969Y-113159110D01*
X170616600Y-113200439D01*
X170604670Y-113182585D01*
X170118489Y-112857729D01*
X169545000Y-112743655D01*
X168971511Y-112857729D01*
X168485330Y-113182585D01*
X168275000Y-113497366D01*
X168064670Y-113182585D01*
X167578489Y-112857729D01*
X167005000Y-112743655D01*
X166431511Y-112857729D01*
X165945330Y-113182585D01*
X165735000Y-113497366D01*
X165524670Y-113182585D01*
X165038489Y-112857729D01*
X164465000Y-112743655D01*
X163891511Y-112857729D01*
X163405330Y-113182585D01*
X163195000Y-113497366D01*
X162984670Y-113182585D01*
X162498489Y-112857729D01*
X161925000Y-112743655D01*
X161351511Y-112857729D01*
X160865330Y-113182585D01*
X160658539Y-113492069D01*
X160287036Y-113076268D01*
X159759791Y-112822291D01*
X159744026Y-112819642D01*
X159512000Y-112940783D01*
X159512000Y-114300000D01*
X159532000Y-114300000D01*
X159532000Y-114554000D01*
X159512000Y-114554000D01*
X159512000Y-115913217D01*
X159744026Y-116034358D01*
X159759791Y-116031709D01*
X160287036Y-115777732D01*
X160658539Y-115361931D01*
X160865330Y-115671415D01*
X161351511Y-115996271D01*
X161925000Y-116110345D01*
X162498489Y-115996271D01*
X162984670Y-115671415D01*
X163195000Y-115356634D01*
X163405330Y-115671415D01*
X163891511Y-115996271D01*
X164465000Y-116110345D01*
X165038489Y-115996271D01*
X165524670Y-115671415D01*
X165735000Y-115356634D01*
X165945330Y-115671415D01*
X166431511Y-115996271D01*
X167005000Y-116110345D01*
X167578489Y-115996271D01*
X168064670Y-115671415D01*
X168275000Y-115356634D01*
X168485330Y-115671415D01*
X168971511Y-115996271D01*
X169545000Y-116110345D01*
X170118489Y-115996271D01*
X170604670Y-115671415D01*
X170614243Y-115657087D01*
X170618238Y-115678317D01*
X170757310Y-115894441D01*
X170969510Y-116039431D01*
X171221400Y-116090440D01*
X172948600Y-116090440D01*
X173183917Y-116046162D01*
X173400041Y-115907090D01*
X173545031Y-115694890D01*
X173596040Y-115443000D01*
X173596040Y-115187000D01*
X176911000Y-115187000D01*
X177201839Y-115129148D01*
X177448401Y-114964401D01*
X178511605Y-113901197D01*
X178590910Y-114024441D01*
X178803110Y-114169431D01*
X178816197Y-114172081D01*
X178603559Y-114308910D01*
X178458569Y-114521110D01*
X178407560Y-114773000D01*
X178407560Y-114803069D01*
X178366414Y-114811254D01*
X178318160Y-114820852D01*
X178071599Y-114985599D01*
X178041320Y-115015878D01*
X177995833Y-115015838D01*
X177652057Y-115157883D01*
X177388808Y-115420673D01*
X177246162Y-115764201D01*
X177245838Y-116136167D01*
X177387883Y-116479943D01*
X177650673Y-116743192D01*
X177994201Y-116885838D01*
X178366167Y-116886162D01*
X178653711Y-116767351D01*
X178803110Y-116869431D01*
X179055000Y-116920440D01*
X179925642Y-116920440D01*
X181315233Y-118493000D01*
X176209802Y-118493000D01*
X175687122Y-117970320D01*
X175687162Y-117924833D01*
X175545117Y-117581057D01*
X175282327Y-117317808D01*
X174938799Y-117175162D01*
X174566833Y-117174838D01*
X174223057Y-117316883D01*
X174189882Y-117350000D01*
X163703000Y-117350000D01*
X163412160Y-117407852D01*
X163165599Y-117572599D01*
X161991198Y-118747000D01*
X148015802Y-118747000D01*
X146841401Y-117572599D01*
X146594839Y-117407852D01*
X146304000Y-117350000D01*
X119186802Y-117350000D01*
X118266577Y-116429775D01*
X122435803Y-116429775D01*
X122608233Y-116847086D01*
X122927235Y-117166645D01*
X123344244Y-117339803D01*
X123795775Y-117340197D01*
X124213086Y-117167767D01*
X124416207Y-116965000D01*
X132397500Y-116965000D01*
X132688339Y-116907148D01*
X132934901Y-116742401D01*
X134490302Y-115187000D01*
X135830258Y-115187000D01*
X135853838Y-115312317D01*
X135992910Y-115528441D01*
X136205110Y-115673431D01*
X136457000Y-115724440D01*
X137957000Y-115724440D01*
X138192317Y-115680162D01*
X138408441Y-115541090D01*
X138553431Y-115328890D01*
X138556081Y-115315803D01*
X138692910Y-115528441D01*
X138905110Y-115673431D01*
X139157000Y-115724440D01*
X140657000Y-115724440D01*
X140802830Y-115697000D01*
X150990560Y-115697000D01*
X150990560Y-117729000D01*
X151034838Y-117964317D01*
X151173910Y-118180441D01*
X151386110Y-118325431D01*
X151638000Y-118376440D01*
X153670000Y-118376440D01*
X153905317Y-118332162D01*
X154121441Y-118193090D01*
X154232840Y-118030052D01*
X154329182Y-118119385D01*
X154811056Y-118318975D01*
X155067000Y-118199836D01*
X155067000Y-116840000D01*
X155321000Y-116840000D01*
X155321000Y-118199836D01*
X155576944Y-118318975D01*
X156058818Y-118119385D01*
X156531188Y-117681379D01*
X156799983Y-117095946D01*
X156681367Y-116840000D01*
X155321000Y-116840000D01*
X155067000Y-116840000D01*
X155047000Y-116840000D01*
X155047000Y-116586000D01*
X155067000Y-116586000D01*
X155067000Y-115226164D01*
X155321000Y-115226164D01*
X155321000Y-116586000D01*
X156681367Y-116586000D01*
X156799983Y-116330054D01*
X156531188Y-115744621D01*
X156058818Y-115306615D01*
X155576944Y-115107025D01*
X155321000Y-115226164D01*
X155067000Y-115226164D01*
X154811056Y-115107025D01*
X154329182Y-115306615D01*
X154231602Y-115397097D01*
X154134090Y-115245559D01*
X153921890Y-115100569D01*
X153670000Y-115049560D01*
X151638000Y-115049560D01*
X151402683Y-115093838D01*
X151186559Y-115232910D01*
X151041569Y-115445110D01*
X150990560Y-115697000D01*
X140802830Y-115697000D01*
X140892317Y-115680162D01*
X141108441Y-115541090D01*
X141253431Y-115328890D01*
X141282164Y-115187000D01*
X141625311Y-115187000D01*
X141639378Y-115261757D01*
X141778450Y-115477881D01*
X141990650Y-115622871D01*
X142242540Y-115673880D01*
X143441420Y-115673880D01*
X143676737Y-115629602D01*
X143892861Y-115490530D01*
X143898456Y-115482341D01*
X143980882Y-115564767D01*
X144214271Y-115661440D01*
X144654270Y-115661440D01*
X144813020Y-115502690D01*
X144813020Y-114554000D01*
X145067020Y-114554000D01*
X145067020Y-115502690D01*
X145225770Y-115661440D01*
X145665769Y-115661440D01*
X145899158Y-115564767D01*
X146077787Y-115386139D01*
X146174460Y-115152750D01*
X146174460Y-114788913D01*
X157899816Y-114788913D01*
X158093046Y-115341320D01*
X158482964Y-115777732D01*
X159010209Y-116031709D01*
X159025974Y-116034358D01*
X159258000Y-115913217D01*
X159258000Y-114554000D01*
X158044076Y-114554000D01*
X157899816Y-114788913D01*
X146174460Y-114788913D01*
X146174460Y-114712750D01*
X146015710Y-114554000D01*
X145067020Y-114554000D01*
X144813020Y-114554000D01*
X144793020Y-114554000D01*
X144793020Y-114300000D01*
X144813020Y-114300000D01*
X144813020Y-113351310D01*
X145067020Y-113351310D01*
X145067020Y-114300000D01*
X146015710Y-114300000D01*
X146174460Y-114141250D01*
X146174460Y-113701250D01*
X146077787Y-113467861D01*
X145899158Y-113289233D01*
X145665769Y-113192560D01*
X145225770Y-113192560D01*
X145067020Y-113351310D01*
X144813020Y-113351310D01*
X144654270Y-113192560D01*
X144214271Y-113192560D01*
X143980882Y-113289233D01*
X143898669Y-113371445D01*
X143693310Y-113231129D01*
X143441420Y-113180120D01*
X142242540Y-113180120D01*
X142007223Y-113224398D01*
X141791099Y-113363470D01*
X141646109Y-113575670D01*
X141627614Y-113667000D01*
X141283742Y-113667000D01*
X141260162Y-113541683D01*
X141121090Y-113325559D01*
X140908890Y-113180569D01*
X140657000Y-113129560D01*
X139157000Y-113129560D01*
X138921683Y-113173838D01*
X138705559Y-113312910D01*
X138560569Y-113525110D01*
X138557919Y-113538197D01*
X138421090Y-113325559D01*
X138208890Y-113180569D01*
X137957000Y-113129560D01*
X136457000Y-113129560D01*
X136221683Y-113173838D01*
X136005559Y-113312910D01*
X135860569Y-113525110D01*
X135831836Y-113667000D01*
X134175500Y-113667000D01*
X133884661Y-113724852D01*
X133638099Y-113889599D01*
X132082698Y-115445000D01*
X124416059Y-115445000D01*
X124214765Y-115243355D01*
X123797756Y-115070197D01*
X123346225Y-115069803D01*
X122928914Y-115242233D01*
X122609355Y-115561235D01*
X122436197Y-115978244D01*
X122435803Y-116429775D01*
X118266577Y-116429775D01*
X116584000Y-114747198D01*
X116584000Y-105874059D01*
X116785645Y-105672765D01*
X116954383Y-105266400D01*
X128921260Y-105266400D01*
X128921260Y-106366400D01*
X128965538Y-106601717D01*
X129104610Y-106817841D01*
X129109073Y-106820890D01*
X128972269Y-107021110D01*
X128921260Y-107273000D01*
X128921260Y-108373000D01*
X128965538Y-108608317D01*
X129099368Y-108816295D01*
X128972269Y-109002310D01*
X128921260Y-109254200D01*
X128921260Y-110354200D01*
X128965538Y-110589517D01*
X129104610Y-110805641D01*
X129316810Y-110950631D01*
X129568700Y-111001640D01*
X131568700Y-111001640D01*
X131804017Y-110957362D01*
X132020141Y-110818290D01*
X132108344Y-110689200D01*
X137591795Y-110689200D01*
X137591800Y-110689201D01*
X137908470Y-110626210D01*
X137930475Y-110621833D01*
X138217590Y-110429990D01*
X138384140Y-110263440D01*
X139080000Y-110263440D01*
X139315317Y-110219162D01*
X139531441Y-110080090D01*
X139676431Y-109867890D01*
X139727440Y-109616000D01*
X139727440Y-108316000D01*
X139683162Y-108080683D01*
X139544090Y-107864559D01*
X139331890Y-107719569D01*
X139080000Y-107668560D01*
X138917615Y-107668560D01*
X139093729Y-107595611D01*
X139149410Y-107365016D01*
X138430000Y-106645605D01*
X137710590Y-107365016D01*
X137766271Y-107595611D01*
X137975902Y-107668560D01*
X137780000Y-107668560D01*
X137544683Y-107712838D01*
X137328559Y-107851910D01*
X137183569Y-108064110D01*
X137132560Y-108316000D01*
X137132560Y-108919200D01*
X132107718Y-108919200D01*
X132038032Y-108810905D01*
X132165131Y-108624890D01*
X132216140Y-108373000D01*
X132216140Y-107273000D01*
X132171862Y-107037683D01*
X132032790Y-106821559D01*
X132028327Y-106818510D01*
X132165131Y-106618290D01*
X132216140Y-106366400D01*
X132216140Y-106285078D01*
X137132378Y-106285078D01*
X137161917Y-106795428D01*
X137300389Y-107129729D01*
X137530984Y-107185410D01*
X138250395Y-106466000D01*
X138609605Y-106466000D01*
X139329016Y-107185410D01*
X139559611Y-107129729D01*
X139727622Y-106646922D01*
X139698083Y-106136572D01*
X139654386Y-106031078D01*
X144752378Y-106031078D01*
X144781917Y-106541428D01*
X144920389Y-106875729D01*
X145150984Y-106931410D01*
X145870395Y-106212000D01*
X146229605Y-106212000D01*
X146949016Y-106931410D01*
X147179611Y-106875729D01*
X147347622Y-106392922D01*
X147318083Y-105882572D01*
X147179611Y-105548271D01*
X146949016Y-105492590D01*
X146229605Y-106212000D01*
X145870395Y-106212000D01*
X145150984Y-105492590D01*
X144920389Y-105548271D01*
X144752378Y-106031078D01*
X139654386Y-106031078D01*
X139559611Y-105802271D01*
X139329016Y-105746590D01*
X138609605Y-106466000D01*
X138250395Y-106466000D01*
X137530984Y-105746590D01*
X137300389Y-105802271D01*
X137132378Y-106285078D01*
X132216140Y-106285078D01*
X132216140Y-105566984D01*
X137710590Y-105566984D01*
X138430000Y-106286395D01*
X139149410Y-105566984D01*
X139093729Y-105336389D01*
X139026471Y-105312984D01*
X145330590Y-105312984D01*
X146050000Y-106032395D01*
X146769410Y-105312984D01*
X146713729Y-105082389D01*
X146230922Y-104914378D01*
X145720572Y-104943917D01*
X145386271Y-105082389D01*
X145330590Y-105312984D01*
X139026471Y-105312984D01*
X138610922Y-105168378D01*
X138100572Y-105197917D01*
X137766271Y-105336389D01*
X137710590Y-105566984D01*
X132216140Y-105566984D01*
X132216140Y-105266400D01*
X132171862Y-105031083D01*
X132032790Y-104814959D01*
X132020182Y-104806344D01*
X132107027Y-104719499D01*
X132203700Y-104486110D01*
X132203700Y-104095550D01*
X132044950Y-103936800D01*
X130695700Y-103936800D01*
X130695700Y-103956800D01*
X130441700Y-103956800D01*
X130441700Y-103936800D01*
X129092450Y-103936800D01*
X128933700Y-104095550D01*
X128933700Y-104486110D01*
X129030373Y-104719499D01*
X129115605Y-104804731D01*
X128972269Y-105014510D01*
X128921260Y-105266400D01*
X116954383Y-105266400D01*
X116958803Y-105255756D01*
X116959197Y-104804225D01*
X116786767Y-104386914D01*
X116467765Y-104067355D01*
X116050756Y-103894197D01*
X115599225Y-103893803D01*
X115181914Y-104066233D01*
X114862355Y-104385235D01*
X114689197Y-104802244D01*
X114688803Y-105253775D01*
X113994000Y-105253775D01*
X113994000Y-102774750D01*
X124079000Y-102774750D01*
X124079000Y-103885309D01*
X124175673Y-104118698D01*
X124354301Y-104297327D01*
X124587690Y-104394000D01*
X125698250Y-104394000D01*
X125857000Y-104235250D01*
X125857000Y-102616000D01*
X126111000Y-102616000D01*
X126111000Y-104235250D01*
X126269750Y-104394000D01*
X127380310Y-104394000D01*
X127613699Y-104297327D01*
X127792327Y-104118698D01*
X127889000Y-103885309D01*
X127889000Y-103133490D01*
X128933700Y-103133490D01*
X128933700Y-103524050D01*
X129092450Y-103682800D01*
X130441700Y-103682800D01*
X130441700Y-102783550D01*
X130695700Y-102783550D01*
X130695700Y-103682800D01*
X132044950Y-103682800D01*
X132130002Y-103597748D01*
X132182853Y-103725658D01*
X132923443Y-104467542D01*
X133891567Y-104869542D01*
X134939834Y-104870457D01*
X135908658Y-104470147D01*
X136650542Y-103729557D01*
X136967176Y-102967016D01*
X150156590Y-102967016D01*
X150212271Y-103197611D01*
X150695078Y-103365622D01*
X151205428Y-103336083D01*
X151539729Y-103197611D01*
X151595410Y-102967016D01*
X150876000Y-102247605D01*
X150156590Y-102967016D01*
X136967176Y-102967016D01*
X137052542Y-102761433D01*
X137053457Y-101713166D01*
X136653147Y-100744342D01*
X135912557Y-100002458D01*
X134944433Y-99600458D01*
X133896166Y-99599543D01*
X132927342Y-99999853D01*
X132185458Y-100740443D01*
X131783458Y-101708567D01*
X131782627Y-102661092D01*
X131695009Y-102624800D01*
X130854450Y-102624800D01*
X130695700Y-102783550D01*
X130441700Y-102783550D01*
X130282950Y-102624800D01*
X129442391Y-102624800D01*
X129209002Y-102721473D01*
X129030373Y-102900101D01*
X128933700Y-103133490D01*
X127889000Y-103133490D01*
X127889000Y-102774750D01*
X127730250Y-102616000D01*
X126111000Y-102616000D01*
X125857000Y-102616000D01*
X124237750Y-102616000D01*
X124079000Y-102774750D01*
X113994000Y-102774750D01*
X113994000Y-101092691D01*
X124079000Y-101092691D01*
X124079000Y-102203250D01*
X124237750Y-102362000D01*
X125857000Y-102362000D01*
X125857000Y-100742750D01*
X126111000Y-100742750D01*
X126111000Y-102362000D01*
X127730250Y-102362000D01*
X127889000Y-102203250D01*
X127889000Y-101092691D01*
X127792327Y-100859302D01*
X127613699Y-100680673D01*
X127380310Y-100584000D01*
X126269750Y-100584000D01*
X126111000Y-100742750D01*
X125857000Y-100742750D01*
X125698250Y-100584000D01*
X124587690Y-100584000D01*
X124354301Y-100680673D01*
X124175673Y-100859302D01*
X124079000Y-101092691D01*
X113994000Y-101092691D01*
X113994000Y-91678750D01*
X114539000Y-91678750D01*
X114539000Y-92269309D01*
X114635673Y-92502698D01*
X114814301Y-92681327D01*
X115047690Y-92778000D01*
X115538250Y-92778000D01*
X115697000Y-92619250D01*
X115697000Y-91520000D01*
X114697750Y-91520000D01*
X114539000Y-91678750D01*
X113994000Y-91678750D01*
X113994000Y-76962000D01*
X114049999Y-76962000D01*
X114050000Y-76962005D01*
X114050000Y-80899000D01*
X114056445Y-80931400D01*
X114052404Y-80964187D01*
X114089929Y-81099734D01*
X114117367Y-81237675D01*
X114135720Y-81265143D01*
X114144534Y-81296980D01*
X115432314Y-83854761D01*
X115518849Y-83965623D01*
X115574712Y-84049229D01*
X115582788Y-84092147D01*
X115721860Y-84308271D01*
X115868213Y-84408270D01*
X115235950Y-84408270D01*
X115000633Y-84452548D01*
X114784509Y-84591620D01*
X114639519Y-84803820D01*
X114588510Y-85055710D01*
X114588510Y-85855810D01*
X114632788Y-86091127D01*
X114771860Y-86307251D01*
X114984060Y-86452241D01*
X115235950Y-86503250D01*
X115442943Y-86503250D01*
X116256184Y-87295560D01*
X115174000Y-87295560D01*
X114938683Y-87339838D01*
X114722559Y-87478910D01*
X114577569Y-87691110D01*
X114526560Y-87943000D01*
X114526560Y-89443000D01*
X114570838Y-89678317D01*
X114709910Y-89894441D01*
X114922110Y-90039431D01*
X114955490Y-90046191D01*
X114814301Y-90104673D01*
X114635673Y-90283302D01*
X114539000Y-90516691D01*
X114539000Y-91107250D01*
X114697750Y-91266000D01*
X115697000Y-91266000D01*
X115697000Y-91246000D01*
X115951000Y-91246000D01*
X115951000Y-91266000D01*
X115971000Y-91266000D01*
X115971000Y-91520000D01*
X115951000Y-91520000D01*
X115951000Y-92619250D01*
X116109750Y-92778000D01*
X116600310Y-92778000D01*
X116833699Y-92681327D01*
X117012327Y-92502698D01*
X117032514Y-92453962D01*
X117122910Y-92594441D01*
X117223000Y-92662830D01*
X117223000Y-94300198D01*
X115286599Y-96236599D01*
X115121852Y-96483161D01*
X115064000Y-96774000D01*
X115064000Y-98214941D01*
X114862355Y-98416235D01*
X114689197Y-98833244D01*
X114688803Y-99284775D01*
X114861233Y-99702086D01*
X115180235Y-100021645D01*
X115597244Y-100194803D01*
X116048775Y-100195197D01*
X116466086Y-100022767D01*
X116785645Y-99703765D01*
X116958803Y-99286756D01*
X116959197Y-98835225D01*
X116786767Y-98417914D01*
X116584000Y-98214793D01*
X116584000Y-97088802D01*
X118520401Y-95152401D01*
X118685148Y-94905840D01*
X118705832Y-94801852D01*
X118743000Y-94615000D01*
X118743000Y-92790440D01*
X118887000Y-92790440D01*
X119122317Y-92746162D01*
X119338441Y-92607090D01*
X119483431Y-92394890D01*
X119534440Y-92143000D01*
X119534440Y-90643000D01*
X119490162Y-90407683D01*
X119351090Y-90191559D01*
X119138890Y-90046569D01*
X119125803Y-90043919D01*
X119338441Y-89907090D01*
X119483431Y-89694890D01*
X119534440Y-89443000D01*
X119534440Y-87943000D01*
X119490162Y-87707683D01*
X119351090Y-87491559D01*
X119138890Y-87346569D01*
X118887000Y-87295560D01*
X118773139Y-87295560D01*
X118039790Y-86562210D01*
X118034905Y-86558946D01*
X118031579Y-86554106D01*
X117966611Y-86490810D01*
X118062359Y-86490810D01*
X118295748Y-86394137D01*
X118474377Y-86215509D01*
X118571050Y-85982120D01*
X118571050Y-85741510D01*
X118412300Y-85582760D01*
X117663000Y-85582760D01*
X117663000Y-85602760D01*
X117409000Y-85602760D01*
X117409000Y-85582760D01*
X117389000Y-85582760D01*
X117389000Y-85328760D01*
X117409000Y-85328760D01*
X117409000Y-84579460D01*
X117663000Y-84579460D01*
X117663000Y-85328760D01*
X118412300Y-85328760D01*
X118571050Y-85170010D01*
X118571050Y-84929400D01*
X118474377Y-84696011D01*
X118295748Y-84517383D01*
X118062359Y-84420710D01*
X117821750Y-84420710D01*
X117663000Y-84579460D01*
X117409000Y-84579460D01*
X117262843Y-84433303D01*
X117437491Y-84320920D01*
X117582481Y-84108720D01*
X117633490Y-83856830D01*
X117633490Y-83056730D01*
X117589212Y-82821413D01*
X117450140Y-82605289D01*
X117237940Y-82460299D01*
X116986050Y-82409290D01*
X116686234Y-82409290D01*
X115820000Y-80688783D01*
X115820000Y-79813419D01*
X115861670Y-79841891D01*
X116113560Y-79892900D01*
X117312440Y-79892900D01*
X117547757Y-79848622D01*
X117701560Y-79749652D01*
X117701560Y-80078000D01*
X117745838Y-80313317D01*
X117884910Y-80529441D01*
X118097110Y-80674431D01*
X118349000Y-80725440D01*
X119649000Y-80725440D01*
X119884317Y-80681162D01*
X120100441Y-80542090D01*
X120245431Y-80329890D01*
X120296440Y-80078000D01*
X120296440Y-78578000D01*
X120252162Y-78342683D01*
X120217974Y-78289554D01*
X120654000Y-78725579D01*
X120654000Y-92963995D01*
X120653999Y-92964000D01*
X120683973Y-93114685D01*
X120721367Y-93302675D01*
X120913210Y-93589790D01*
X124159284Y-96835863D01*
X124079332Y-97028410D01*
X124078670Y-97786265D01*
X124368078Y-98486686D01*
X124903495Y-99023039D01*
X125603410Y-99313668D01*
X126361265Y-99314330D01*
X127061686Y-99024922D01*
X127598039Y-98489505D01*
X127888668Y-97789590D01*
X127889330Y-97031735D01*
X127613335Y-96363775D01*
X128404803Y-96363775D01*
X128577233Y-96781086D01*
X128896235Y-97100645D01*
X129313244Y-97273803D01*
X129764775Y-97274197D01*
X130182086Y-97101767D01*
X130501645Y-96782765D01*
X130674803Y-96365756D01*
X130675197Y-95914225D01*
X130556518Y-95627000D01*
X134888420Y-95627000D01*
X136021000Y-96759579D01*
X136021000Y-98765355D01*
X136020999Y-98765360D01*
X136064172Y-98982401D01*
X136088367Y-99104035D01*
X136280210Y-99391150D01*
X137828248Y-100939187D01*
X137811794Y-100978813D01*
X137811226Y-101629054D01*
X138059538Y-102230015D01*
X138518927Y-102690206D01*
X139119453Y-102939566D01*
X139769694Y-102940134D01*
X140370655Y-102691822D01*
X140732584Y-102330523D01*
X144061443Y-102330523D01*
X144160042Y-102597325D01*
X144769582Y-102823761D01*
X145419377Y-102799701D01*
X145907958Y-102597325D01*
X146006557Y-102330523D01*
X145034000Y-101357965D01*
X144061443Y-102330523D01*
X140732584Y-102330523D01*
X140830846Y-102232433D01*
X141080206Y-101631907D01*
X141080424Y-101382256D01*
X141548737Y-100913942D01*
X143388599Y-100913942D01*
X143412659Y-101563737D01*
X143615035Y-102052318D01*
X143881837Y-102150917D01*
X144854395Y-101178360D01*
X145213605Y-101178360D01*
X146186163Y-102150917D01*
X146452965Y-102052318D01*
X146514349Y-101887078D01*
X149578378Y-101887078D01*
X149607917Y-102397428D01*
X149746389Y-102731729D01*
X149976984Y-102787410D01*
X150696395Y-102068000D01*
X151055605Y-102068000D01*
X151775016Y-102787410D01*
X152005611Y-102731729D01*
X152173622Y-102248922D01*
X152144083Y-101738572D01*
X152005611Y-101404271D01*
X151775016Y-101348590D01*
X151055605Y-102068000D01*
X150696395Y-102068000D01*
X149976984Y-101348590D01*
X149746389Y-101404271D01*
X149578378Y-101887078D01*
X146514349Y-101887078D01*
X146679401Y-101442778D01*
X146655341Y-100792983D01*
X146452965Y-100304402D01*
X146186163Y-100205803D01*
X145213605Y-101178360D01*
X144854395Y-101178360D01*
X143881837Y-100205803D01*
X143615035Y-100304402D01*
X143388599Y-100913942D01*
X141548737Y-100913942D01*
X142436482Y-100026197D01*
X144061443Y-100026197D01*
X145034000Y-100998755D01*
X146006557Y-100026197D01*
X145907958Y-99759395D01*
X145298418Y-99532959D01*
X144648623Y-99557019D01*
X144160042Y-99759395D01*
X144061443Y-100026197D01*
X142436482Y-100026197D01*
X144667827Y-97794852D01*
X144707453Y-97811306D01*
X145357694Y-97811874D01*
X145958655Y-97563562D01*
X146418846Y-97104173D01*
X146668206Y-96503647D01*
X146668774Y-95853406D01*
X146420462Y-95252445D01*
X145961073Y-94792254D01*
X145360547Y-94542894D01*
X144710306Y-94542326D01*
X144109345Y-94790638D01*
X143649154Y-95250027D01*
X143399794Y-95850553D01*
X143399226Y-96500794D01*
X143416623Y-96542898D01*
X140137023Y-99822497D01*
X139772547Y-99671154D01*
X139122306Y-99670586D01*
X139080202Y-99687983D01*
X137791000Y-98398780D01*
X137791000Y-96627794D01*
X137811226Y-96627794D01*
X138059538Y-97228755D01*
X138518927Y-97688946D01*
X139119453Y-97938306D01*
X139769694Y-97938874D01*
X140370655Y-97690562D01*
X140830846Y-97231173D01*
X141080206Y-96630647D01*
X141080774Y-95980406D01*
X140832462Y-95379445D01*
X140373073Y-94919254D01*
X139772547Y-94669894D01*
X139122306Y-94669326D01*
X138521345Y-94917638D01*
X138061154Y-95377027D01*
X137811794Y-95977553D01*
X137811226Y-96627794D01*
X137791000Y-96627794D01*
X137791000Y-96393005D01*
X137791001Y-96393000D01*
X137723634Y-96054326D01*
X137647667Y-95940633D01*
X137531790Y-95767210D01*
X137531787Y-95767208D01*
X135880790Y-94116210D01*
X135657583Y-93967069D01*
X135593675Y-93924367D01*
X135537484Y-93913190D01*
X135255000Y-93856999D01*
X135254995Y-93857000D01*
X130175000Y-93857000D01*
X129836325Y-93924367D01*
X129549210Y-94116210D01*
X129549208Y-94116213D01*
X129041210Y-94624210D01*
X128849367Y-94911325D01*
X128849367Y-94911326D01*
X128781999Y-95250000D01*
X128782000Y-95250005D01*
X128782000Y-95291945D01*
X128578355Y-95495235D01*
X128405197Y-95912244D01*
X128404803Y-96363775D01*
X127613335Y-96363775D01*
X127599922Y-96331314D01*
X127064505Y-95794961D01*
X126364590Y-95504332D01*
X125606735Y-95503670D01*
X125411089Y-95584509D01*
X122424000Y-92597420D01*
X122424000Y-87592535D01*
X122437155Y-87624372D01*
X123065321Y-88253636D01*
X123886481Y-88594611D01*
X124775619Y-88595387D01*
X125597372Y-88255845D01*
X126226636Y-87627679D01*
X126567611Y-86806519D01*
X126568387Y-85917381D01*
X126278702Y-85216290D01*
X126567611Y-84520519D01*
X126568387Y-83631381D01*
X126228845Y-82809628D01*
X126223768Y-82804542D01*
X126226636Y-82801679D01*
X126567611Y-81980519D01*
X126568387Y-81091381D01*
X126228845Y-80269628D01*
X125969671Y-80010000D01*
X127094655Y-80010000D01*
X127208729Y-80583489D01*
X127533585Y-81069670D01*
X127848366Y-81280000D01*
X127533585Y-81490330D01*
X127208729Y-81976511D01*
X127094655Y-82550000D01*
X127208729Y-83123489D01*
X127533585Y-83609670D01*
X127848366Y-83820000D01*
X127533585Y-84030330D01*
X127208729Y-84516511D01*
X127094655Y-85090000D01*
X127208729Y-85663489D01*
X127533585Y-86149670D01*
X127848366Y-86360000D01*
X127533585Y-86570330D01*
X127208729Y-87056511D01*
X127094655Y-87630000D01*
X127208729Y-88203489D01*
X127533585Y-88689670D01*
X127547913Y-88699243D01*
X127526683Y-88703238D01*
X127310559Y-88842310D01*
X127165569Y-89054510D01*
X127114560Y-89306400D01*
X127114560Y-91033600D01*
X127158838Y-91268917D01*
X127297910Y-91485041D01*
X127510110Y-91630031D01*
X127762000Y-91681040D01*
X129794000Y-91681040D01*
X130029317Y-91636762D01*
X130245441Y-91497690D01*
X130390431Y-91285490D01*
X130441440Y-91033600D01*
X130441440Y-89306400D01*
X130397162Y-89071083D01*
X130258090Y-88854959D01*
X130045890Y-88709969D01*
X130004561Y-88701600D01*
X130022415Y-88689670D01*
X130347271Y-88203489D01*
X130461345Y-87630000D01*
X130347271Y-87056511D01*
X130022415Y-86570330D01*
X129707634Y-86360000D01*
X130022415Y-86149670D01*
X130347271Y-85663489D01*
X130461345Y-85090000D01*
X130347271Y-84516511D01*
X130022415Y-84030330D01*
X129707634Y-83820000D01*
X130022415Y-83609670D01*
X130347271Y-83123489D01*
X130461345Y-82550000D01*
X130347271Y-81976511D01*
X130022415Y-81490330D01*
X129707634Y-81280000D01*
X130022415Y-81069670D01*
X130347271Y-80583489D01*
X130447703Y-80078580D01*
X131603331Y-80078580D01*
X131708758Y-80608597D01*
X132008988Y-81057923D01*
X132443987Y-81348580D01*
X132008988Y-81639237D01*
X131708758Y-82088563D01*
X131603331Y-82618580D01*
X131708758Y-83148597D01*
X132008988Y-83597923D01*
X132443987Y-83888580D01*
X132008988Y-84179237D01*
X131708758Y-84628563D01*
X131603331Y-85158580D01*
X131708758Y-85688597D01*
X132008988Y-86137923D01*
X132443987Y-86428580D01*
X132008988Y-86719237D01*
X131708758Y-87168563D01*
X131603331Y-87698580D01*
X131708758Y-88228597D01*
X132008988Y-88677923D01*
X132082930Y-88727329D01*
X132039943Y-88735418D01*
X131823819Y-88874490D01*
X131678829Y-89086690D01*
X131627820Y-89338580D01*
X131627820Y-91138580D01*
X131672098Y-91373897D01*
X131811170Y-91590021D01*
X132023370Y-91735011D01*
X132275260Y-91786020D01*
X134775260Y-91786020D01*
X135010577Y-91741742D01*
X135226701Y-91602670D01*
X135371691Y-91390470D01*
X135422700Y-91138580D01*
X135422700Y-89338580D01*
X135378422Y-89103263D01*
X135239350Y-88887139D01*
X135100103Y-88791995D01*
X138077416Y-88791995D01*
X138325806Y-89393143D01*
X138785337Y-89853478D01*
X139386052Y-90102916D01*
X140036495Y-90103484D01*
X140637643Y-89855094D01*
X141097978Y-89395563D01*
X141332780Y-88830095D01*
X143792416Y-88830095D01*
X144040806Y-89431243D01*
X144500337Y-89891578D01*
X145101052Y-90141016D01*
X145751495Y-90141584D01*
X146352643Y-89893194D01*
X146812978Y-89433663D01*
X147062416Y-88832948D01*
X147062984Y-88182505D01*
X146814594Y-87581357D01*
X146355063Y-87121022D01*
X145754348Y-86871584D01*
X145103905Y-86871016D01*
X144502757Y-87119406D01*
X144042422Y-87578937D01*
X143792984Y-88179652D01*
X143792416Y-88830095D01*
X141332780Y-88830095D01*
X141347416Y-88794848D01*
X141347984Y-88144405D01*
X141099594Y-87543257D01*
X140640063Y-87082922D01*
X140039348Y-86833484D01*
X139388905Y-86832916D01*
X138787757Y-87081306D01*
X138327422Y-87540837D01*
X138077984Y-88141552D01*
X138077416Y-88791995D01*
X135100103Y-88791995D01*
X135027150Y-88742149D01*
X134964422Y-88729446D01*
X135041532Y-88677923D01*
X135341762Y-88228597D01*
X135447189Y-87698580D01*
X135341762Y-87168563D01*
X135041532Y-86719237D01*
X134606533Y-86428580D01*
X135041532Y-86137923D01*
X135341762Y-85688597D01*
X135447189Y-85158580D01*
X135341762Y-84628563D01*
X135041532Y-84179237D01*
X134606533Y-83888580D01*
X135041532Y-83597923D01*
X135341762Y-83148597D01*
X135447189Y-82618580D01*
X135341762Y-82088563D01*
X135041532Y-81639237D01*
X134606533Y-81348580D01*
X135041532Y-81057923D01*
X135341762Y-80608597D01*
X135447189Y-80078580D01*
X135341762Y-79548563D01*
X135041532Y-79099237D01*
X134592206Y-78799007D01*
X134062189Y-78693580D01*
X132988331Y-78693580D01*
X132458314Y-78799007D01*
X132008988Y-79099237D01*
X131708758Y-79548563D01*
X131603331Y-80078580D01*
X130447703Y-80078580D01*
X130461345Y-80010000D01*
X130347271Y-79436511D01*
X130022415Y-78950330D01*
X129536234Y-78625474D01*
X128962745Y-78511400D01*
X128593255Y-78511400D01*
X128019766Y-78625474D01*
X127533585Y-78950330D01*
X127208729Y-79436511D01*
X127094655Y-80010000D01*
X125969671Y-80010000D01*
X125600679Y-79640364D01*
X124779519Y-79299389D01*
X123890381Y-79298613D01*
X123068628Y-79638155D01*
X122439364Y-80266321D01*
X122424000Y-80303322D01*
X122424000Y-78359005D01*
X122424001Y-78359000D01*
X122356633Y-78020326D01*
X122356633Y-78020325D01*
X122164790Y-77733210D01*
X122164787Y-77733208D01*
X120433790Y-76002210D01*
X120389839Y-75972843D01*
X120296440Y-75910436D01*
X120296440Y-75878000D01*
X120252162Y-75642683D01*
X120113090Y-75426559D01*
X119900890Y-75281569D01*
X119884000Y-75278149D01*
X119884000Y-75153580D01*
X120374139Y-74663440D01*
X120835000Y-74663440D01*
X121070317Y-74619162D01*
X121286441Y-74480090D01*
X121431431Y-74267890D01*
X121482440Y-74016000D01*
X121482440Y-73077020D01*
X123829000Y-75423579D01*
X123829000Y-76326995D01*
X123828999Y-76327000D01*
X123883636Y-76601674D01*
X123896367Y-76665675D01*
X124007068Y-76831352D01*
X124088210Y-76952790D01*
X124912208Y-77776787D01*
X124912210Y-77776790D01*
X125199325Y-77968633D01*
X125255516Y-77979810D01*
X125538000Y-78036001D01*
X125538005Y-78036000D01*
X141209601Y-78036000D01*
X141342980Y-78358800D01*
X141943041Y-78959909D01*
X142727459Y-79285628D01*
X143576815Y-79286370D01*
X144361800Y-78962020D01*
X144962909Y-78361959D01*
X145288628Y-77577541D01*
X145289370Y-76728185D01*
X144965020Y-75943200D01*
X144364959Y-75342091D01*
X143580541Y-75016372D01*
X142731185Y-75015630D01*
X141946200Y-75339980D01*
X141345091Y-75940041D01*
X141209741Y-76266000D01*
X125904579Y-76266000D01*
X125599000Y-75960420D01*
X125599000Y-75057005D01*
X125599001Y-75057000D01*
X125531634Y-74718326D01*
X125372450Y-74480090D01*
X125339790Y-74431210D01*
X125339787Y-74431208D01*
X123806580Y-72898000D01*
X125844560Y-72898000D01*
X125844560Y-75438000D01*
X125888838Y-75673317D01*
X126027910Y-75889441D01*
X126240110Y-76034431D01*
X126492000Y-76085440D01*
X129032000Y-76085440D01*
X129267317Y-76041162D01*
X129483441Y-75902090D01*
X129628431Y-75689890D01*
X129679440Y-75438000D01*
X129679440Y-72898000D01*
X129635162Y-72662683D01*
X129496090Y-72446559D01*
X129283890Y-72301569D01*
X129032000Y-72250560D01*
X126492000Y-72250560D01*
X126256683Y-72294838D01*
X126040559Y-72433910D01*
X125895569Y-72646110D01*
X125844560Y-72898000D01*
X123806580Y-72898000D01*
X122562601Y-71654021D01*
X138613560Y-71654021D01*
X138999437Y-72587915D01*
X139713327Y-73303052D01*
X140646546Y-73690559D01*
X141657021Y-73691440D01*
X142590915Y-73305563D01*
X143306052Y-72591673D01*
X143693559Y-71658454D01*
X143694440Y-70647979D01*
X143308563Y-69714085D01*
X142594673Y-68998948D01*
X141661454Y-68611441D01*
X140650979Y-68610560D01*
X139717085Y-68996437D01*
X139001948Y-69710327D01*
X138614441Y-70643546D01*
X138613560Y-71654021D01*
X122562601Y-71654021D01*
X121656790Y-70748210D01*
X121587690Y-70702039D01*
X121369675Y-70556367D01*
X121313484Y-70545190D01*
X121031000Y-70488999D01*
X121030995Y-70489000D01*
X117983000Y-70489000D01*
X117644325Y-70556367D01*
X117357210Y-70748210D01*
X117357208Y-70748213D01*
X116484210Y-71621210D01*
X116292367Y-71908325D01*
X116292367Y-71908326D01*
X116224999Y-72247000D01*
X116225000Y-72247005D01*
X116225000Y-72318113D01*
X116203559Y-72331910D01*
X116058569Y-72544110D01*
X116007560Y-72796000D01*
X116007560Y-73296415D01*
X115895367Y-73464325D01*
X115895367Y-73464326D01*
X115827999Y-73803000D01*
X115828000Y-73803005D01*
X115828000Y-75377708D01*
X115662119Y-75484450D01*
X115540135Y-75662980D01*
X115349025Y-75662980D01*
X115349020Y-75662979D01*
X115092099Y-75714085D01*
X115010345Y-75730347D01*
X114723230Y-75922190D01*
X114723228Y-75922193D01*
X114309210Y-76336210D01*
X114117367Y-76623325D01*
X114117367Y-76623326D01*
X114049999Y-76962000D01*
X113994000Y-76962000D01*
X113994000Y-69465265D01*
X125856670Y-69465265D01*
X126146078Y-70165686D01*
X126681495Y-70702039D01*
X127381410Y-70992668D01*
X128139265Y-70993330D01*
X128839686Y-70703922D01*
X129376039Y-70168505D01*
X129666668Y-69468590D01*
X129667330Y-68710735D01*
X129653736Y-68677834D01*
X132290543Y-68677834D01*
X132690853Y-69646658D01*
X133431443Y-70388542D01*
X134399567Y-70790542D01*
X135447834Y-70791457D01*
X136416658Y-70391147D01*
X137158542Y-69650557D01*
X137560542Y-68682433D01*
X137561457Y-67634166D01*
X137161147Y-66665342D01*
X136420557Y-65923458D01*
X135452433Y-65521458D01*
X134404166Y-65520543D01*
X133435342Y-65920853D01*
X132693458Y-66661443D01*
X132291458Y-67629567D01*
X132290543Y-68677834D01*
X129653736Y-68677834D01*
X129377922Y-68010314D01*
X128842505Y-67473961D01*
X128142590Y-67183332D01*
X127384735Y-67182670D01*
X126684314Y-67472078D01*
X126147961Y-68007495D01*
X125857332Y-68707410D01*
X125856670Y-69465265D01*
X113994000Y-69465265D01*
X113994000Y-64385265D01*
X125856670Y-64385265D01*
X126146078Y-65085686D01*
X126681495Y-65622039D01*
X127381410Y-65912668D01*
X128139265Y-65913330D01*
X128839686Y-65623922D01*
X129376039Y-65088505D01*
X129666668Y-64388590D01*
X129667312Y-63651000D01*
X141006560Y-63651000D01*
X141006560Y-66651000D01*
X141050838Y-66886317D01*
X141189910Y-67102441D01*
X141402110Y-67247431D01*
X141654000Y-67298440D01*
X144654000Y-67298440D01*
X144889317Y-67254162D01*
X145105441Y-67115090D01*
X145250431Y-66902890D01*
X145301440Y-66651000D01*
X145301440Y-66036000D01*
X145365920Y-66036000D01*
X150118000Y-70788079D01*
X150118000Y-89153995D01*
X150117999Y-89154000D01*
X150118000Y-89154005D01*
X150118000Y-90313778D01*
X150117683Y-90313838D01*
X149901559Y-90452910D01*
X149756569Y-90665110D01*
X149705560Y-90917000D01*
X149705560Y-92217000D01*
X149749838Y-92452317D01*
X149888910Y-92668441D01*
X150101110Y-92813431D01*
X150118000Y-92816851D01*
X150118000Y-98290882D01*
X149990683Y-98314838D01*
X149774559Y-98453910D01*
X149629569Y-98666110D01*
X149578560Y-98918000D01*
X149578560Y-100218000D01*
X149622838Y-100453317D01*
X149761910Y-100669441D01*
X149974110Y-100814431D01*
X150226000Y-100865440D01*
X150388385Y-100865440D01*
X150212271Y-100938389D01*
X150156590Y-101168984D01*
X150876000Y-101888395D01*
X151595410Y-101168984D01*
X151539729Y-100938389D01*
X151330098Y-100865440D01*
X151526000Y-100865440D01*
X151761317Y-100821162D01*
X151977441Y-100682090D01*
X152122431Y-100469890D01*
X152173440Y-100218000D01*
X152173440Y-98918000D01*
X152129162Y-98682683D01*
X151990090Y-98466559D01*
X151888000Y-98396804D01*
X151888000Y-92820222D01*
X151888317Y-92820162D01*
X152104441Y-92681090D01*
X152249431Y-92468890D01*
X152250012Y-92466016D01*
X155283590Y-92466016D01*
X155339271Y-92696611D01*
X155822078Y-92864622D01*
X156332428Y-92835083D01*
X156666729Y-92696611D01*
X156722410Y-92466016D01*
X156003000Y-91746605D01*
X155283590Y-92466016D01*
X152250012Y-92466016D01*
X152300440Y-92217000D01*
X152300440Y-91386078D01*
X154705378Y-91386078D01*
X154734917Y-91896428D01*
X154873389Y-92230729D01*
X155103984Y-92286410D01*
X155823395Y-91567000D01*
X156182605Y-91567000D01*
X156902016Y-92286410D01*
X157132611Y-92230729D01*
X157300622Y-91747922D01*
X157271083Y-91237572D01*
X157132611Y-90903271D01*
X156902016Y-90847590D01*
X156182605Y-91567000D01*
X155823395Y-91567000D01*
X155103984Y-90847590D01*
X154873389Y-90903271D01*
X154705378Y-91386078D01*
X152300440Y-91386078D01*
X152300440Y-90917000D01*
X152256162Y-90681683D01*
X152247347Y-90667984D01*
X155283590Y-90667984D01*
X156003000Y-91387395D01*
X156722410Y-90667984D01*
X156666729Y-90437389D01*
X156263299Y-90297000D01*
X159512000Y-90297000D01*
X159512000Y-109220000D01*
X159520685Y-109266159D01*
X159547965Y-109308553D01*
X159589590Y-109336994D01*
X159639000Y-109347000D01*
X167513000Y-109347000D01*
X167559159Y-109338315D01*
X167601553Y-109311035D01*
X167629994Y-109269410D01*
X167640000Y-109220000D01*
X167640000Y-89154000D01*
X167631315Y-89107841D01*
X167604035Y-89065447D01*
X167562410Y-89037006D01*
X167513000Y-89027000D01*
X160782000Y-89027000D01*
X160734211Y-89036334D01*
X160692197Y-89064197D01*
X159549197Y-90207197D01*
X159522006Y-90247590D01*
X159512000Y-90297000D01*
X156263299Y-90297000D01*
X156183922Y-90269378D01*
X155673572Y-90298917D01*
X155339271Y-90437389D01*
X155283590Y-90667984D01*
X152247347Y-90667984D01*
X152117090Y-90465559D01*
X151904890Y-90320569D01*
X151888000Y-90317149D01*
X151888000Y-89520580D01*
X155539579Y-85869000D01*
X170302601Y-85869000D01*
X170435980Y-86191800D01*
X171036041Y-86792909D01*
X171820459Y-87118628D01*
X172669815Y-87119370D01*
X173454800Y-86795020D01*
X173752368Y-86497970D01*
X180912635Y-86497970D01*
X181072418Y-86816739D01*
X181863187Y-87126723D01*
X182712387Y-87110497D01*
X183421582Y-86816739D01*
X183581365Y-86497970D01*
X182247000Y-85163605D01*
X180912635Y-86497970D01*
X173752368Y-86497970D01*
X174055909Y-86194959D01*
X174381628Y-85410541D01*
X174382335Y-84600187D01*
X180104277Y-84600187D01*
X180120503Y-85449387D01*
X180414261Y-86158582D01*
X180733030Y-86318365D01*
X182067395Y-84984000D01*
X182426605Y-84984000D01*
X183760970Y-86318365D01*
X184079739Y-86158582D01*
X184389723Y-85367813D01*
X184373497Y-84518613D01*
X184079739Y-83809418D01*
X183760970Y-83649635D01*
X182426605Y-84984000D01*
X182067395Y-84984000D01*
X180733030Y-83649635D01*
X180414261Y-83809418D01*
X180104277Y-84600187D01*
X174382335Y-84600187D01*
X174382370Y-84561185D01*
X174058020Y-83776200D01*
X173752384Y-83470030D01*
X180912635Y-83470030D01*
X182247000Y-84804395D01*
X183581365Y-83470030D01*
X183421582Y-83151261D01*
X182630813Y-82841277D01*
X181781613Y-82857503D01*
X181072418Y-83151261D01*
X180912635Y-83470030D01*
X173752384Y-83470030D01*
X173457959Y-83175091D01*
X172673541Y-82849372D01*
X171824185Y-82848630D01*
X171039200Y-83172980D01*
X170438091Y-83773041D01*
X170302741Y-84099000D01*
X155173005Y-84099000D01*
X155173000Y-84098999D01*
X154834326Y-84166366D01*
X154739054Y-84230025D01*
X154547210Y-84358210D01*
X154547208Y-84358213D01*
X151888000Y-87017420D01*
X151888000Y-77654021D01*
X152813560Y-77654021D01*
X153199437Y-78587915D01*
X153913327Y-79303052D01*
X154846546Y-79690559D01*
X155857021Y-79691440D01*
X156790915Y-79305563D01*
X157506052Y-78591673D01*
X157893559Y-77658454D01*
X157894440Y-76647979D01*
X157508563Y-75714085D01*
X156794673Y-74998948D01*
X155861454Y-74611441D01*
X154850979Y-74610560D01*
X153917085Y-74996437D01*
X153201948Y-75710327D01*
X152814441Y-76643546D01*
X152813560Y-77654021D01*
X151888000Y-77654021D01*
X151888000Y-70421505D01*
X151888001Y-70421500D01*
X151820634Y-70082826D01*
X151706282Y-69911686D01*
X151628790Y-69795710D01*
X151628787Y-69795708D01*
X147487101Y-65654021D01*
X152653560Y-65654021D01*
X153039437Y-66587915D01*
X153753327Y-67303052D01*
X154686546Y-67690559D01*
X155697021Y-67691440D01*
X156630915Y-67305563D01*
X157346052Y-66591673D01*
X157733559Y-65658454D01*
X157734440Y-64647979D01*
X157348563Y-63714085D01*
X156634673Y-62998948D01*
X155701454Y-62611441D01*
X154690979Y-62610560D01*
X153757085Y-62996437D01*
X153041948Y-63710327D01*
X152654441Y-64643546D01*
X152653560Y-65654021D01*
X147487101Y-65654021D01*
X146358290Y-64525210D01*
X146071175Y-64333367D01*
X146014984Y-64322190D01*
X145732500Y-64265999D01*
X145732495Y-64266000D01*
X145301440Y-64266000D01*
X145301440Y-63651000D01*
X145257162Y-63415683D01*
X145118090Y-63199559D01*
X144905890Y-63054569D01*
X144654000Y-63003560D01*
X141654000Y-63003560D01*
X141418683Y-63047838D01*
X141202559Y-63186910D01*
X141057569Y-63399110D01*
X141006560Y-63651000D01*
X129667312Y-63651000D01*
X129667330Y-63630735D01*
X129377922Y-62930314D01*
X128842505Y-62393961D01*
X128142590Y-62103332D01*
X127384735Y-62102670D01*
X126684314Y-62392078D01*
X126147961Y-62927495D01*
X125857332Y-63627410D01*
X125856670Y-64385265D01*
X113994000Y-64385265D01*
X113994000Y-49605000D01*
X161923074Y-49605000D01*
X161798002Y-70992257D01*
X161798002Y-70992257D01*
G37*
X161798002Y-70992257D02*
X161807719Y-71041725D01*
X161835916Y-71083515D01*
X161878150Y-71111043D01*
X161925000Y-71120000D01*
X191971394Y-71120000D01*
X193458197Y-72606803D01*
X193500211Y-72634666D01*
X193548000Y-72644000D01*
X217170669Y-72644000D01*
X217349000Y-106437746D01*
X217349000Y-120321000D01*
X162405192Y-120321000D01*
X113994000Y-120143669D01*
X113994000Y-105253775D01*
X114688803Y-105253775D01*
X114861233Y-105671086D01*
X115064000Y-105874207D01*
X115064000Y-115062000D01*
X115121852Y-115352839D01*
X115286599Y-115599401D01*
X118334599Y-118647401D01*
X118581161Y-118812148D01*
X118872000Y-118870000D01*
X145989198Y-118870000D01*
X147163599Y-120044401D01*
X147410160Y-120209148D01*
X147701000Y-120267000D01*
X162306000Y-120267000D01*
X162596839Y-120209148D01*
X162843401Y-120044401D01*
X164017802Y-118870000D01*
X174189537Y-118870000D01*
X174221673Y-118902192D01*
X174565201Y-119044838D01*
X174612077Y-119044879D01*
X175357599Y-119790401D01*
X175604161Y-119955148D01*
X175895000Y-120013000D01*
X197485000Y-120013000D01*
X197775839Y-119955148D01*
X198022401Y-119790401D01*
X200476364Y-117336438D01*
X200475643Y-118161934D01*
X200875953Y-119130758D01*
X201616543Y-119872642D01*
X202584667Y-120274642D01*
X203632934Y-120275557D01*
X204601758Y-119875247D01*
X205343642Y-119134657D01*
X205745642Y-118166533D01*
X205746557Y-117118266D01*
X205413808Y-116312950D01*
X208435700Y-116312950D01*
X208435700Y-116803510D01*
X208532373Y-117036899D01*
X208711002Y-117215527D01*
X208944391Y-117312200D01*
X209784950Y-117312200D01*
X209943700Y-117153450D01*
X209943700Y-116154200D01*
X210197700Y-116154200D01*
X210197700Y-117153450D01*
X210356450Y-117312200D01*
X211197009Y-117312200D01*
X211430398Y-117215527D01*
X211609027Y-117036899D01*
X211705700Y-116803510D01*
X211705700Y-116312950D01*
X211546950Y-116154200D01*
X210197700Y-116154200D01*
X209943700Y-116154200D01*
X208594450Y-116154200D01*
X208435700Y-116312950D01*
X205413808Y-116312950D01*
X205346247Y-116149442D01*
X204605657Y-115407558D01*
X203637533Y-115005558D01*
X202807968Y-115004834D01*
X203006802Y-114806000D01*
X208443958Y-114806000D01*
X208467538Y-114931317D01*
X208528701Y-115026367D01*
X208435700Y-115250890D01*
X208435700Y-115741450D01*
X208594450Y-115900200D01*
X209943700Y-115900200D01*
X209943700Y-115880200D01*
X210197700Y-115880200D01*
X210197700Y-115900200D01*
X211546950Y-115900200D01*
X211705700Y-115741450D01*
X211705700Y-115250890D01*
X211613005Y-115027106D01*
X211667131Y-114947890D01*
X211718140Y-114696000D01*
X211718140Y-113396000D01*
X211673862Y-113160683D01*
X211597893Y-113042624D01*
X211667131Y-112941290D01*
X211718140Y-112689400D01*
X211718140Y-111389400D01*
X211673862Y-111154083D01*
X211597893Y-111036024D01*
X211667131Y-110934690D01*
X211718140Y-110682800D01*
X211718140Y-109382800D01*
X211673862Y-109147483D01*
X211534790Y-108931359D01*
X211322590Y-108786369D01*
X211070700Y-108735360D01*
X209070700Y-108735360D01*
X208835383Y-108779638D01*
X208619259Y-108918710D01*
X208474269Y-109130910D01*
X208445536Y-109272800D01*
X207975200Y-109272800D01*
X207684360Y-109330652D01*
X207437799Y-109495399D01*
X206441198Y-110492000D01*
X204803323Y-110492000D01*
X205305542Y-109990657D01*
X205707542Y-109022533D01*
X205708457Y-107974266D01*
X205308147Y-107005442D01*
X204567557Y-106263558D01*
X203599433Y-105861558D01*
X202551166Y-105860643D01*
X201582342Y-106260953D01*
X200840458Y-107001543D01*
X200438458Y-107969667D01*
X200437543Y-109017934D01*
X200837853Y-109986758D01*
X201578443Y-110728642D01*
X202244843Y-111005355D01*
X195392198Y-117858000D01*
X183941888Y-117858000D01*
X183942162Y-117543833D01*
X183800117Y-117200057D01*
X183537327Y-116936808D01*
X183193799Y-116794162D01*
X183146923Y-116794121D01*
X183090890Y-116738088D01*
X183092441Y-116737090D01*
X183132924Y-116677841D01*
X183162910Y-116724441D01*
X183375110Y-116869431D01*
X183627000Y-116920440D01*
X184927000Y-116920440D01*
X185162317Y-116876162D01*
X185378441Y-116737090D01*
X185418924Y-116677841D01*
X185448910Y-116724441D01*
X185661110Y-116869431D01*
X185913000Y-116920440D01*
X187213000Y-116920440D01*
X187448317Y-116876162D01*
X187664441Y-116737090D01*
X187704924Y-116677841D01*
X187734910Y-116724441D01*
X187947110Y-116869431D01*
X188199000Y-116920440D01*
X189499000Y-116920440D01*
X189734317Y-116876162D01*
X189930862Y-116749689D01*
X190106110Y-116869431D01*
X190358000Y-116920440D01*
X191658000Y-116920440D01*
X191893317Y-116876162D01*
X192109441Y-116737090D01*
X192254431Y-116524890D01*
X192303415Y-116283000D01*
X194014100Y-116283000D01*
X194159625Y-116254053D01*
X194239210Y-116308431D01*
X194491100Y-116359440D01*
X196491100Y-116359440D01*
X196726417Y-116315162D01*
X196942541Y-116176090D01*
X197087531Y-115963890D01*
X197138540Y-115712000D01*
X197138540Y-114412000D01*
X197094262Y-114176683D01*
X197045078Y-114100248D01*
X197080227Y-114065099D01*
X197176900Y-113831710D01*
X197176900Y-113341150D01*
X197018150Y-113182400D01*
X195668900Y-113182400D01*
X195668900Y-113202400D01*
X195414900Y-113202400D01*
X195414900Y-113182400D01*
X194065650Y-113182400D01*
X193906900Y-113341150D01*
X193906900Y-113831710D01*
X193986972Y-114025020D01*
X193894669Y-114160110D01*
X193843660Y-114412000D01*
X193843660Y-114618638D01*
X193699298Y-114763000D01*
X192303558Y-114763000D01*
X192261162Y-114537683D01*
X192122090Y-114321559D01*
X191909890Y-114176569D01*
X191876510Y-114169809D01*
X192017699Y-114111327D01*
X192196327Y-113932698D01*
X192293000Y-113699309D01*
X192293000Y-113108750D01*
X192134250Y-112950000D01*
X191135000Y-112950000D01*
X191135000Y-112970000D01*
X190881000Y-112970000D01*
X190881000Y-112950000D01*
X190861000Y-112950000D01*
X190861000Y-112696000D01*
X190881000Y-112696000D01*
X190881000Y-112676000D01*
X191135000Y-112676000D01*
X191135000Y-112696000D01*
X192134250Y-112696000D01*
X192293000Y-112537250D01*
X192293000Y-111946691D01*
X192235884Y-111808800D01*
X193915158Y-111808800D01*
X193938738Y-111934117D01*
X194007812Y-112041462D01*
X194003573Y-112045701D01*
X193906900Y-112279090D01*
X193906900Y-112769650D01*
X194065650Y-112928400D01*
X195414900Y-112928400D01*
X195414900Y-112908400D01*
X195668900Y-112908400D01*
X195668900Y-112928400D01*
X197018150Y-112928400D01*
X197176900Y-112769650D01*
X197176900Y-112279090D01*
X197080227Y-112045701D01*
X197076179Y-112041653D01*
X197138331Y-111950690D01*
X197189340Y-111698800D01*
X197189340Y-110398800D01*
X197145062Y-110163483D01*
X197005990Y-109947359D01*
X196793790Y-109802369D01*
X196541900Y-109751360D01*
X194541900Y-109751360D01*
X194306583Y-109795638D01*
X194090459Y-109934710D01*
X193945469Y-110146910D01*
X193916736Y-110288800D01*
X192274604Y-110288800D01*
X192290440Y-110210600D01*
X192290440Y-108483400D01*
X192246162Y-108248083D01*
X192107090Y-108031959D01*
X191894890Y-107886969D01*
X191853561Y-107878600D01*
X191871415Y-107866670D01*
X192196271Y-107380489D01*
X192310345Y-106807000D01*
X192208900Y-106297000D01*
X199517000Y-106297000D01*
X199807839Y-106239148D01*
X200054401Y-106074401D01*
X201197401Y-104931401D01*
X201362148Y-104684840D01*
X201420000Y-104394000D01*
X201420000Y-91500802D01*
X201705401Y-91215401D01*
X201870147Y-90968840D01*
X201870148Y-90968839D01*
X201882961Y-90904423D01*
X201960192Y-90827327D01*
X202102838Y-90483799D01*
X202103162Y-90111833D01*
X201961117Y-89768057D01*
X201698327Y-89504808D01*
X201354799Y-89362162D01*
X200982833Y-89361838D01*
X200656000Y-89496882D01*
X200656000Y-88392005D01*
X200656001Y-88392000D01*
X200588633Y-88053325D01*
X200561689Y-88013000D01*
X200396790Y-87766210D01*
X200396787Y-87766208D01*
X199698290Y-87067710D01*
X199534337Y-86958161D01*
X199411175Y-86875867D01*
X199354984Y-86864690D01*
X199072500Y-86808499D01*
X199072495Y-86808500D01*
X198708710Y-86808500D01*
X198645672Y-86714157D01*
X198210673Y-86423500D01*
X198645672Y-86132843D01*
X198945902Y-85683517D01*
X199051329Y-85153500D01*
X198945902Y-84623483D01*
X198645672Y-84174157D01*
X198210673Y-83883500D01*
X198645672Y-83592843D01*
X198945902Y-83143517D01*
X199051329Y-82613500D01*
X198945902Y-82083483D01*
X198789640Y-81849619D01*
X204520613Y-81849619D01*
X204860155Y-82671372D01*
X204865232Y-82676458D01*
X204862364Y-82679321D01*
X204521389Y-83500481D01*
X204520613Y-84389619D01*
X204810298Y-85090710D01*
X204521389Y-85786481D01*
X204520613Y-86675619D01*
X204860155Y-87497372D01*
X205488321Y-88126636D01*
X206309481Y-88467611D01*
X207198619Y-88468387D01*
X208020372Y-88128845D01*
X208649636Y-87500679D01*
X208990611Y-86679519D01*
X208991387Y-85790381D01*
X208701702Y-85089290D01*
X208990611Y-84393519D01*
X208991387Y-83504381D01*
X208651845Y-82682628D01*
X208646768Y-82677542D01*
X208649636Y-82674679D01*
X208990611Y-81853519D01*
X208991387Y-80964381D01*
X208651845Y-80142628D01*
X208023679Y-79513364D01*
X207202519Y-79172389D01*
X206313381Y-79171613D01*
X205491628Y-79511155D01*
X204862364Y-80139321D01*
X204521389Y-80960481D01*
X204520613Y-81849619D01*
X198789640Y-81849619D01*
X198645672Y-81634157D01*
X198210673Y-81343500D01*
X198645672Y-81052843D01*
X198945902Y-80603517D01*
X199051329Y-80073500D01*
X198945902Y-79543483D01*
X198645672Y-79094157D01*
X198210673Y-78803500D01*
X198645672Y-78512843D01*
X198945902Y-78063517D01*
X199051329Y-77533500D01*
X198945902Y-77003483D01*
X198645672Y-76554157D01*
X198210673Y-76263500D01*
X198645672Y-75972843D01*
X198945902Y-75523517D01*
X199051329Y-74993500D01*
X198945902Y-74463483D01*
X198645672Y-74014157D01*
X198196346Y-73713927D01*
X197666329Y-73608500D01*
X196592471Y-73608500D01*
X196062454Y-73713927D01*
X195613128Y-74014157D01*
X195312898Y-74463483D01*
X195207471Y-74993500D01*
X195312898Y-75523517D01*
X195613128Y-75972843D01*
X196048127Y-76263500D01*
X195613128Y-76554157D01*
X195466568Y-76773500D01*
X193103500Y-76773500D01*
X192860914Y-76821754D01*
X192812660Y-76831352D01*
X192566099Y-76996099D01*
X191613599Y-77948599D01*
X191448852Y-78195161D01*
X191391000Y-78486000D01*
X191391000Y-86934198D01*
X190312198Y-88013000D01*
X176657000Y-88013000D01*
X176366160Y-88070852D01*
X176144613Y-88218885D01*
X176090833Y-88218838D01*
X175747057Y-88360883D01*
X175483808Y-88623673D01*
X175341162Y-88967201D01*
X175340838Y-89339167D01*
X175482883Y-89682943D01*
X175745673Y-89946192D01*
X176089201Y-90088838D01*
X176461167Y-90089162D01*
X176782900Y-89956225D01*
X176879883Y-90190943D01*
X177142673Y-90454192D01*
X177486201Y-90596838D01*
X177858167Y-90597162D01*
X178201943Y-90455117D01*
X178465192Y-90192327D01*
X178528029Y-90041000D01*
X180674890Y-90041000D01*
X180674838Y-90101167D01*
X180816883Y-90444943D01*
X181079673Y-90708192D01*
X181423201Y-90850838D01*
X181795167Y-90851162D01*
X182138943Y-90709117D01*
X182299340Y-90549000D01*
X191643000Y-90549000D01*
X191933839Y-90491148D01*
X192180401Y-90326401D01*
X193296000Y-89210802D01*
X193296000Y-96078198D01*
X193137599Y-96236599D01*
X192972852Y-96483161D01*
X192915000Y-96774000D01*
X192915000Y-102174198D01*
X192852198Y-102237000D01*
X192208900Y-102237000D01*
X192310345Y-101727000D01*
X192196271Y-101153511D01*
X191871415Y-100667330D01*
X191556634Y-100457000D01*
X191871415Y-100246670D01*
X192196271Y-99760489D01*
X192310345Y-99187000D01*
X192196271Y-98613511D01*
X191871415Y-98127330D01*
X191556634Y-97917000D01*
X191871415Y-97706670D01*
X192196271Y-97220489D01*
X192310345Y-96647000D01*
X192196271Y-96073511D01*
X191871415Y-95587330D01*
X191385234Y-95262474D01*
X190811745Y-95148400D01*
X190442255Y-95148400D01*
X189868766Y-95262474D01*
X189382585Y-95587330D01*
X189057729Y-96073511D01*
X188943655Y-96647000D01*
X189057729Y-97220489D01*
X189382585Y-97706670D01*
X189697366Y-97917000D01*
X189382585Y-98127330D01*
X189057729Y-98613511D01*
X188943655Y-99187000D01*
X189057729Y-99760489D01*
X189382585Y-100246670D01*
X189697366Y-100457000D01*
X189382585Y-100667330D01*
X189057729Y-101153511D01*
X188943655Y-101727000D01*
X189052138Y-102272379D01*
X188939160Y-102294852D01*
X188692599Y-102459599D01*
X188534198Y-102618000D01*
X181156463Y-102618000D01*
X181124327Y-102585808D01*
X181027131Y-102545448D01*
X181473787Y-102098792D01*
X181473790Y-102098790D01*
X181486998Y-102079023D01*
X181641301Y-102233327D01*
X181874690Y-102330000D01*
X182340250Y-102330000D01*
X182499000Y-102171250D01*
X182499000Y-101072000D01*
X182753000Y-101072000D01*
X182753000Y-102171250D01*
X182911750Y-102330000D01*
X183377310Y-102330000D01*
X183610699Y-102233327D01*
X183789327Y-102054698D01*
X183886000Y-101821309D01*
X183886000Y-101230750D01*
X183727250Y-101072000D01*
X182753000Y-101072000D01*
X182499000Y-101072000D01*
X182479000Y-101072000D01*
X182479000Y-100818000D01*
X182499000Y-100818000D01*
X182499000Y-100798000D01*
X182753000Y-100798000D01*
X182753000Y-100818000D01*
X183727250Y-100818000D01*
X183886000Y-100659250D01*
X183886000Y-100068691D01*
X183789327Y-99835302D01*
X183648090Y-99694064D01*
X183702441Y-99659090D01*
X183847431Y-99446890D01*
X183898440Y-99195000D01*
X183898440Y-97695000D01*
X183854162Y-97459683D01*
X183721947Y-97254216D01*
X183926192Y-97050327D01*
X184068838Y-96706799D01*
X184069162Y-96334833D01*
X183927117Y-95991057D01*
X183664327Y-95727808D01*
X183320799Y-95585162D01*
X182948833Y-95584838D01*
X182605057Y-95726883D01*
X182341808Y-95989673D01*
X182308595Y-96069659D01*
X182276117Y-95991057D01*
X182013327Y-95727808D01*
X181669799Y-95585162D01*
X181297833Y-95584838D01*
X180954057Y-95726883D01*
X180920882Y-95760000D01*
X173355000Y-95760000D01*
X173064161Y-95817852D01*
X172817599Y-95982599D01*
X172690599Y-96109599D01*
X172525852Y-96356161D01*
X172468000Y-96647000D01*
X172468000Y-100330000D01*
X172525852Y-100620839D01*
X172690599Y-100867401D01*
X173532599Y-101709401D01*
X173779161Y-101874148D01*
X173835560Y-101885367D01*
X173835560Y-101922000D01*
X173879838Y-102157317D01*
X174018910Y-102373441D01*
X174231110Y-102518431D01*
X174483000Y-102569440D01*
X175783000Y-102569440D01*
X176018317Y-102525162D01*
X176234441Y-102386090D01*
X176379431Y-102173890D01*
X176430440Y-101922000D01*
X176430440Y-101178242D01*
X176961599Y-101709401D01*
X177208161Y-101874148D01*
X177264560Y-101885367D01*
X177264560Y-101922000D01*
X177308838Y-102157317D01*
X177447910Y-102373441D01*
X177660110Y-102518431D01*
X177912000Y-102569440D01*
X178499980Y-102569440D01*
X178317210Y-102752210D01*
X178317208Y-102752213D01*
X176666210Y-104403210D01*
X176474367Y-104690325D01*
X176474367Y-104690326D01*
X176406999Y-105029000D01*
X176407000Y-105029005D01*
X176407000Y-105043421D01*
X170867701Y-110582719D01*
X170848966Y-110570201D01*
X170645675Y-110434367D01*
X170589484Y-110423190D01*
X170307000Y-110366999D01*
X170306995Y-110367000D01*
X158541887Y-110367000D01*
X158542162Y-110050833D01*
X158494000Y-109934272D01*
X158494000Y-106226463D01*
X158526192Y-106194327D01*
X158668838Y-105850799D01*
X158669162Y-105478833D01*
X158527117Y-105135057D01*
X158264327Y-104871808D01*
X157920799Y-104729162D01*
X157548833Y-104728838D01*
X157205057Y-104870883D01*
X156941808Y-105133673D01*
X156799162Y-105477201D01*
X156798838Y-105849167D01*
X156940883Y-106192943D01*
X156974000Y-106226118D01*
X156974000Y-109546759D01*
X156814808Y-109705673D01*
X156672162Y-110049201D01*
X156671885Y-110367000D01*
X147940580Y-110367000D01*
X147691790Y-110118210D01*
X147691787Y-110118208D01*
X147252201Y-109678622D01*
X147296431Y-109613890D01*
X147347440Y-109362000D01*
X147347440Y-108062000D01*
X147303162Y-107826683D01*
X147164090Y-107610559D01*
X146951890Y-107465569D01*
X146700000Y-107414560D01*
X146537615Y-107414560D01*
X146713729Y-107341611D01*
X146769410Y-107111016D01*
X146050000Y-106391605D01*
X145330590Y-107111016D01*
X145386271Y-107341611D01*
X145595902Y-107414560D01*
X145400000Y-107414560D01*
X145164683Y-107458838D01*
X144948559Y-107597910D01*
X144803569Y-107810110D01*
X144752560Y-108062000D01*
X144752560Y-109362000D01*
X144796838Y-109597317D01*
X144935910Y-109813441D01*
X145148110Y-109958431D01*
X145213469Y-109971666D01*
X145232367Y-110066675D01*
X145380785Y-110288800D01*
X145424210Y-110353790D01*
X146440208Y-111369787D01*
X146440210Y-111369790D01*
X146948208Y-111877787D01*
X146948210Y-111877790D01*
X147149071Y-112012000D01*
X147235325Y-112069633D01*
X147574000Y-112137000D01*
X150990560Y-112137000D01*
X150990560Y-114046000D01*
X151034838Y-114281317D01*
X151173910Y-114497441D01*
X151386110Y-114642431D01*
X151638000Y-114693440D01*
X153670000Y-114693440D01*
X153905317Y-114649162D01*
X154121441Y-114510090D01*
X154232840Y-114347052D01*
X154329182Y-114436385D01*
X154811056Y-114635975D01*
X155067000Y-114516836D01*
X155067000Y-113157000D01*
X155321000Y-113157000D01*
X155321000Y-114516836D01*
X155576944Y-114635975D01*
X156058818Y-114436385D01*
X156459246Y-114065087D01*
X157899816Y-114065087D01*
X158044076Y-114300000D01*
X159258000Y-114300000D01*
X159258000Y-112940783D01*
X159025974Y-112819642D01*
X159010209Y-112822291D01*
X158482964Y-113076268D01*
X158093046Y-113512680D01*
X157899816Y-114065087D01*
X156459246Y-114065087D01*
X156531188Y-113998379D01*
X156799983Y-113412946D01*
X156681367Y-113157000D01*
X155321000Y-113157000D01*
X155067000Y-113157000D01*
X155047000Y-113157000D01*
X155047000Y-112903000D01*
X155067000Y-112903000D01*
X155067000Y-112883000D01*
X155321000Y-112883000D01*
X155321000Y-112903000D01*
X156681367Y-112903000D01*
X156799983Y-112647054D01*
X156565797Y-112137000D01*
X169940420Y-112137000D01*
X170252709Y-112449288D01*
X170252710Y-112449290D01*
X170570208Y-112766787D01*
X170570210Y-112766790D01*
X170761991Y-112958571D01*
X170624969Y-113159110D01*
X170616600Y-113200439D01*
X170604670Y-113182585D01*
X170118489Y-112857729D01*
X169545000Y-112743655D01*
X168971511Y-112857729D01*
X168485330Y-113182585D01*
X168275000Y-113497366D01*
X168064670Y-113182585D01*
X167578489Y-112857729D01*
X167005000Y-112743655D01*
X166431511Y-112857729D01*
X165945330Y-113182585D01*
X165735000Y-113497366D01*
X165524670Y-113182585D01*
X165038489Y-112857729D01*
X164465000Y-112743655D01*
X163891511Y-112857729D01*
X163405330Y-113182585D01*
X163195000Y-113497366D01*
X162984670Y-113182585D01*
X162498489Y-112857729D01*
X161925000Y-112743655D01*
X161351511Y-112857729D01*
X160865330Y-113182585D01*
X160658539Y-113492069D01*
X160287036Y-113076268D01*
X159759791Y-112822291D01*
X159744026Y-112819642D01*
X159512000Y-112940783D01*
X159512000Y-114300000D01*
X159532000Y-114300000D01*
X159532000Y-114554000D01*
X159512000Y-114554000D01*
X159512000Y-115913217D01*
X159744026Y-116034358D01*
X159759791Y-116031709D01*
X160287036Y-115777732D01*
X160658539Y-115361931D01*
X160865330Y-115671415D01*
X161351511Y-115996271D01*
X161925000Y-116110345D01*
X162498489Y-115996271D01*
X162984670Y-115671415D01*
X163195000Y-115356634D01*
X163405330Y-115671415D01*
X163891511Y-115996271D01*
X164465000Y-116110345D01*
X165038489Y-115996271D01*
X165524670Y-115671415D01*
X165735000Y-115356634D01*
X165945330Y-115671415D01*
X166431511Y-115996271D01*
X167005000Y-116110345D01*
X167578489Y-115996271D01*
X168064670Y-115671415D01*
X168275000Y-115356634D01*
X168485330Y-115671415D01*
X168971511Y-115996271D01*
X169545000Y-116110345D01*
X170118489Y-115996271D01*
X170604670Y-115671415D01*
X170614243Y-115657087D01*
X170618238Y-115678317D01*
X170757310Y-115894441D01*
X170969510Y-116039431D01*
X171221400Y-116090440D01*
X172948600Y-116090440D01*
X173183917Y-116046162D01*
X173400041Y-115907090D01*
X173545031Y-115694890D01*
X173596040Y-115443000D01*
X173596040Y-115187000D01*
X176911000Y-115187000D01*
X177201839Y-115129148D01*
X177448401Y-114964401D01*
X178511605Y-113901197D01*
X178590910Y-114024441D01*
X178803110Y-114169431D01*
X178816197Y-114172081D01*
X178603559Y-114308910D01*
X178458569Y-114521110D01*
X178407560Y-114773000D01*
X178407560Y-114803069D01*
X178366414Y-114811254D01*
X178318160Y-114820852D01*
X178071599Y-114985599D01*
X178041320Y-115015878D01*
X177995833Y-115015838D01*
X177652057Y-115157883D01*
X177388808Y-115420673D01*
X177246162Y-115764201D01*
X177245838Y-116136167D01*
X177387883Y-116479943D01*
X177650673Y-116743192D01*
X177994201Y-116885838D01*
X178366167Y-116886162D01*
X178653711Y-116767351D01*
X178803110Y-116869431D01*
X179055000Y-116920440D01*
X179925642Y-116920440D01*
X181315233Y-118493000D01*
X176209802Y-118493000D01*
X175687122Y-117970320D01*
X175687162Y-117924833D01*
X175545117Y-117581057D01*
X175282327Y-117317808D01*
X174938799Y-117175162D01*
X174566833Y-117174838D01*
X174223057Y-117316883D01*
X174189882Y-117350000D01*
X163703000Y-117350000D01*
X163412160Y-117407852D01*
X163165599Y-117572599D01*
X161991198Y-118747000D01*
X148015802Y-118747000D01*
X146841401Y-117572599D01*
X146594839Y-117407852D01*
X146304000Y-117350000D01*
X119186802Y-117350000D01*
X118266577Y-116429775D01*
X122435803Y-116429775D01*
X122608233Y-116847086D01*
X122927235Y-117166645D01*
X123344244Y-117339803D01*
X123795775Y-117340197D01*
X124213086Y-117167767D01*
X124416207Y-116965000D01*
X132397500Y-116965000D01*
X132688339Y-116907148D01*
X132934901Y-116742401D01*
X134490302Y-115187000D01*
X135830258Y-115187000D01*
X135853838Y-115312317D01*
X135992910Y-115528441D01*
X136205110Y-115673431D01*
X136457000Y-115724440D01*
X137957000Y-115724440D01*
X138192317Y-115680162D01*
X138408441Y-115541090D01*
X138553431Y-115328890D01*
X138556081Y-115315803D01*
X138692910Y-115528441D01*
X138905110Y-115673431D01*
X139157000Y-115724440D01*
X140657000Y-115724440D01*
X140802830Y-115697000D01*
X150990560Y-115697000D01*
X150990560Y-117729000D01*
X151034838Y-117964317D01*
X151173910Y-118180441D01*
X151386110Y-118325431D01*
X151638000Y-118376440D01*
X153670000Y-118376440D01*
X153905317Y-118332162D01*
X154121441Y-118193090D01*
X154232840Y-118030052D01*
X154329182Y-118119385D01*
X154811056Y-118318975D01*
X155067000Y-118199836D01*
X155067000Y-116840000D01*
X155321000Y-116840000D01*
X155321000Y-118199836D01*
X155576944Y-118318975D01*
X156058818Y-118119385D01*
X156531188Y-117681379D01*
X156799983Y-117095946D01*
X156681367Y-116840000D01*
X155321000Y-116840000D01*
X155067000Y-116840000D01*
X155047000Y-116840000D01*
X155047000Y-116586000D01*
X155067000Y-116586000D01*
X155067000Y-115226164D01*
X155321000Y-115226164D01*
X155321000Y-116586000D01*
X156681367Y-116586000D01*
X156799983Y-116330054D01*
X156531188Y-115744621D01*
X156058818Y-115306615D01*
X155576944Y-115107025D01*
X155321000Y-115226164D01*
X155067000Y-115226164D01*
X154811056Y-115107025D01*
X154329182Y-115306615D01*
X154231602Y-115397097D01*
X154134090Y-115245559D01*
X153921890Y-115100569D01*
X153670000Y-115049560D01*
X151638000Y-115049560D01*
X151402683Y-115093838D01*
X151186559Y-115232910D01*
X151041569Y-115445110D01*
X150990560Y-115697000D01*
X140802830Y-115697000D01*
X140892317Y-115680162D01*
X141108441Y-115541090D01*
X141253431Y-115328890D01*
X141282164Y-115187000D01*
X141625311Y-115187000D01*
X141639378Y-115261757D01*
X141778450Y-115477881D01*
X141990650Y-115622871D01*
X142242540Y-115673880D01*
X143441420Y-115673880D01*
X143676737Y-115629602D01*
X143892861Y-115490530D01*
X143898456Y-115482341D01*
X143980882Y-115564767D01*
X144214271Y-115661440D01*
X144654270Y-115661440D01*
X144813020Y-115502690D01*
X144813020Y-114554000D01*
X145067020Y-114554000D01*
X145067020Y-115502690D01*
X145225770Y-115661440D01*
X145665769Y-115661440D01*
X145899158Y-115564767D01*
X146077787Y-115386139D01*
X146174460Y-115152750D01*
X146174460Y-114788913D01*
X157899816Y-114788913D01*
X158093046Y-115341320D01*
X158482964Y-115777732D01*
X159010209Y-116031709D01*
X159025974Y-116034358D01*
X159258000Y-115913217D01*
X159258000Y-114554000D01*
X158044076Y-114554000D01*
X157899816Y-114788913D01*
X146174460Y-114788913D01*
X146174460Y-114712750D01*
X146015710Y-114554000D01*
X145067020Y-114554000D01*
X144813020Y-114554000D01*
X144793020Y-114554000D01*
X144793020Y-114300000D01*
X144813020Y-114300000D01*
X144813020Y-113351310D01*
X145067020Y-113351310D01*
X145067020Y-114300000D01*
X146015710Y-114300000D01*
X146174460Y-114141250D01*
X146174460Y-113701250D01*
X146077787Y-113467861D01*
X145899158Y-113289233D01*
X145665769Y-113192560D01*
X145225770Y-113192560D01*
X145067020Y-113351310D01*
X144813020Y-113351310D01*
X144654270Y-113192560D01*
X144214271Y-113192560D01*
X143980882Y-113289233D01*
X143898669Y-113371445D01*
X143693310Y-113231129D01*
X143441420Y-113180120D01*
X142242540Y-113180120D01*
X142007223Y-113224398D01*
X141791099Y-113363470D01*
X141646109Y-113575670D01*
X141627614Y-113667000D01*
X141283742Y-113667000D01*
X141260162Y-113541683D01*
X141121090Y-113325559D01*
X140908890Y-113180569D01*
X140657000Y-113129560D01*
X139157000Y-113129560D01*
X138921683Y-113173838D01*
X138705559Y-113312910D01*
X138560569Y-113525110D01*
X138557919Y-113538197D01*
X138421090Y-113325559D01*
X138208890Y-113180569D01*
X137957000Y-113129560D01*
X136457000Y-113129560D01*
X136221683Y-113173838D01*
X136005559Y-113312910D01*
X135860569Y-113525110D01*
X135831836Y-113667000D01*
X134175500Y-113667000D01*
X133884661Y-113724852D01*
X133638099Y-113889599D01*
X132082698Y-115445000D01*
X124416059Y-115445000D01*
X124214765Y-115243355D01*
X123797756Y-115070197D01*
X123346225Y-115069803D01*
X122928914Y-115242233D01*
X122609355Y-115561235D01*
X122436197Y-115978244D01*
X122435803Y-116429775D01*
X118266577Y-116429775D01*
X116584000Y-114747198D01*
X116584000Y-105874059D01*
X116785645Y-105672765D01*
X116954383Y-105266400D01*
X128921260Y-105266400D01*
X128921260Y-106366400D01*
X128965538Y-106601717D01*
X129104610Y-106817841D01*
X129109073Y-106820890D01*
X128972269Y-107021110D01*
X128921260Y-107273000D01*
X128921260Y-108373000D01*
X128965538Y-108608317D01*
X129099368Y-108816295D01*
X128972269Y-109002310D01*
X128921260Y-109254200D01*
X128921260Y-110354200D01*
X128965538Y-110589517D01*
X129104610Y-110805641D01*
X129316810Y-110950631D01*
X129568700Y-111001640D01*
X131568700Y-111001640D01*
X131804017Y-110957362D01*
X132020141Y-110818290D01*
X132108344Y-110689200D01*
X137591795Y-110689200D01*
X137591800Y-110689201D01*
X137908470Y-110626210D01*
X137930475Y-110621833D01*
X138217590Y-110429990D01*
X138384140Y-110263440D01*
X139080000Y-110263440D01*
X139315317Y-110219162D01*
X139531441Y-110080090D01*
X139676431Y-109867890D01*
X139727440Y-109616000D01*
X139727440Y-108316000D01*
X139683162Y-108080683D01*
X139544090Y-107864559D01*
X139331890Y-107719569D01*
X139080000Y-107668560D01*
X138917615Y-107668560D01*
X139093729Y-107595611D01*
X139149410Y-107365016D01*
X138430000Y-106645605D01*
X137710590Y-107365016D01*
X137766271Y-107595611D01*
X137975902Y-107668560D01*
X137780000Y-107668560D01*
X137544683Y-107712838D01*
X137328559Y-107851910D01*
X137183569Y-108064110D01*
X137132560Y-108316000D01*
X137132560Y-108919200D01*
X132107718Y-108919200D01*
X132038032Y-108810905D01*
X132165131Y-108624890D01*
X132216140Y-108373000D01*
X132216140Y-107273000D01*
X132171862Y-107037683D01*
X132032790Y-106821559D01*
X132028327Y-106818510D01*
X132165131Y-106618290D01*
X132216140Y-106366400D01*
X132216140Y-106285078D01*
X137132378Y-106285078D01*
X137161917Y-106795428D01*
X137300389Y-107129729D01*
X137530984Y-107185410D01*
X138250395Y-106466000D01*
X138609605Y-106466000D01*
X139329016Y-107185410D01*
X139559611Y-107129729D01*
X139727622Y-106646922D01*
X139698083Y-106136572D01*
X139654386Y-106031078D01*
X144752378Y-106031078D01*
X144781917Y-106541428D01*
X144920389Y-106875729D01*
X145150984Y-106931410D01*
X145870395Y-106212000D01*
X146229605Y-106212000D01*
X146949016Y-106931410D01*
X147179611Y-106875729D01*
X147347622Y-106392922D01*
X147318083Y-105882572D01*
X147179611Y-105548271D01*
X146949016Y-105492590D01*
X146229605Y-106212000D01*
X145870395Y-106212000D01*
X145150984Y-105492590D01*
X144920389Y-105548271D01*
X144752378Y-106031078D01*
X139654386Y-106031078D01*
X139559611Y-105802271D01*
X139329016Y-105746590D01*
X138609605Y-106466000D01*
X138250395Y-106466000D01*
X137530984Y-105746590D01*
X137300389Y-105802271D01*
X137132378Y-106285078D01*
X132216140Y-106285078D01*
X132216140Y-105566984D01*
X137710590Y-105566984D01*
X138430000Y-106286395D01*
X139149410Y-105566984D01*
X139093729Y-105336389D01*
X139026471Y-105312984D01*
X145330590Y-105312984D01*
X146050000Y-106032395D01*
X146769410Y-105312984D01*
X146713729Y-105082389D01*
X146230922Y-104914378D01*
X145720572Y-104943917D01*
X145386271Y-105082389D01*
X145330590Y-105312984D01*
X139026471Y-105312984D01*
X138610922Y-105168378D01*
X138100572Y-105197917D01*
X137766271Y-105336389D01*
X137710590Y-105566984D01*
X132216140Y-105566984D01*
X132216140Y-105266400D01*
X132171862Y-105031083D01*
X132032790Y-104814959D01*
X132020182Y-104806344D01*
X132107027Y-104719499D01*
X132203700Y-104486110D01*
X132203700Y-104095550D01*
X132044950Y-103936800D01*
X130695700Y-103936800D01*
X130695700Y-103956800D01*
X130441700Y-103956800D01*
X130441700Y-103936800D01*
X129092450Y-103936800D01*
X128933700Y-104095550D01*
X128933700Y-104486110D01*
X129030373Y-104719499D01*
X129115605Y-104804731D01*
X128972269Y-105014510D01*
X128921260Y-105266400D01*
X116954383Y-105266400D01*
X116958803Y-105255756D01*
X116959197Y-104804225D01*
X116786767Y-104386914D01*
X116467765Y-104067355D01*
X116050756Y-103894197D01*
X115599225Y-103893803D01*
X115181914Y-104066233D01*
X114862355Y-104385235D01*
X114689197Y-104802244D01*
X114688803Y-105253775D01*
X113994000Y-105253775D01*
X113994000Y-102774750D01*
X124079000Y-102774750D01*
X124079000Y-103885309D01*
X124175673Y-104118698D01*
X124354301Y-104297327D01*
X124587690Y-104394000D01*
X125698250Y-104394000D01*
X125857000Y-104235250D01*
X125857000Y-102616000D01*
X126111000Y-102616000D01*
X126111000Y-104235250D01*
X126269750Y-104394000D01*
X127380310Y-104394000D01*
X127613699Y-104297327D01*
X127792327Y-104118698D01*
X127889000Y-103885309D01*
X127889000Y-103133490D01*
X128933700Y-103133490D01*
X128933700Y-103524050D01*
X129092450Y-103682800D01*
X130441700Y-103682800D01*
X130441700Y-102783550D01*
X130695700Y-102783550D01*
X130695700Y-103682800D01*
X132044950Y-103682800D01*
X132130002Y-103597748D01*
X132182853Y-103725658D01*
X132923443Y-104467542D01*
X133891567Y-104869542D01*
X134939834Y-104870457D01*
X135908658Y-104470147D01*
X136650542Y-103729557D01*
X136967176Y-102967016D01*
X150156590Y-102967016D01*
X150212271Y-103197611D01*
X150695078Y-103365622D01*
X151205428Y-103336083D01*
X151539729Y-103197611D01*
X151595410Y-102967016D01*
X150876000Y-102247605D01*
X150156590Y-102967016D01*
X136967176Y-102967016D01*
X137052542Y-102761433D01*
X137053457Y-101713166D01*
X136653147Y-100744342D01*
X135912557Y-100002458D01*
X134944433Y-99600458D01*
X133896166Y-99599543D01*
X132927342Y-99999853D01*
X132185458Y-100740443D01*
X131783458Y-101708567D01*
X131782627Y-102661092D01*
X131695009Y-102624800D01*
X130854450Y-102624800D01*
X130695700Y-102783550D01*
X130441700Y-102783550D01*
X130282950Y-102624800D01*
X129442391Y-102624800D01*
X129209002Y-102721473D01*
X129030373Y-102900101D01*
X128933700Y-103133490D01*
X127889000Y-103133490D01*
X127889000Y-102774750D01*
X127730250Y-102616000D01*
X126111000Y-102616000D01*
X125857000Y-102616000D01*
X124237750Y-102616000D01*
X124079000Y-102774750D01*
X113994000Y-102774750D01*
X113994000Y-101092691D01*
X124079000Y-101092691D01*
X124079000Y-102203250D01*
X124237750Y-102362000D01*
X125857000Y-102362000D01*
X125857000Y-100742750D01*
X126111000Y-100742750D01*
X126111000Y-102362000D01*
X127730250Y-102362000D01*
X127889000Y-102203250D01*
X127889000Y-101092691D01*
X127792327Y-100859302D01*
X127613699Y-100680673D01*
X127380310Y-100584000D01*
X126269750Y-100584000D01*
X126111000Y-100742750D01*
X125857000Y-100742750D01*
X125698250Y-100584000D01*
X124587690Y-100584000D01*
X124354301Y-100680673D01*
X124175673Y-100859302D01*
X124079000Y-101092691D01*
X113994000Y-101092691D01*
X113994000Y-91678750D01*
X114539000Y-91678750D01*
X114539000Y-92269309D01*
X114635673Y-92502698D01*
X114814301Y-92681327D01*
X115047690Y-92778000D01*
X115538250Y-92778000D01*
X115697000Y-92619250D01*
X115697000Y-91520000D01*
X114697750Y-91520000D01*
X114539000Y-91678750D01*
X113994000Y-91678750D01*
X113994000Y-76962000D01*
X114049999Y-76962000D01*
X114050000Y-76962005D01*
X114050000Y-80899000D01*
X114056445Y-80931400D01*
X114052404Y-80964187D01*
X114089929Y-81099734D01*
X114117367Y-81237675D01*
X114135720Y-81265143D01*
X114144534Y-81296980D01*
X115432314Y-83854761D01*
X115518849Y-83965623D01*
X115574712Y-84049229D01*
X115582788Y-84092147D01*
X115721860Y-84308271D01*
X115868213Y-84408270D01*
X115235950Y-84408270D01*
X115000633Y-84452548D01*
X114784509Y-84591620D01*
X114639519Y-84803820D01*
X114588510Y-85055710D01*
X114588510Y-85855810D01*
X114632788Y-86091127D01*
X114771860Y-86307251D01*
X114984060Y-86452241D01*
X115235950Y-86503250D01*
X115442943Y-86503250D01*
X116256184Y-87295560D01*
X115174000Y-87295560D01*
X114938683Y-87339838D01*
X114722559Y-87478910D01*
X114577569Y-87691110D01*
X114526560Y-87943000D01*
X114526560Y-89443000D01*
X114570838Y-89678317D01*
X114709910Y-89894441D01*
X114922110Y-90039431D01*
X114955490Y-90046191D01*
X114814301Y-90104673D01*
X114635673Y-90283302D01*
X114539000Y-90516691D01*
X114539000Y-91107250D01*
X114697750Y-91266000D01*
X115697000Y-91266000D01*
X115697000Y-91246000D01*
X115951000Y-91246000D01*
X115951000Y-91266000D01*
X115971000Y-91266000D01*
X115971000Y-91520000D01*
X115951000Y-91520000D01*
X115951000Y-92619250D01*
X116109750Y-92778000D01*
X116600310Y-92778000D01*
X116833699Y-92681327D01*
X117012327Y-92502698D01*
X117032514Y-92453962D01*
X117122910Y-92594441D01*
X117223000Y-92662830D01*
X117223000Y-94300198D01*
X115286599Y-96236599D01*
X115121852Y-96483161D01*
X115064000Y-96774000D01*
X115064000Y-98214941D01*
X114862355Y-98416235D01*
X114689197Y-98833244D01*
X114688803Y-99284775D01*
X114861233Y-99702086D01*
X115180235Y-100021645D01*
X115597244Y-100194803D01*
X116048775Y-100195197D01*
X116466086Y-100022767D01*
X116785645Y-99703765D01*
X116958803Y-99286756D01*
X116959197Y-98835225D01*
X116786767Y-98417914D01*
X116584000Y-98214793D01*
X116584000Y-97088802D01*
X118520401Y-95152401D01*
X118685148Y-94905840D01*
X118705832Y-94801852D01*
X118743000Y-94615000D01*
X118743000Y-92790440D01*
X118887000Y-92790440D01*
X119122317Y-92746162D01*
X119338441Y-92607090D01*
X119483431Y-92394890D01*
X119534440Y-92143000D01*
X119534440Y-90643000D01*
X119490162Y-90407683D01*
X119351090Y-90191559D01*
X119138890Y-90046569D01*
X119125803Y-90043919D01*
X119338441Y-89907090D01*
X119483431Y-89694890D01*
X119534440Y-89443000D01*
X119534440Y-87943000D01*
X119490162Y-87707683D01*
X119351090Y-87491559D01*
X119138890Y-87346569D01*
X118887000Y-87295560D01*
X118773139Y-87295560D01*
X118039790Y-86562210D01*
X118034905Y-86558946D01*
X118031579Y-86554106D01*
X117966611Y-86490810D01*
X118062359Y-86490810D01*
X118295748Y-86394137D01*
X118474377Y-86215509D01*
X118571050Y-85982120D01*
X118571050Y-85741510D01*
X118412300Y-85582760D01*
X117663000Y-85582760D01*
X117663000Y-85602760D01*
X117409000Y-85602760D01*
X117409000Y-85582760D01*
X117389000Y-85582760D01*
X117389000Y-85328760D01*
X117409000Y-85328760D01*
X117409000Y-84579460D01*
X117663000Y-84579460D01*
X117663000Y-85328760D01*
X118412300Y-85328760D01*
X118571050Y-85170010D01*
X118571050Y-84929400D01*
X118474377Y-84696011D01*
X118295748Y-84517383D01*
X118062359Y-84420710D01*
X117821750Y-84420710D01*
X117663000Y-84579460D01*
X117409000Y-84579460D01*
X117262843Y-84433303D01*
X117437491Y-84320920D01*
X117582481Y-84108720D01*
X117633490Y-83856830D01*
X117633490Y-83056730D01*
X117589212Y-82821413D01*
X117450140Y-82605289D01*
X117237940Y-82460299D01*
X116986050Y-82409290D01*
X116686234Y-82409290D01*
X115820000Y-80688783D01*
X115820000Y-79813419D01*
X115861670Y-79841891D01*
X116113560Y-79892900D01*
X117312440Y-79892900D01*
X117547757Y-79848622D01*
X117701560Y-79749652D01*
X117701560Y-80078000D01*
X117745838Y-80313317D01*
X117884910Y-80529441D01*
X118097110Y-80674431D01*
X118349000Y-80725440D01*
X119649000Y-80725440D01*
X119884317Y-80681162D01*
X120100441Y-80542090D01*
X120245431Y-80329890D01*
X120296440Y-80078000D01*
X120296440Y-78578000D01*
X120252162Y-78342683D01*
X120217974Y-78289554D01*
X120654000Y-78725579D01*
X120654000Y-92963995D01*
X120653999Y-92964000D01*
X120683973Y-93114685D01*
X120721367Y-93302675D01*
X120913210Y-93589790D01*
X124159284Y-96835863D01*
X124079332Y-97028410D01*
X124078670Y-97786265D01*
X124368078Y-98486686D01*
X124903495Y-99023039D01*
X125603410Y-99313668D01*
X126361265Y-99314330D01*
X127061686Y-99024922D01*
X127598039Y-98489505D01*
X127888668Y-97789590D01*
X127889330Y-97031735D01*
X127613335Y-96363775D01*
X128404803Y-96363775D01*
X128577233Y-96781086D01*
X128896235Y-97100645D01*
X129313244Y-97273803D01*
X129764775Y-97274197D01*
X130182086Y-97101767D01*
X130501645Y-96782765D01*
X130674803Y-96365756D01*
X130675197Y-95914225D01*
X130556518Y-95627000D01*
X134888420Y-95627000D01*
X136021000Y-96759579D01*
X136021000Y-98765355D01*
X136020999Y-98765360D01*
X136064172Y-98982401D01*
X136088367Y-99104035D01*
X136280210Y-99391150D01*
X137828248Y-100939187D01*
X137811794Y-100978813D01*
X137811226Y-101629054D01*
X138059538Y-102230015D01*
X138518927Y-102690206D01*
X139119453Y-102939566D01*
X139769694Y-102940134D01*
X140370655Y-102691822D01*
X140732584Y-102330523D01*
X144061443Y-102330523D01*
X144160042Y-102597325D01*
X144769582Y-102823761D01*
X145419377Y-102799701D01*
X145907958Y-102597325D01*
X146006557Y-102330523D01*
X145034000Y-101357965D01*
X144061443Y-102330523D01*
X140732584Y-102330523D01*
X140830846Y-102232433D01*
X141080206Y-101631907D01*
X141080424Y-101382256D01*
X141548737Y-100913942D01*
X143388599Y-100913942D01*
X143412659Y-101563737D01*
X143615035Y-102052318D01*
X143881837Y-102150917D01*
X144854395Y-101178360D01*
X145213605Y-101178360D01*
X146186163Y-102150917D01*
X146452965Y-102052318D01*
X146514349Y-101887078D01*
X149578378Y-101887078D01*
X149607917Y-102397428D01*
X149746389Y-102731729D01*
X149976984Y-102787410D01*
X150696395Y-102068000D01*
X151055605Y-102068000D01*
X151775016Y-102787410D01*
X152005611Y-102731729D01*
X152173622Y-102248922D01*
X152144083Y-101738572D01*
X152005611Y-101404271D01*
X151775016Y-101348590D01*
X151055605Y-102068000D01*
X150696395Y-102068000D01*
X149976984Y-101348590D01*
X149746389Y-101404271D01*
X149578378Y-101887078D01*
X146514349Y-101887078D01*
X146679401Y-101442778D01*
X146655341Y-100792983D01*
X146452965Y-100304402D01*
X146186163Y-100205803D01*
X145213605Y-101178360D01*
X144854395Y-101178360D01*
X143881837Y-100205803D01*
X143615035Y-100304402D01*
X143388599Y-100913942D01*
X141548737Y-100913942D01*
X142436482Y-100026197D01*
X144061443Y-100026197D01*
X145034000Y-100998755D01*
X146006557Y-100026197D01*
X145907958Y-99759395D01*
X145298418Y-99532959D01*
X144648623Y-99557019D01*
X144160042Y-99759395D01*
X144061443Y-100026197D01*
X142436482Y-100026197D01*
X144667827Y-97794852D01*
X144707453Y-97811306D01*
X145357694Y-97811874D01*
X145958655Y-97563562D01*
X146418846Y-97104173D01*
X146668206Y-96503647D01*
X146668774Y-95853406D01*
X146420462Y-95252445D01*
X145961073Y-94792254D01*
X145360547Y-94542894D01*
X144710306Y-94542326D01*
X144109345Y-94790638D01*
X143649154Y-95250027D01*
X143399794Y-95850553D01*
X143399226Y-96500794D01*
X143416623Y-96542898D01*
X140137023Y-99822497D01*
X139772547Y-99671154D01*
X139122306Y-99670586D01*
X139080202Y-99687983D01*
X137791000Y-98398780D01*
X137791000Y-96627794D01*
X137811226Y-96627794D01*
X138059538Y-97228755D01*
X138518927Y-97688946D01*
X139119453Y-97938306D01*
X139769694Y-97938874D01*
X140370655Y-97690562D01*
X140830846Y-97231173D01*
X141080206Y-96630647D01*
X141080774Y-95980406D01*
X140832462Y-95379445D01*
X140373073Y-94919254D01*
X139772547Y-94669894D01*
X139122306Y-94669326D01*
X138521345Y-94917638D01*
X138061154Y-95377027D01*
X137811794Y-95977553D01*
X137811226Y-96627794D01*
X137791000Y-96627794D01*
X137791000Y-96393005D01*
X137791001Y-96393000D01*
X137723634Y-96054326D01*
X137647667Y-95940633D01*
X137531790Y-95767210D01*
X137531787Y-95767208D01*
X135880790Y-94116210D01*
X135657583Y-93967069D01*
X135593675Y-93924367D01*
X135537484Y-93913190D01*
X135255000Y-93856999D01*
X135254995Y-93857000D01*
X130175000Y-93857000D01*
X129836325Y-93924367D01*
X129549210Y-94116210D01*
X129549208Y-94116213D01*
X129041210Y-94624210D01*
X128849367Y-94911325D01*
X128849367Y-94911326D01*
X128781999Y-95250000D01*
X128782000Y-95250005D01*
X128782000Y-95291945D01*
X128578355Y-95495235D01*
X128405197Y-95912244D01*
X128404803Y-96363775D01*
X127613335Y-96363775D01*
X127599922Y-96331314D01*
X127064505Y-95794961D01*
X126364590Y-95504332D01*
X125606735Y-95503670D01*
X125411089Y-95584509D01*
X122424000Y-92597420D01*
X122424000Y-87592535D01*
X122437155Y-87624372D01*
X123065321Y-88253636D01*
X123886481Y-88594611D01*
X124775619Y-88595387D01*
X125597372Y-88255845D01*
X126226636Y-87627679D01*
X126567611Y-86806519D01*
X126568387Y-85917381D01*
X126278702Y-85216290D01*
X126567611Y-84520519D01*
X126568387Y-83631381D01*
X126228845Y-82809628D01*
X126223768Y-82804542D01*
X126226636Y-82801679D01*
X126567611Y-81980519D01*
X126568387Y-81091381D01*
X126228845Y-80269628D01*
X125969671Y-80010000D01*
X127094655Y-80010000D01*
X127208729Y-80583489D01*
X127533585Y-81069670D01*
X127848366Y-81280000D01*
X127533585Y-81490330D01*
X127208729Y-81976511D01*
X127094655Y-82550000D01*
X127208729Y-83123489D01*
X127533585Y-83609670D01*
X127848366Y-83820000D01*
X127533585Y-84030330D01*
X127208729Y-84516511D01*
X127094655Y-85090000D01*
X127208729Y-85663489D01*
X127533585Y-86149670D01*
X127848366Y-86360000D01*
X127533585Y-86570330D01*
X127208729Y-87056511D01*
X127094655Y-87630000D01*
X127208729Y-88203489D01*
X127533585Y-88689670D01*
X127547913Y-88699243D01*
X127526683Y-88703238D01*
X127310559Y-88842310D01*
X127165569Y-89054510D01*
X127114560Y-89306400D01*
X127114560Y-91033600D01*
X127158838Y-91268917D01*
X127297910Y-91485041D01*
X127510110Y-91630031D01*
X127762000Y-91681040D01*
X129794000Y-91681040D01*
X130029317Y-91636762D01*
X130245441Y-91497690D01*
X130390431Y-91285490D01*
X130441440Y-91033600D01*
X130441440Y-89306400D01*
X130397162Y-89071083D01*
X130258090Y-88854959D01*
X130045890Y-88709969D01*
X130004561Y-88701600D01*
X130022415Y-88689670D01*
X130347271Y-88203489D01*
X130461345Y-87630000D01*
X130347271Y-87056511D01*
X130022415Y-86570330D01*
X129707634Y-86360000D01*
X130022415Y-86149670D01*
X130347271Y-85663489D01*
X130461345Y-85090000D01*
X130347271Y-84516511D01*
X130022415Y-84030330D01*
X129707634Y-83820000D01*
X130022415Y-83609670D01*
X130347271Y-83123489D01*
X130461345Y-82550000D01*
X130347271Y-81976511D01*
X130022415Y-81490330D01*
X129707634Y-81280000D01*
X130022415Y-81069670D01*
X130347271Y-80583489D01*
X130447703Y-80078580D01*
X131603331Y-80078580D01*
X131708758Y-80608597D01*
X132008988Y-81057923D01*
X132443987Y-81348580D01*
X132008988Y-81639237D01*
X131708758Y-82088563D01*
X131603331Y-82618580D01*
X131708758Y-83148597D01*
X132008988Y-83597923D01*
X132443987Y-83888580D01*
X132008988Y-84179237D01*
X131708758Y-84628563D01*
X131603331Y-85158580D01*
X131708758Y-85688597D01*
X132008988Y-86137923D01*
X132443987Y-86428580D01*
X132008988Y-86719237D01*
X131708758Y-87168563D01*
X131603331Y-87698580D01*
X131708758Y-88228597D01*
X132008988Y-88677923D01*
X132082930Y-88727329D01*
X132039943Y-88735418D01*
X131823819Y-88874490D01*
X131678829Y-89086690D01*
X131627820Y-89338580D01*
X131627820Y-91138580D01*
X131672098Y-91373897D01*
X131811170Y-91590021D01*
X132023370Y-91735011D01*
X132275260Y-91786020D01*
X134775260Y-91786020D01*
X135010577Y-91741742D01*
X135226701Y-91602670D01*
X135371691Y-91390470D01*
X135422700Y-91138580D01*
X135422700Y-89338580D01*
X135378422Y-89103263D01*
X135239350Y-88887139D01*
X135100103Y-88791995D01*
X138077416Y-88791995D01*
X138325806Y-89393143D01*
X138785337Y-89853478D01*
X139386052Y-90102916D01*
X140036495Y-90103484D01*
X140637643Y-89855094D01*
X141097978Y-89395563D01*
X141332780Y-88830095D01*
X143792416Y-88830095D01*
X144040806Y-89431243D01*
X144500337Y-89891578D01*
X145101052Y-90141016D01*
X145751495Y-90141584D01*
X146352643Y-89893194D01*
X146812978Y-89433663D01*
X147062416Y-88832948D01*
X147062984Y-88182505D01*
X146814594Y-87581357D01*
X146355063Y-87121022D01*
X145754348Y-86871584D01*
X145103905Y-86871016D01*
X144502757Y-87119406D01*
X144042422Y-87578937D01*
X143792984Y-88179652D01*
X143792416Y-88830095D01*
X141332780Y-88830095D01*
X141347416Y-88794848D01*
X141347984Y-88144405D01*
X141099594Y-87543257D01*
X140640063Y-87082922D01*
X140039348Y-86833484D01*
X139388905Y-86832916D01*
X138787757Y-87081306D01*
X138327422Y-87540837D01*
X138077984Y-88141552D01*
X138077416Y-88791995D01*
X135100103Y-88791995D01*
X135027150Y-88742149D01*
X134964422Y-88729446D01*
X135041532Y-88677923D01*
X135341762Y-88228597D01*
X135447189Y-87698580D01*
X135341762Y-87168563D01*
X135041532Y-86719237D01*
X134606533Y-86428580D01*
X135041532Y-86137923D01*
X135341762Y-85688597D01*
X135447189Y-85158580D01*
X135341762Y-84628563D01*
X135041532Y-84179237D01*
X134606533Y-83888580D01*
X135041532Y-83597923D01*
X135341762Y-83148597D01*
X135447189Y-82618580D01*
X135341762Y-82088563D01*
X135041532Y-81639237D01*
X134606533Y-81348580D01*
X135041532Y-81057923D01*
X135341762Y-80608597D01*
X135447189Y-80078580D01*
X135341762Y-79548563D01*
X135041532Y-79099237D01*
X134592206Y-78799007D01*
X134062189Y-78693580D01*
X132988331Y-78693580D01*
X132458314Y-78799007D01*
X132008988Y-79099237D01*
X131708758Y-79548563D01*
X131603331Y-80078580D01*
X130447703Y-80078580D01*
X130461345Y-80010000D01*
X130347271Y-79436511D01*
X130022415Y-78950330D01*
X129536234Y-78625474D01*
X128962745Y-78511400D01*
X128593255Y-78511400D01*
X128019766Y-78625474D01*
X127533585Y-78950330D01*
X127208729Y-79436511D01*
X127094655Y-80010000D01*
X125969671Y-80010000D01*
X125600679Y-79640364D01*
X124779519Y-79299389D01*
X123890381Y-79298613D01*
X123068628Y-79638155D01*
X122439364Y-80266321D01*
X122424000Y-80303322D01*
X122424000Y-78359005D01*
X122424001Y-78359000D01*
X122356633Y-78020326D01*
X122356633Y-78020325D01*
X122164790Y-77733210D01*
X122164787Y-77733208D01*
X120433790Y-76002210D01*
X120389839Y-75972843D01*
X120296440Y-75910436D01*
X120296440Y-75878000D01*
X120252162Y-75642683D01*
X120113090Y-75426559D01*
X119900890Y-75281569D01*
X119884000Y-75278149D01*
X119884000Y-75153580D01*
X120374139Y-74663440D01*
X120835000Y-74663440D01*
X121070317Y-74619162D01*
X121286441Y-74480090D01*
X121431431Y-74267890D01*
X121482440Y-74016000D01*
X121482440Y-73077020D01*
X123829000Y-75423579D01*
X123829000Y-76326995D01*
X123828999Y-76327000D01*
X123883636Y-76601674D01*
X123896367Y-76665675D01*
X124007068Y-76831352D01*
X124088210Y-76952790D01*
X124912208Y-77776787D01*
X124912210Y-77776790D01*
X125199325Y-77968633D01*
X125255516Y-77979810D01*
X125538000Y-78036001D01*
X125538005Y-78036000D01*
X141209601Y-78036000D01*
X141342980Y-78358800D01*
X141943041Y-78959909D01*
X142727459Y-79285628D01*
X143576815Y-79286370D01*
X144361800Y-78962020D01*
X144962909Y-78361959D01*
X145288628Y-77577541D01*
X145289370Y-76728185D01*
X144965020Y-75943200D01*
X144364959Y-75342091D01*
X143580541Y-75016372D01*
X142731185Y-75015630D01*
X141946200Y-75339980D01*
X141345091Y-75940041D01*
X141209741Y-76266000D01*
X125904579Y-76266000D01*
X125599000Y-75960420D01*
X125599000Y-75057005D01*
X125599001Y-75057000D01*
X125531634Y-74718326D01*
X125372450Y-74480090D01*
X125339790Y-74431210D01*
X125339787Y-74431208D01*
X123806580Y-72898000D01*
X125844560Y-72898000D01*
X125844560Y-75438000D01*
X125888838Y-75673317D01*
X126027910Y-75889441D01*
X126240110Y-76034431D01*
X126492000Y-76085440D01*
X129032000Y-76085440D01*
X129267317Y-76041162D01*
X129483441Y-75902090D01*
X129628431Y-75689890D01*
X129679440Y-75438000D01*
X129679440Y-72898000D01*
X129635162Y-72662683D01*
X129496090Y-72446559D01*
X129283890Y-72301569D01*
X129032000Y-72250560D01*
X126492000Y-72250560D01*
X126256683Y-72294838D01*
X126040559Y-72433910D01*
X125895569Y-72646110D01*
X125844560Y-72898000D01*
X123806580Y-72898000D01*
X122562601Y-71654021D01*
X138613560Y-71654021D01*
X138999437Y-72587915D01*
X139713327Y-73303052D01*
X140646546Y-73690559D01*
X141657021Y-73691440D01*
X142590915Y-73305563D01*
X143306052Y-72591673D01*
X143693559Y-71658454D01*
X143694440Y-70647979D01*
X143308563Y-69714085D01*
X142594673Y-68998948D01*
X141661454Y-68611441D01*
X140650979Y-68610560D01*
X139717085Y-68996437D01*
X139001948Y-69710327D01*
X138614441Y-70643546D01*
X138613560Y-71654021D01*
X122562601Y-71654021D01*
X121656790Y-70748210D01*
X121587690Y-70702039D01*
X121369675Y-70556367D01*
X121313484Y-70545190D01*
X121031000Y-70488999D01*
X121030995Y-70489000D01*
X117983000Y-70489000D01*
X117644325Y-70556367D01*
X117357210Y-70748210D01*
X117357208Y-70748213D01*
X116484210Y-71621210D01*
X116292367Y-71908325D01*
X116292367Y-71908326D01*
X116224999Y-72247000D01*
X116225000Y-72247005D01*
X116225000Y-72318113D01*
X116203559Y-72331910D01*
X116058569Y-72544110D01*
X116007560Y-72796000D01*
X116007560Y-73296415D01*
X115895367Y-73464325D01*
X115895367Y-73464326D01*
X115827999Y-73803000D01*
X115828000Y-73803005D01*
X115828000Y-75377708D01*
X115662119Y-75484450D01*
X115540135Y-75662980D01*
X115349025Y-75662980D01*
X115349020Y-75662979D01*
X115092099Y-75714085D01*
X115010345Y-75730347D01*
X114723230Y-75922190D01*
X114723228Y-75922193D01*
X114309210Y-76336210D01*
X114117367Y-76623325D01*
X114117367Y-76623326D01*
X114049999Y-76962000D01*
X113994000Y-76962000D01*
X113994000Y-69465265D01*
X125856670Y-69465265D01*
X126146078Y-70165686D01*
X126681495Y-70702039D01*
X127381410Y-70992668D01*
X128139265Y-70993330D01*
X128839686Y-70703922D01*
X129376039Y-70168505D01*
X129666668Y-69468590D01*
X129667330Y-68710735D01*
X129653736Y-68677834D01*
X132290543Y-68677834D01*
X132690853Y-69646658D01*
X133431443Y-70388542D01*
X134399567Y-70790542D01*
X135447834Y-70791457D01*
X136416658Y-70391147D01*
X137158542Y-69650557D01*
X137560542Y-68682433D01*
X137561457Y-67634166D01*
X137161147Y-66665342D01*
X136420557Y-65923458D01*
X135452433Y-65521458D01*
X134404166Y-65520543D01*
X133435342Y-65920853D01*
X132693458Y-66661443D01*
X132291458Y-67629567D01*
X132290543Y-68677834D01*
X129653736Y-68677834D01*
X129377922Y-68010314D01*
X128842505Y-67473961D01*
X128142590Y-67183332D01*
X127384735Y-67182670D01*
X126684314Y-67472078D01*
X126147961Y-68007495D01*
X125857332Y-68707410D01*
X125856670Y-69465265D01*
X113994000Y-69465265D01*
X113994000Y-64385265D01*
X125856670Y-64385265D01*
X126146078Y-65085686D01*
X126681495Y-65622039D01*
X127381410Y-65912668D01*
X128139265Y-65913330D01*
X128839686Y-65623922D01*
X129376039Y-65088505D01*
X129666668Y-64388590D01*
X129667312Y-63651000D01*
X141006560Y-63651000D01*
X141006560Y-66651000D01*
X141050838Y-66886317D01*
X141189910Y-67102441D01*
X141402110Y-67247431D01*
X141654000Y-67298440D01*
X144654000Y-67298440D01*
X144889317Y-67254162D01*
X145105441Y-67115090D01*
X145250431Y-66902890D01*
X145301440Y-66651000D01*
X145301440Y-66036000D01*
X145365920Y-66036000D01*
X150118000Y-70788079D01*
X150118000Y-89153995D01*
X150117999Y-89154000D01*
X150118000Y-89154005D01*
X150118000Y-90313778D01*
X150117683Y-90313838D01*
X149901559Y-90452910D01*
X149756569Y-90665110D01*
X149705560Y-90917000D01*
X149705560Y-92217000D01*
X149749838Y-92452317D01*
X149888910Y-92668441D01*
X150101110Y-92813431D01*
X150118000Y-92816851D01*
X150118000Y-98290882D01*
X149990683Y-98314838D01*
X149774559Y-98453910D01*
X149629569Y-98666110D01*
X149578560Y-98918000D01*
X149578560Y-100218000D01*
X149622838Y-100453317D01*
X149761910Y-100669441D01*
X149974110Y-100814431D01*
X150226000Y-100865440D01*
X150388385Y-100865440D01*
X150212271Y-100938389D01*
X150156590Y-101168984D01*
X150876000Y-101888395D01*
X151595410Y-101168984D01*
X151539729Y-100938389D01*
X151330098Y-100865440D01*
X151526000Y-100865440D01*
X151761317Y-100821162D01*
X151977441Y-100682090D01*
X152122431Y-100469890D01*
X152173440Y-100218000D01*
X152173440Y-98918000D01*
X152129162Y-98682683D01*
X151990090Y-98466559D01*
X151888000Y-98396804D01*
X151888000Y-92820222D01*
X151888317Y-92820162D01*
X152104441Y-92681090D01*
X152249431Y-92468890D01*
X152250012Y-92466016D01*
X155283590Y-92466016D01*
X155339271Y-92696611D01*
X155822078Y-92864622D01*
X156332428Y-92835083D01*
X156666729Y-92696611D01*
X156722410Y-92466016D01*
X156003000Y-91746605D01*
X155283590Y-92466016D01*
X152250012Y-92466016D01*
X152300440Y-92217000D01*
X152300440Y-91386078D01*
X154705378Y-91386078D01*
X154734917Y-91896428D01*
X154873389Y-92230729D01*
X155103984Y-92286410D01*
X155823395Y-91567000D01*
X156182605Y-91567000D01*
X156902016Y-92286410D01*
X157132611Y-92230729D01*
X157300622Y-91747922D01*
X157271083Y-91237572D01*
X157132611Y-90903271D01*
X156902016Y-90847590D01*
X156182605Y-91567000D01*
X155823395Y-91567000D01*
X155103984Y-90847590D01*
X154873389Y-90903271D01*
X154705378Y-91386078D01*
X152300440Y-91386078D01*
X152300440Y-90917000D01*
X152256162Y-90681683D01*
X152247347Y-90667984D01*
X155283590Y-90667984D01*
X156003000Y-91387395D01*
X156722410Y-90667984D01*
X156666729Y-90437389D01*
X156263299Y-90297000D01*
X159512000Y-90297000D01*
X159512000Y-109220000D01*
X159520685Y-109266159D01*
X159547965Y-109308553D01*
X159589590Y-109336994D01*
X159639000Y-109347000D01*
X167513000Y-109347000D01*
X167559159Y-109338315D01*
X167601553Y-109311035D01*
X167629994Y-109269410D01*
X167640000Y-109220000D01*
X167640000Y-89154000D01*
X167631315Y-89107841D01*
X167604035Y-89065447D01*
X167562410Y-89037006D01*
X167513000Y-89027000D01*
X160782000Y-89027000D01*
X160734211Y-89036334D01*
X160692197Y-89064197D01*
X159549197Y-90207197D01*
X159522006Y-90247590D01*
X159512000Y-90297000D01*
X156263299Y-90297000D01*
X156183922Y-90269378D01*
X155673572Y-90298917D01*
X155339271Y-90437389D01*
X155283590Y-90667984D01*
X152247347Y-90667984D01*
X152117090Y-90465559D01*
X151904890Y-90320569D01*
X151888000Y-90317149D01*
X151888000Y-89520580D01*
X155539579Y-85869000D01*
X170302601Y-85869000D01*
X170435980Y-86191800D01*
X171036041Y-86792909D01*
X171820459Y-87118628D01*
X172669815Y-87119370D01*
X173454800Y-86795020D01*
X173752368Y-86497970D01*
X180912635Y-86497970D01*
X181072418Y-86816739D01*
X181863187Y-87126723D01*
X182712387Y-87110497D01*
X183421582Y-86816739D01*
X183581365Y-86497970D01*
X182247000Y-85163605D01*
X180912635Y-86497970D01*
X173752368Y-86497970D01*
X174055909Y-86194959D01*
X174381628Y-85410541D01*
X174382335Y-84600187D01*
X180104277Y-84600187D01*
X180120503Y-85449387D01*
X180414261Y-86158582D01*
X180733030Y-86318365D01*
X182067395Y-84984000D01*
X182426605Y-84984000D01*
X183760970Y-86318365D01*
X184079739Y-86158582D01*
X184389723Y-85367813D01*
X184373497Y-84518613D01*
X184079739Y-83809418D01*
X183760970Y-83649635D01*
X182426605Y-84984000D01*
X182067395Y-84984000D01*
X180733030Y-83649635D01*
X180414261Y-83809418D01*
X180104277Y-84600187D01*
X174382335Y-84600187D01*
X174382370Y-84561185D01*
X174058020Y-83776200D01*
X173752384Y-83470030D01*
X180912635Y-83470030D01*
X182247000Y-84804395D01*
X183581365Y-83470030D01*
X183421582Y-83151261D01*
X182630813Y-82841277D01*
X181781613Y-82857503D01*
X181072418Y-83151261D01*
X180912635Y-83470030D01*
X173752384Y-83470030D01*
X173457959Y-83175091D01*
X172673541Y-82849372D01*
X171824185Y-82848630D01*
X171039200Y-83172980D01*
X170438091Y-83773041D01*
X170302741Y-84099000D01*
X155173005Y-84099000D01*
X155173000Y-84098999D01*
X154834326Y-84166366D01*
X154739054Y-84230025D01*
X154547210Y-84358210D01*
X154547208Y-84358213D01*
X151888000Y-87017420D01*
X151888000Y-77654021D01*
X152813560Y-77654021D01*
X153199437Y-78587915D01*
X153913327Y-79303052D01*
X154846546Y-79690559D01*
X155857021Y-79691440D01*
X156790915Y-79305563D01*
X157506052Y-78591673D01*
X157893559Y-77658454D01*
X157894440Y-76647979D01*
X157508563Y-75714085D01*
X156794673Y-74998948D01*
X155861454Y-74611441D01*
X154850979Y-74610560D01*
X153917085Y-74996437D01*
X153201948Y-75710327D01*
X152814441Y-76643546D01*
X152813560Y-77654021D01*
X151888000Y-77654021D01*
X151888000Y-70421505D01*
X151888001Y-70421500D01*
X151820634Y-70082826D01*
X151706282Y-69911686D01*
X151628790Y-69795710D01*
X151628787Y-69795708D01*
X147487101Y-65654021D01*
X152653560Y-65654021D01*
X153039437Y-66587915D01*
X153753327Y-67303052D01*
X154686546Y-67690559D01*
X155697021Y-67691440D01*
X156630915Y-67305563D01*
X157346052Y-66591673D01*
X157733559Y-65658454D01*
X157734440Y-64647979D01*
X157348563Y-63714085D01*
X156634673Y-62998948D01*
X155701454Y-62611441D01*
X154690979Y-62610560D01*
X153757085Y-62996437D01*
X153041948Y-63710327D01*
X152654441Y-64643546D01*
X152653560Y-65654021D01*
X147487101Y-65654021D01*
X146358290Y-64525210D01*
X146071175Y-64333367D01*
X146014984Y-64322190D01*
X145732500Y-64265999D01*
X145732495Y-64266000D01*
X145301440Y-64266000D01*
X145301440Y-63651000D01*
X145257162Y-63415683D01*
X145118090Y-63199559D01*
X144905890Y-63054569D01*
X144654000Y-63003560D01*
X141654000Y-63003560D01*
X141418683Y-63047838D01*
X141202559Y-63186910D01*
X141057569Y-63399110D01*
X141006560Y-63651000D01*
X129667312Y-63651000D01*
X129667330Y-63630735D01*
X129377922Y-62930314D01*
X128842505Y-62393961D01*
X128142590Y-62103332D01*
X127384735Y-62102670D01*
X126684314Y-62392078D01*
X126147961Y-62927495D01*
X125857332Y-63627410D01*
X125856670Y-64385265D01*
X113994000Y-64385265D01*
X113994000Y-49605000D01*
X161923074Y-49605000D01*
X161798002Y-70992257D01*
G36*
X182118000Y-112696000D02*
X182138000Y-112696000D01*
X182138000Y-112950000D01*
X182118000Y-112950000D01*
X182118000Y-112970000D01*
X181864000Y-112970000D01*
X181864000Y-112950000D01*
X181844000Y-112950000D01*
X181844000Y-112696000D01*
X181864000Y-112696000D01*
X181864000Y-112676000D01*
X182118000Y-112676000D01*
X182118000Y-112696000D01*
X182118000Y-112696000D01*
G37*
X182118000Y-112696000D02*
X182138000Y-112696000D01*
X182138000Y-112950000D01*
X182118000Y-112950000D01*
X182118000Y-112970000D01*
X181864000Y-112970000D01*
X181864000Y-112950000D01*
X181844000Y-112950000D01*
X181844000Y-112696000D01*
X181864000Y-112696000D01*
X181864000Y-112676000D01*
X182118000Y-112676000D01*
X182118000Y-112696000D01*
G36*
X196048127Y-86423500D02*
X195613128Y-86714157D01*
X195312898Y-87163483D01*
X195207471Y-87693500D01*
X195312898Y-88223517D01*
X195613128Y-88672843D01*
X196048127Y-88963500D01*
X195613128Y-89254157D01*
X195312898Y-89703483D01*
X195207471Y-90233500D01*
X195312898Y-90763517D01*
X195613128Y-91212843D01*
X196062454Y-91513073D01*
X196073880Y-91515346D01*
X195982051Y-91542528D01*
X195560255Y-91883960D01*
X195301227Y-92360816D01*
X195287082Y-92432315D01*
X195409744Y-92646500D01*
X197002400Y-92646500D01*
X197002400Y-92626500D01*
X197256400Y-92626500D01*
X197256400Y-92646500D01*
X197276400Y-92646500D01*
X197276400Y-92900500D01*
X197256400Y-92900500D01*
X197256400Y-92920500D01*
X197002400Y-92920500D01*
X197002400Y-92900500D01*
X195409744Y-92900500D01*
X195287082Y-93114685D01*
X195301227Y-93186184D01*
X195560255Y-93663040D01*
X195874068Y-93917063D01*
X195644083Y-93960338D01*
X195427959Y-94099410D01*
X195282969Y-94311610D01*
X195231960Y-94563500D01*
X195231960Y-96063500D01*
X195276238Y-96298817D01*
X195415310Y-96514941D01*
X195627510Y-96659931D01*
X195879400Y-96710940D01*
X198379400Y-96710940D01*
X198614717Y-96666662D01*
X198830841Y-96527590D01*
X198975831Y-96315390D01*
X198999502Y-96198500D01*
X199390000Y-96198500D01*
X199728675Y-96131133D01*
X199900000Y-96016658D01*
X199900000Y-104079198D01*
X199202198Y-104777000D01*
X192208900Y-104777000D01*
X192310345Y-104267000D01*
X192208900Y-103757000D01*
X193167000Y-103757000D01*
X193457839Y-103699148D01*
X193704401Y-103534401D01*
X193888666Y-103350136D01*
X193991353Y-103598658D01*
X194731943Y-104340542D01*
X195700067Y-104742542D01*
X196748334Y-104743457D01*
X197717158Y-104343147D01*
X198459042Y-103602557D01*
X198861042Y-102634433D01*
X198861957Y-101586166D01*
X198461647Y-100617342D01*
X197721057Y-99875458D01*
X196752933Y-99473458D01*
X195704666Y-99472543D01*
X194735842Y-99872853D01*
X194435000Y-100173170D01*
X194435000Y-97205382D01*
X194466401Y-97184401D01*
X194593401Y-97057401D01*
X194758148Y-96810839D01*
X194816000Y-96520000D01*
X194816000Y-87309802D01*
X195840820Y-86284982D01*
X196048127Y-86423500D01*
X196048127Y-86423500D01*
G37*
X196048127Y-86423500D02*
X195613128Y-86714157D01*
X195312898Y-87163483D01*
X195207471Y-87693500D01*
X195312898Y-88223517D01*
X195613128Y-88672843D01*
X196048127Y-88963500D01*
X195613128Y-89254157D01*
X195312898Y-89703483D01*
X195207471Y-90233500D01*
X195312898Y-90763517D01*
X195613128Y-91212843D01*
X196062454Y-91513073D01*
X196073880Y-91515346D01*
X195982051Y-91542528D01*
X195560255Y-91883960D01*
X195301227Y-92360816D01*
X195287082Y-92432315D01*
X195409744Y-92646500D01*
X197002400Y-92646500D01*
X197002400Y-92626500D01*
X197256400Y-92626500D01*
X197256400Y-92646500D01*
X197276400Y-92646500D01*
X197276400Y-92900500D01*
X197256400Y-92900500D01*
X197256400Y-92920500D01*
X197002400Y-92920500D01*
X197002400Y-92900500D01*
X195409744Y-92900500D01*
X195287082Y-93114685D01*
X195301227Y-93186184D01*
X195560255Y-93663040D01*
X195874068Y-93917063D01*
X195644083Y-93960338D01*
X195427959Y-94099410D01*
X195282969Y-94311610D01*
X195231960Y-94563500D01*
X195231960Y-96063500D01*
X195276238Y-96298817D01*
X195415310Y-96514941D01*
X195627510Y-96659931D01*
X195879400Y-96710940D01*
X198379400Y-96710940D01*
X198614717Y-96666662D01*
X198830841Y-96527590D01*
X198975831Y-96315390D01*
X198999502Y-96198500D01*
X199390000Y-96198500D01*
X199728675Y-96131133D01*
X199900000Y-96016658D01*
X199900000Y-104079198D01*
X199202198Y-104777000D01*
X192208900Y-104777000D01*
X192310345Y-104267000D01*
X192208900Y-103757000D01*
X193167000Y-103757000D01*
X193457839Y-103699148D01*
X193704401Y-103534401D01*
X193888666Y-103350136D01*
X193991353Y-103598658D01*
X194731943Y-104340542D01*
X195700067Y-104742542D01*
X196748334Y-104743457D01*
X197717158Y-104343147D01*
X198459042Y-103602557D01*
X198861042Y-102634433D01*
X198861957Y-101586166D01*
X198461647Y-100617342D01*
X197721057Y-99875458D01*
X196752933Y-99473458D01*
X195704666Y-99472543D01*
X194735842Y-99872853D01*
X194435000Y-100173170D01*
X194435000Y-97205382D01*
X194466401Y-97184401D01*
X194593401Y-97057401D01*
X194758148Y-96810839D01*
X194816000Y-96520000D01*
X194816000Y-87309802D01*
X195840820Y-86284982D01*
X196048127Y-86423500D01*
M02*
