G04 #@! TF.FileFunction,Other,Fab,Top*
%FSLAX46Y46*%
G04 Gerber Fmt 4.6, Leading zero omitted, Abs format (unit mm)*
G04 Created by KiCad (PCBNEW 4.0.4-stable) date 02/12/17 18:05:13*
%MOMM*%
%LPD*%
G01*
G04 APERTURE LIST*
%ADD10C,0.100000*%
%ADD11C,0.150000*%
G04 APERTURE END LIST*
D10*
D11*
X182001000Y-98695000D02*
X183251000Y-98695000D01*
X182001000Y-100695000D02*
X182001000Y-98695000D01*
X183251000Y-100695000D02*
X182001000Y-100695000D01*
X183251000Y-98695000D02*
X183251000Y-100695000D01*
X116413000Y-77997000D02*
X117013000Y-77997000D01*
X116713000Y-77897000D02*
X116413000Y-77597000D01*
X117013000Y-77597000D02*
X116713000Y-77897000D01*
X116413000Y-77597000D02*
X117013000Y-77597000D01*
X116113000Y-76597000D02*
X116113000Y-78597000D01*
X117313000Y-76597000D02*
X116113000Y-76597000D01*
X117313000Y-78597000D02*
X117313000Y-76597000D01*
X116113000Y-78597000D02*
X117313000Y-78597000D01*
X118995000Y-73406000D02*
X119495000Y-73406000D01*
X118995000Y-73806000D02*
X118395000Y-73406000D01*
X118995000Y-73006000D02*
X118995000Y-73806000D01*
X118395000Y-73406000D02*
X118995000Y-73006000D01*
X118395000Y-73406000D02*
X118395000Y-73956000D01*
X118395000Y-73406000D02*
X118395000Y-72856000D01*
X117995000Y-73406000D02*
X118395000Y-73406000D01*
X117395000Y-74206000D02*
X117395000Y-72606000D01*
X120095000Y-74206000D02*
X117395000Y-74206000D01*
X120095000Y-72606000D02*
X120095000Y-74206000D01*
X117395000Y-72606000D02*
X120095000Y-72606000D01*
X143491000Y-114127000D02*
X143491000Y-114727000D01*
X143591000Y-114427000D02*
X143891000Y-114127000D01*
X143891000Y-114727000D02*
X143591000Y-114427000D01*
X143891000Y-114127000D02*
X143891000Y-114727000D01*
X144891000Y-113827000D02*
X142891000Y-113827000D01*
X144891000Y-115027000D02*
X144891000Y-113827000D01*
X142891000Y-115027000D02*
X144891000Y-115027000D01*
X142891000Y-113827000D02*
X142891000Y-115027000D01*
D10*
X179187000Y-100822000D02*
X177937000Y-100822000D01*
X179187000Y-98822000D02*
X179187000Y-100822000D01*
X177937000Y-98822000D02*
X179187000Y-98822000D01*
X177937000Y-100822000D02*
X177937000Y-98822000D01*
X175758000Y-100822000D02*
X174508000Y-100822000D01*
X175758000Y-98822000D02*
X175758000Y-100822000D01*
X174508000Y-98822000D02*
X175758000Y-98822000D01*
X174508000Y-100822000D02*
X174508000Y-98822000D01*
X191633000Y-115173000D02*
X190383000Y-115173000D01*
X191633000Y-113173000D02*
X191633000Y-115173000D01*
X190383000Y-113173000D02*
X191633000Y-113173000D01*
X190383000Y-115173000D02*
X190383000Y-113173000D01*
M02*
