M48
;DRILL file {KiCad 4.0.4-stable} date 02/12/17 18:05:17
;FORMAT={-:-/ absolute / inch / decimal}
FMAT,2
INCH,TZ
T1C0.016
T2C0.031
T3C0.035
T4C0.039
T5C0.039
T6C0.040
T7C0.047
T8C0.059
T9C0.060
T10C0.079
T11C0.126
%
G90
G05
M72
T1
X4.56Y-3.9
X4.56Y-4.135
X4.865Y-4.575
X5.1Y-3.785
X5.305Y-3.81
X6.205Y-4.34
X6.21Y-4.16
X6.88Y-4.65
X6.94Y-3.51
X6.96Y-3.945
X6.995Y-3.53
X7.015Y-4.565
X7.11Y-4.07
X7.14Y-4.11
X7.145Y-3.8
X7.15Y-3.54
X7.16Y-4.385
X7.195Y-4.04
X7.205Y-4.635
X7.21Y-3.8
X7.3875Y-4.3525
X7.595Y-3.71
X7.92Y-3.555
T2
X5.1405Y-4.087
X5.1405Y-4.166
X5.1405Y-4.245
X5.1405Y-4.323
X5.45Y-4.1916
X5.45Y-4.29
X5.75Y-4.1816
X5.75Y-4.28
X5.94Y-3.92
X5.94Y-4.0184
X5.945Y-3.605
X6.1419Y-3.605
T3
X5.2569Y-3.1527
X5.2569Y-3.2527
X5.2569Y-3.3527
X5.2569Y-3.4527
X7.761Y-2.9525
X7.761Y-3.0525
X7.761Y-3.1525
X7.761Y-3.2525
X7.761Y-3.3525
X7.761Y-3.4525
X7.761Y-3.5525
X7.761Y-3.6525
X7.761Y-3.7525
T4
X5.2569Y-3.5527
X5.5005Y-3.483
X5.7255Y-3.4845
X7.6965Y-4.53
X7.6985Y-4.372
X7.6985Y-4.451
X8.2705Y-4.332
X8.2705Y-4.411
X8.2705Y-4.49
X8.2705Y-4.568
T5
X5.49Y-3.7915
X5.49Y-3.9884
X5.71Y-3.7865
X5.71Y-3.9834
T6
X5.07Y-3.15
X5.07Y-3.25
X5.07Y-3.35
X5.07Y-3.45
X5.07Y-3.55
X6.01Y-4.45
X6.01Y-4.595
X6.11Y-4.45
X6.11Y-4.595
X6.275Y-4.505
X6.375Y-4.505
X6.475Y-4.505
X6.575Y-4.505
X6.675Y-4.505
X6.775Y-4.505
X7.505Y-3.805
X7.505Y-3.905
X7.505Y-4.005
X7.505Y-4.105
X7.505Y-4.205
X7.505Y-4.305
T7
X5.5572Y-2.8012
X5.636Y-2.565
X5.636Y-3.0374
X6.11Y-2.565
X6.1163Y-3.0374
T8
X6.5845Y-2.5584
X6.7814Y-3.3458
X7.1751Y-3.3458
X7.3719Y-2.5584
T9
X4.96Y-3.835
X4.96Y-4.035
X5.03Y-2.52
X5.03Y-2.72
X5.03Y-2.92
X8.075Y-2.51
X8.075Y-2.71
T10
X7.995Y-4.2715
X7.9965Y-4.6315
T11
X5.292Y-4.025
X5.312Y-2.6833
X7.7255Y-2.6833
X7.7255Y-4.02
T0
M30
