G04 #@! TF.FileFunction,Other,ECO2*
%FSLAX46Y46*%
G04 Gerber Fmt 4.6, Leading zero omitted, Abs format (unit mm)*
G04 Created by KiCad (PCBNEW 4.0.4-stable) date 02/12/17 18:05:12*
%MOMM*%
%LPD*%
G01*
G04 APERTURE LIST*
%ADD10C,0.100000*%
%ADD11C,0.300000*%
G04 APERTURE END LIST*
D10*
D11*
X159600073Y-125091571D02*
X158742930Y-125091571D01*
X159171502Y-125091571D02*
X159171502Y-123591571D01*
X159028645Y-123805857D01*
X158885787Y-123948714D01*
X158742930Y-124020143D01*
X160528644Y-123591571D02*
X160671501Y-123591571D01*
X160814358Y-123663000D01*
X160885787Y-123734429D01*
X160957216Y-123877286D01*
X161028644Y-124163000D01*
X161028644Y-124520143D01*
X160957216Y-124805857D01*
X160885787Y-124948714D01*
X160814358Y-125020143D01*
X160671501Y-125091571D01*
X160528644Y-125091571D01*
X160385787Y-125020143D01*
X160314358Y-124948714D01*
X160242930Y-124805857D01*
X160171501Y-124520143D01*
X160171501Y-124163000D01*
X160242930Y-123877286D01*
X160314358Y-123734429D01*
X160385787Y-123663000D01*
X160528644Y-123591571D01*
X162314358Y-124091571D02*
X162314358Y-125091571D01*
X161957215Y-123520143D02*
X161600072Y-124591571D01*
X162528644Y-124591571D01*
X163171500Y-125020143D02*
X163171500Y-125091571D01*
X163100072Y-125234429D01*
X163028643Y-125305857D01*
X163671501Y-123591571D02*
X164671501Y-123591571D01*
X164028644Y-125091571D01*
X165100072Y-123591571D02*
X166100072Y-123591571D01*
X165457215Y-125091571D01*
X167385786Y-123591571D02*
X166671500Y-123591571D01*
X166600071Y-124305857D01*
X166671500Y-124234429D01*
X166814357Y-124163000D01*
X167171500Y-124163000D01*
X167314357Y-124234429D01*
X167385786Y-124305857D01*
X167457214Y-124448714D01*
X167457214Y-124805857D01*
X167385786Y-124948714D01*
X167314357Y-125020143D01*
X167171500Y-125091571D01*
X166814357Y-125091571D01*
X166671500Y-125020143D01*
X166600071Y-124948714D01*
X169242928Y-125091571D02*
X169242928Y-124091571D01*
X169242928Y-124234429D02*
X169314356Y-124163000D01*
X169457214Y-124091571D01*
X169671499Y-124091571D01*
X169814356Y-124163000D01*
X169885785Y-124305857D01*
X169885785Y-125091571D01*
X169885785Y-124305857D02*
X169957214Y-124163000D01*
X170100071Y-124091571D01*
X170314356Y-124091571D01*
X170457214Y-124163000D01*
X170528642Y-124305857D01*
X170528642Y-125091571D01*
X171242928Y-125091571D02*
X171242928Y-124091571D01*
X171242928Y-124234429D02*
X171314356Y-124163000D01*
X171457214Y-124091571D01*
X171671499Y-124091571D01*
X171814356Y-124163000D01*
X171885785Y-124305857D01*
X171885785Y-125091571D01*
X171885785Y-124305857D02*
X171957214Y-124163000D01*
X172100071Y-124091571D01*
X172314356Y-124091571D01*
X172457214Y-124163000D01*
X172528642Y-124305857D01*
X172528642Y-125091571D01*
X113284000Y-123063000D02*
X218059000Y-123063000D01*
X113284000Y-121031000D02*
X113284000Y-125763000D01*
X218059000Y-121031000D02*
X218059000Y-125763000D01*
X218059000Y-123063000D02*
X216932496Y-123649421D01*
X218059000Y-123063000D02*
X216932496Y-122476579D01*
X113284000Y-123063000D02*
X114410504Y-123649421D01*
X113284000Y-123063000D02*
X114410504Y-122476579D01*
X108953571Y-91248713D02*
X108953571Y-90248713D01*
X110453571Y-90891570D01*
X109096429Y-89748714D02*
X109025000Y-89677285D01*
X108953571Y-89534428D01*
X108953571Y-89177285D01*
X109025000Y-89034428D01*
X109096429Y-88962999D01*
X109239286Y-88891571D01*
X109382143Y-88891571D01*
X109596429Y-88962999D01*
X110453571Y-89820142D01*
X110453571Y-88891571D01*
X110382143Y-88177286D02*
X110453571Y-88177286D01*
X110596429Y-88248714D01*
X110667857Y-88320143D01*
X110453571Y-86748714D02*
X110453571Y-87605857D01*
X110453571Y-87177285D02*
X108953571Y-87177285D01*
X109167857Y-87320142D01*
X109310714Y-87463000D01*
X109382143Y-87605857D01*
X108953571Y-86248714D02*
X108953571Y-85320143D01*
X109525000Y-85820143D01*
X109525000Y-85605857D01*
X109596429Y-85463000D01*
X109667857Y-85391571D01*
X109810714Y-85320143D01*
X110167857Y-85320143D01*
X110310714Y-85391571D01*
X110382143Y-85463000D01*
X110453571Y-85605857D01*
X110453571Y-86034429D01*
X110382143Y-86177286D01*
X110310714Y-86248714D01*
X108953571Y-84034429D02*
X108953571Y-84320143D01*
X109025000Y-84463000D01*
X109096429Y-84534429D01*
X109310714Y-84677286D01*
X109596429Y-84748715D01*
X110167857Y-84748715D01*
X110310714Y-84677286D01*
X110382143Y-84605858D01*
X110453571Y-84463000D01*
X110453571Y-84177286D01*
X110382143Y-84034429D01*
X110310714Y-83963000D01*
X110167857Y-83891572D01*
X109810714Y-83891572D01*
X109667857Y-83963000D01*
X109596429Y-84034429D01*
X109525000Y-84177286D01*
X109525000Y-84463000D01*
X109596429Y-84605858D01*
X109667857Y-84677286D01*
X109810714Y-84748715D01*
X110453571Y-82105858D02*
X109453571Y-82105858D01*
X109596429Y-82105858D02*
X109525000Y-82034430D01*
X109453571Y-81891572D01*
X109453571Y-81677287D01*
X109525000Y-81534430D01*
X109667857Y-81463001D01*
X110453571Y-81463001D01*
X109667857Y-81463001D02*
X109525000Y-81391572D01*
X109453571Y-81248715D01*
X109453571Y-81034430D01*
X109525000Y-80891572D01*
X109667857Y-80820144D01*
X110453571Y-80820144D01*
X110453571Y-80105858D02*
X109453571Y-80105858D01*
X109596429Y-80105858D02*
X109525000Y-80034430D01*
X109453571Y-79891572D01*
X109453571Y-79677287D01*
X109525000Y-79534430D01*
X109667857Y-79463001D01*
X110453571Y-79463001D01*
X109667857Y-79463001D02*
X109525000Y-79391572D01*
X109453571Y-79248715D01*
X109453571Y-79034430D01*
X109525000Y-78891572D01*
X109667857Y-78820144D01*
X110453571Y-78820144D01*
X111125000Y-121031000D02*
X111125000Y-48895000D01*
X113284000Y-121031000D02*
X108425000Y-121031000D01*
X113284000Y-48895000D02*
X108425000Y-48895000D01*
X111125000Y-48895000D02*
X111711421Y-50021504D01*
X111125000Y-48895000D02*
X110538579Y-50021504D01*
X111125000Y-121031000D02*
X111711421Y-119904496D01*
X111125000Y-121031000D02*
X110538579Y-119904496D01*
M02*
