G04 #@! TF.FileFunction,Soldermask,Top*
%FSLAX46Y46*%
G04 Gerber Fmt 4.6, Leading zero omitted, Abs format (unit mm)*
G04 Created by KiCad (PCBNEW 4.0.4-stable) date 02/12/17 18:05:12*
%MOMM*%
%LPD*%
G01*
G04 APERTURE LIST*
%ADD10C,0.100000*%
%ADD11C,4.400000*%
%ADD12R,2.400000X1.700000*%
%ADD13C,3.600000*%
%ADD14C,2.400000*%
%ADD15C,4.210000*%
%ADD16R,3.400000X3.400000*%
%ADD17C,3.400000*%
%ADD18R,1.700000X1.900000*%
%ADD19R,1.650000X1.900000*%
%ADD20R,1.598880X1.598880*%
%ADD21R,1.310000X1.620000*%
%ADD22R,2.400000X1.500000*%
%ADD23O,2.900000X1.900000*%
%ADD24R,2.900000X2.200000*%
%ADD25R,2.900000X1.900000*%
%ADD26R,2.940000X2.940000*%
%ADD27C,2.940000*%
%ADD28R,2.432000X2.127200*%
%ADD29O,2.432000X2.127200*%
%ADD30R,1.200100X1.200100*%
%ADD31C,2.398980*%
%ADD32R,1.700000X1.700000*%
%ADD33C,1.700000*%
%ADD34R,2.127200X2.432000*%
%ADD35O,2.127200X2.432000*%
%ADD36R,2.432000X2.432000*%
%ADD37O,2.432000X2.432000*%
%ADD38R,1.900000X1.700000*%
G04 APERTURE END LIST*
D10*
D11*
X203111100Y-117640100D03*
D12*
X195541900Y-111048800D03*
X195541900Y-113055400D03*
X195491100Y-115062000D03*
X210070700Y-116027200D03*
X210070700Y-114046000D03*
X210070700Y-112039400D03*
X210070700Y-110032800D03*
D11*
X203073000Y-108496100D03*
D13*
X124333000Y-81534000D03*
X124333000Y-86360000D03*
X124333000Y-84074000D03*
X206756000Y-83947000D03*
X206756000Y-86233000D03*
D14*
X139712700Y-88468200D03*
X145427700Y-88506300D03*
D15*
X155354000Y-77151000D03*
D16*
X143154000Y-65151000D03*
D15*
X155194000Y-65151000D03*
D17*
X143154000Y-77151000D03*
D15*
X141154000Y-71151000D03*
D18*
X181991000Y-115523000D03*
X181991000Y-112823000D03*
D19*
X182626000Y-98445000D03*
X182626000Y-100945000D03*
D20*
X116713000Y-76547980D03*
X116713000Y-78646020D03*
D21*
X117110000Y-73406000D03*
X120380000Y-73406000D03*
D22*
X130568700Y-109804200D03*
X130568700Y-107823000D03*
X130568700Y-105816400D03*
X130568700Y-103809800D03*
D23*
X133525260Y-80078580D03*
X133525260Y-82618580D03*
X133525260Y-85158580D03*
X133525260Y-87698580D03*
D24*
X133525260Y-90238580D03*
D25*
X197129400Y-95313500D03*
D23*
X197129400Y-92773500D03*
X197129400Y-90233500D03*
X197129400Y-87693500D03*
X197129400Y-85153500D03*
X197129400Y-82613500D03*
X197129400Y-80073500D03*
X197129400Y-77533500D03*
X197129400Y-74993500D03*
D11*
X134418000Y-102235000D03*
X196226500Y-102108000D03*
X134926000Y-68156000D03*
X196226500Y-68156000D03*
D26*
X127762000Y-74168000D03*
D27*
X127762000Y-69088000D03*
X127762000Y-64008000D03*
D26*
X125984000Y-102489000D03*
D27*
X125984000Y-97409000D03*
D26*
X205105000Y-63754000D03*
D27*
X205105000Y-68834000D03*
D28*
X128778000Y-90170000D03*
D29*
X128778000Y-87630000D03*
X128778000Y-85090000D03*
X128778000Y-82550000D03*
X128778000Y-80010000D03*
D30*
X115636000Y-85455760D03*
X117536000Y-85455760D03*
X116586000Y-83456780D03*
D18*
X118237000Y-91393000D03*
X118237000Y-88693000D03*
X118999000Y-79328000D03*
X118999000Y-76628000D03*
X115824000Y-88693000D03*
X115824000Y-91393000D03*
X179705000Y-115523000D03*
X179705000Y-112823000D03*
X184277000Y-115523000D03*
X184277000Y-112823000D03*
D31*
X139446000Y-101305360D03*
X139446000Y-96304100D03*
X145034000Y-101178360D03*
X145034000Y-96177100D03*
D17*
X182247000Y-84984000D03*
X172247000Y-84984000D03*
X187247000Y-64984000D03*
X167247000Y-64984000D03*
D32*
X151003000Y-91567000D03*
D33*
X156003000Y-91567000D03*
D32*
X150876000Y-99568000D03*
D33*
X150876000Y-102068000D03*
D32*
X146050000Y-108712000D03*
D33*
X146050000Y-106212000D03*
D32*
X138430000Y-108966000D03*
D33*
X138430000Y-106466000D03*
D34*
X172085000Y-114427000D03*
D35*
X169545000Y-114427000D03*
X167005000Y-114427000D03*
X164465000Y-114427000D03*
X161925000Y-114427000D03*
X159385000Y-114427000D03*
D36*
X152654000Y-113030000D03*
D37*
X155194000Y-113030000D03*
D18*
X186563000Y-112823000D03*
X186563000Y-115523000D03*
X188849000Y-112823000D03*
X188849000Y-115523000D03*
D20*
X144940020Y-114427000D03*
X142841980Y-114427000D03*
D38*
X137207000Y-114427000D03*
X139907000Y-114427000D03*
D18*
X178562000Y-101172000D03*
X178562000Y-98472000D03*
X175133000Y-101172000D03*
X175133000Y-98472000D03*
D36*
X152654000Y-116713000D03*
D37*
X155194000Y-116713000D03*
D18*
X191008000Y-115523000D03*
X191008000Y-112823000D03*
D13*
X206756000Y-81407000D03*
D28*
X190627000Y-109347000D03*
D29*
X190627000Y-106807000D03*
X190627000Y-104267000D03*
X190627000Y-101727000D03*
X190627000Y-99187000D03*
X190627000Y-96647000D03*
M02*
